<svg id="svg" version="1.1" xmlns="http://www.w3.org/2000/svg" xmlns:xlink="http://www.w3.org/1999/xlink" width="400" height="400" viewBox="0, 0, 400,400"><g id="svgg"><path id="path0" d="M107.600 148.600 L 107.600 153.600 114.600 153.600 C 118.450 153.600,121.600 153.759,121.600 153.953 C 121.600 154.148,121.973 154.404,122.430 154.524 C 122.886 154.643,123.357 155.114,123.476 155.570 C 123.596 156.027,123.852 156.400,124.047 156.400 C 124.249 156.400,124.400 172.257,124.400 193.400 C 124.400 226.022,124.471 230.400,125.000 230.400 C 125.510 230.400,125.600 231.420,125.600 237.176 C 125.600 241.263,125.759 244.051,126.000 244.200 C 126.220 244.336,126.400 244.887,126.400 245.424 C 126.400 246.025,126.631 246.400,127.000 246.400 C 127.419 246.400,127.600 246.822,127.600 247.800 C 127.600 248.570,127.780 249.200,128.000 249.200 C 128.220 249.200,128.400 249.470,128.400 249.800 C 128.400 250.130,128.670 250.400,129.000 250.400 C 129.421 250.400,129.600 250.825,129.600 251.829 C 129.600 253.226,130.317 254.400,131.171 254.400 C 131.407 254.400,131.600 254.593,131.600 254.829 C 131.600 255.382,132.618 256.400,133.171 256.400 C 133.407 256.400,133.600 256.593,133.600 256.829 C 133.600 257.382,134.618 258.400,135.171 258.400 C 135.407 258.400,135.600 258.593,135.600 258.829 C 135.600 259.382,136.618 260.400,137.171 260.400 C 137.407 260.400,137.600 260.670,137.600 261.000 C 137.600 261.373,137.978 261.600,138.600 261.600 C 139.150 261.600,139.600 261.780,139.600 262.000 C 139.600 262.220,140.050 262.400,140.600 262.400 C 141.150 262.400,141.600 262.593,141.600 262.829 C 141.600 263.449,142.646 264.400,143.329 264.400 C 143.651 264.400,144.018 264.670,144.145 265.000 C 144.297 265.396,144.923 265.600,145.987 265.600 C 146.874 265.600,147.600 265.780,147.600 266.000 C 147.600 266.220,148.050 266.400,148.600 266.400 C 149.222 266.400,149.600 266.627,149.600 267.000 C 149.600 267.369,149.975 267.600,150.576 267.600 C 151.113 267.600,151.664 267.780,151.800 268.000 C 151.936 268.220,152.555 268.400,153.175 268.400 C 153.795 268.400,154.526 268.670,154.800 269.000 C 155.166 269.440,156.136 269.600,158.449 269.600 C 160.283 269.600,161.600 269.767,161.600 270.000 C 161.600 270.248,163.819 270.400,167.456 270.400 C 172.498 270.400,173.381 270.494,173.807 271.078 C 174.273 271.715,174.365 271.715,175.337 271.078 C 176.171 270.532,177.347 270.400,181.386 270.400 C 184.462 270.400,186.400 270.245,186.400 270.000 C 186.400 269.763,187.867 269.600,190.000 269.600 C 192.933 269.600,193.600 269.489,193.600 269.000 C 193.600 268.581,194.022 268.400,195.000 268.400 C 195.770 268.400,196.400 268.220,196.400 268.000 C 196.400 267.780,196.850 267.600,197.400 267.600 C 198.022 267.600,198.400 267.373,198.400 267.000 C 198.400 266.627,198.778 266.400,199.400 266.400 C 199.950 266.400,200.400 266.220,200.400 266.000 C 200.400 265.780,201.005 265.600,201.744 265.600 C 202.711 265.600,203.299 265.319,203.839 264.600 C 204.252 264.050,204.817 263.600,205.095 263.600 C 205.373 263.600,205.600 263.330,205.600 263.000 C 205.600 262.627,205.978 262.400,206.600 262.400 C 207.150 262.400,207.600 262.233,207.600 262.028 C 207.600 261.823,208.003 261.598,208.496 261.528 C 208.989 261.458,209.455 261.068,209.533 260.662 C 209.716 259.701,210.838 258.400,211.484 258.400 C 212.279 258.400,213.600 257.096,213.600 256.311 C 213.600 255.920,213.780 255.600,214.000 255.600 C 214.220 255.600,214.400 255.330,214.400 255.000 C 214.400 254.670,214.593 254.400,214.829 254.400 C 215.382 254.400,216.400 253.382,216.400 252.829 C 216.400 252.593,216.670 252.400,217.000 252.400 C 217.373 252.400,217.600 252.022,217.600 251.400 C 217.600 250.850,217.780 250.400,218.000 250.400 C 218.220 250.400,218.400 249.950,218.400 249.400 C 218.400 248.778,218.627 248.400,219.000 248.400 C 219.373 248.400,219.600 248.022,219.600 247.400 C 219.600 246.850,219.780 246.400,220.000 246.400 C 220.220 246.400,220.400 246.152,220.400 245.849 C 220.400 245.546,220.670 245.074,221.000 244.800 C 221.409 244.461,221.600 243.553,221.600 241.951 C 221.600 240.650,221.779 239.600,222.000 239.600 C 222.231 239.600,222.400 238.329,222.400 236.587 C 222.400 234.279,222.540 233.521,223.000 233.345 C 223.527 233.143,223.600 229.039,223.600 199.757 C 223.600 177.786,223.737 166.400,224.000 166.400 C 224.220 166.400,224.400 165.789,224.400 165.043 C 224.400 164.205,224.630 163.597,225.000 163.455 C 225.377 163.311,225.600 162.699,225.600 161.813 C 225.600 161.036,225.780 160.400,226.000 160.400 C 226.220 160.400,226.400 159.950,226.400 159.400 C 226.400 158.850,226.593 158.400,226.829 158.400 C 227.227 158.400,227.558 158.162,228.886 156.919 C 229.820 156.046,230.400 155.240,230.400 154.817 C 230.400 154.588,230.850 154.400,231.400 154.400 C 231.950 154.400,232.400 154.220,232.400 154.000 C 232.400 153.757,234.200 153.600,237.000 153.600 L 241.600 153.600 241.600 148.600 L 241.600 143.600 217.600 143.600 L 193.600 143.600 193.600 148.600 L 193.600 153.600 197.600 153.600 C 200.000 153.600,201.600 153.760,201.600 154.000 C 201.600 154.220,202.050 154.400,202.600 154.400 C 203.150 154.400,203.600 154.593,203.600 154.829 C 203.600 155.382,204.618 156.400,205.171 156.400 C 205.407 156.400,205.600 156.593,205.600 156.829 C 205.600 157.382,206.618 158.400,207.171 158.400 C 207.407 158.400,207.600 158.681,207.600 159.024 C 207.600 159.367,207.780 159.536,208.000 159.400 C 208.233 159.256,208.400 159.663,208.400 160.376 C 208.400 161.156,208.602 161.600,208.958 161.600 C 209.298 161.600,209.601 162.187,209.732 163.100 C 210.215 166.450,210.704 168.464,211.140 168.900 C 211.922 169.682,211.785 228.148,211.000 228.800 C 210.581 229.147,210.400 230.069,210.400 231.849 C 210.400 233.283,210.225 234.400,210.000 234.400 C 209.774 234.400,209.600 235.533,209.600 237.000 C 209.600 239.044,209.472 239.600,209.000 239.600 C 208.662 239.600,208.400 239.957,208.400 240.417 C 208.400 240.867,207.950 241.720,207.400 242.313 C 206.850 242.907,206.400 243.619,206.400 243.896 C 206.400 244.173,206.220 244.400,206.000 244.400 C 205.780 244.400,205.600 244.754,205.600 245.186 C 205.600 246.009,203.527 248.400,202.813 248.400 C 202.586 248.400,202.400 248.586,202.400 248.813 C 202.400 249.435,200.058 251.600,199.386 251.600 C 199.064 251.600,198.800 251.780,198.800 252.000 C 198.800 252.220,198.530 252.400,198.200 252.400 C 197.870 252.400,197.600 252.670,197.600 253.000 C 197.600 253.429,197.162 253.600,196.061 253.600 C 194.558 253.600,192.246 254.478,191.784 255.225 C 191.657 255.431,190.833 255.600,189.953 255.600 C 188.988 255.600,188.451 255.759,188.600 256.000 C 188.757 256.254,187.671 256.400,185.624 256.400 C 183.025 256.400,182.400 256.516,182.400 257.000 C 182.400 257.453,181.911 257.600,180.400 257.600 C 178.889 257.600,178.400 257.453,178.400 257.000 C 178.400 256.528,177.844 256.400,175.800 256.400 C 174.370 256.400,173.200 256.255,173.200 256.078 C 173.200 255.901,172.437 255.711,171.504 255.656 C 170.529 255.599,169.670 255.310,169.484 254.978 C 169.306 254.660,168.809 254.400,168.380 254.400 C 167.951 254.400,167.600 254.220,167.600 254.000 C 167.600 253.780,167.169 253.600,166.643 253.600 C 166.116 253.600,165.582 253.330,165.455 253.000 C 165.329 252.670,164.904 252.394,164.513 252.387 C 163.754 252.374,162.400 251.502,162.400 251.027 C 162.400 250.447,161.230 249.600,160.429 249.600 C 159.973 249.600,159.600 249.349,159.600 249.043 C 159.600 248.736,159.330 248.382,159.000 248.255 C 158.670 248.129,158.400 247.659,158.400 247.213 C 158.400 246.766,158.220 246.400,158.000 246.400 C 157.780 246.400,157.597 246.085,157.593 245.700 C 157.589 245.315,157.139 244.576,156.593 244.058 C 156.047 243.540,155.600 242.775,155.600 242.358 C 155.600 241.941,155.330 241.600,155.000 241.600 C 154.627 241.600,154.400 241.222,154.400 240.600 C 154.400 240.050,154.220 239.600,154.000 239.600 C 153.764 239.600,153.600 238.159,153.600 236.076 C 153.600 233.598,153.426 232.323,153.013 231.776 C 152.114 230.589,152.102 157.800,153.000 157.455 C 153.355 157.319,153.600 156.718,153.600 155.984 C 153.600 153.694,153.953 153.600,162.571 153.600 L 170.400 153.600 170.400 148.600 L 170.400 143.600 139.000 143.600 L 107.600 143.600 107.600 148.600 M320.119 174.115 C 319.163 175.079,318.426 175.600,318.017 175.600 C 317.788 175.600,317.600 176.050,317.600 176.600 C 317.600 177.222,317.373 177.600,317.000 177.600 C 316.509 177.600,316.400 178.289,316.400 181.400 C 316.400 184.511,316.509 185.200,317.000 185.200 C 317.330 185.200,317.600 185.440,317.600 185.734 C 317.600 186.515,319.860 188.400,320.797 188.400 C 321.244 188.400,321.600 188.666,321.600 189.000 C 321.600 189.708,326.176 189.886,326.604 189.194 C 326.742 188.971,327.472 188.530,328.227 188.214 C 328.982 187.899,329.600 187.404,329.600 187.115 C 329.600 186.826,330.050 186.252,330.600 185.839 C 331.835 184.912,332.190 177.600,331.000 177.600 C 330.670 177.600,330.400 177.330,330.400 177.000 C 330.400 176.670,330.223 176.400,330.008 176.400 C 329.792 176.400,329.503 175.951,329.365 175.403 C 329.227 174.854,328.968 174.496,328.790 174.606 C 328.611 174.717,328.193 174.536,327.861 174.204 C 327.098 173.440,320.859 173.369,320.119 174.115 M363.600 187.813 C 363.600 190.477,363.468 191.276,363.000 191.455 C 362.611 191.605,362.400 192.225,362.400 193.219 C 362.400 194.063,362.220 194.864,362.000 195.000 C 361.780 195.136,361.600 196.227,361.600 197.424 C 361.600 199.092,361.460 199.600,361.000 199.600 C 360.453 199.600,360.218 200.085,360.360 200.921 C 360.434 201.360,359.357 202.400,358.829 202.400 C 358.593 202.400,358.400 202.670,358.400 203.000 C 358.400 203.330,358.220 203.600,358.000 203.600 C 357.780 203.600,357.600 203.793,357.600 204.029 C 357.600 204.508,356.610 205.600,356.176 205.600 C 356.021 205.600,355.300 206.230,354.574 207.000 C 353.848 207.770,352.882 208.400,352.427 208.400 C 351.959 208.400,351.600 208.660,351.600 209.000 C 351.600 209.453,351.111 209.600,349.600 209.600 L 347.600 209.600 347.600 212.600 L 347.600 215.600 352.600 215.600 L 357.600 215.600 357.600 237.742 L 357.600 259.883 358.600 260.962 C 359.150 261.556,359.600 262.403,359.600 262.844 C 359.600 263.286,359.780 263.536,360.000 263.400 C 360.220 263.264,360.400 263.433,360.400 263.776 C 360.400 264.119,360.670 264.400,361.000 264.400 C 361.330 264.400,361.600 264.593,361.600 264.829 C 361.600 265.362,362.610 266.400,363.129 266.400 C 363.341 266.400,363.618 266.670,363.745 267.000 C 363.871 267.330,364.341 267.600,364.787 267.600 C 365.234 267.600,365.600 267.780,365.600 268.000 C 365.600 268.220,366.031 268.400,366.557 268.400 C 367.084 268.400,367.618 268.670,367.745 269.000 C 367.934 269.494,368.964 269.600,373.559 269.600 C 377.989 269.600,379.267 269.476,379.743 269.000 C 380.073 268.670,380.626 268.400,380.971 268.400 C 381.317 268.400,381.600 268.220,381.600 268.000 C 381.600 267.780,381.966 267.600,382.413 267.600 C 382.859 267.600,383.329 267.330,383.455 267.000 C 383.582 266.670,384.039 266.400,384.471 266.400 C 385.321 266.400,386.400 265.521,386.400 264.829 C 386.400 264.593,386.583 264.400,386.806 264.400 C 387.030 264.400,387.513 263.770,387.881 263.000 C 388.248 262.230,388.785 261.600,389.074 261.600 C 389.421 261.600,389.600 261.055,389.600 260.000 C 389.600 259.120,389.780 258.400,390.000 258.400 C 390.220 258.400,390.400 258.034,390.400 257.587 C 390.400 257.141,390.670 256.671,391.000 256.545 C 391.370 256.403,391.600 255.795,391.600 254.957 C 391.600 254.211,391.780 253.600,392.000 253.600 C 392.240 253.600,392.400 252.000,392.400 249.600 L 392.400 245.600 389.400 245.600 L 386.400 245.600 386.400 248.000 C 386.400 249.333,386.222 250.400,386.000 250.400 C 385.774 250.400,385.600 251.533,385.600 253.000 C 385.600 255.044,385.472 255.600,385.000 255.600 C 384.660 255.600,384.400 255.959,384.400 256.429 C 384.400 257.314,383.534 258.400,382.829 258.400 C 382.593 258.400,382.400 258.586,382.400 258.813 C 382.400 260.963,375.003 262.949,374.255 261.000 C 374.129 260.670,373.728 260.400,373.365 260.400 C 372.535 260.400,370.415 258.035,370.406 257.100 C 370.403 256.715,370.220 256.400,370.000 256.400 C 369.739 256.400,369.600 249.333,369.600 236.000 L 369.600 215.600 379.000 215.600 L 388.400 215.600 388.400 212.000 L 388.400 208.400 379.000 208.400 L 369.600 208.400 369.600 196.400 L 369.600 184.400 366.600 184.400 L 363.600 184.400 363.600 187.813 M239.600 208.000 C 239.600 208.245,237.667 208.400,234.600 208.400 L 229.600 208.400 229.600 211.000 L 229.600 213.600 232.000 213.600 C 233.333 213.600,234.400 213.778,234.400 214.000 C 234.400 214.220,235.120 214.400,236.000 214.400 C 236.880 214.400,237.600 214.593,237.600 214.829 C 237.600 215.064,237.857 215.514,238.171 215.829 C 238.486 216.143,238.936 216.400,239.171 216.400 C 239.407 216.400,239.600 216.670,239.600 217.000 C 239.600 217.330,239.780 217.600,240.000 217.600 C 240.262 217.600,240.400 225.000,240.400 239.000 C 240.400 253.000,240.262 260.400,240.000 260.400 C 239.780 260.400,239.600 260.670,239.600 261.000 C 239.600 261.433,239.156 261.600,238.000 261.600 C 237.120 261.600,236.400 261.780,236.400 262.000 C 236.400 262.231,235.133 262.400,233.400 262.400 L 230.400 262.400 230.400 265.400 L 230.400 268.400 246.400 268.400 L 262.400 268.400 262.400 265.400 L 262.400 262.400 260.000 262.400 C 258.667 262.400,257.600 262.222,257.600 262.000 C 257.600 261.780,256.957 261.600,256.171 261.600 C 254.579 261.600,253.600 260.862,253.600 259.661 C 253.600 258.504,253.172 257.570,252.758 257.826 C 252.550 257.954,252.400 252.912,252.400 245.811 C 252.400 235.303,252.485 233.542,253.000 233.345 C 253.467 233.165,253.600 232.372,253.600 229.757 C 253.600 227.786,253.765 226.400,254.000 226.400 C 254.220 226.400,254.400 226.207,254.400 225.971 C 254.400 225.736,254.625 225.292,254.900 224.985 C 256.087 223.662,256.400 223.209,256.400 222.817 C 256.400 222.588,256.670 222.400,257.000 222.400 C 257.340 222.400,257.600 222.041,257.600 221.571 C 257.600 220.686,258.466 219.600,259.171 219.600 C 259.407 219.600,259.600 219.330,259.600 219.000 C 259.600 218.627,259.978 218.400,260.600 218.400 C 261.150 218.400,261.600 218.220,261.600 218.000 C 261.600 217.780,262.056 217.600,262.613 217.600 C 263.169 217.600,263.729 217.330,263.855 217.000 C 264.009 216.599,264.641 216.400,265.763 216.400 C 266.685 216.400,267.636 216.204,267.875 215.965 C 268.188 215.652,268.385 215.652,268.578 215.965 C 268.726 216.204,269.627 216.400,270.581 216.400 C 271.753 216.400,272.389 216.594,272.545 217.000 C 272.681 217.355,273.282 217.600,274.016 217.600 C 275.252 217.600,276.400 218.356,276.400 219.171 C 276.400 219.407,276.670 219.600,277.000 219.600 C 277.373 219.600,277.600 219.978,277.600 220.600 C 277.600 221.150,277.780 221.600,278.000 221.600 C 278.220 221.600,278.400 221.848,278.400 222.151 C 278.400 222.454,278.670 222.926,279.000 223.200 C 279.330 223.474,279.600 224.126,279.600 224.649 C 279.600 225.172,279.780 225.600,280.000 225.600 C 280.261 225.600,280.400 231.667,280.400 243.000 C 280.400 254.333,280.261 260.400,280.000 260.400 C 279.780 260.400,279.600 260.670,279.600 261.000 C 279.600 261.461,279.089 261.600,277.400 261.600 C 276.190 261.600,275.200 261.780,275.200 262.000 C 275.200 262.222,274.133 262.400,272.800 262.400 L 270.400 262.400 270.400 265.400 L 270.400 268.400 286.400 268.400 L 302.400 268.400 302.400 265.400 L 302.400 262.400 300.024 262.400 C 298.717 262.400,297.536 262.220,297.400 262.000 C 297.264 261.780,296.533 261.600,295.776 261.600 C 294.796 261.600,294.400 261.420,294.400 260.976 C 294.400 260.633,294.220 260.464,294.000 260.600 C 293.780 260.736,293.600 260.589,293.600 260.273 C 293.600 259.957,293.330 259.474,293.000 259.200 C 292.483 258.771,292.400 256.220,292.400 240.751 C 292.400 229.050,292.261 222.800,292.000 222.800 C 291.780 222.800,291.600 222.164,291.600 221.387 C 291.600 220.501,291.377 219.889,291.000 219.745 C 290.670 219.618,290.400 219.084,290.400 218.557 C 290.400 218.031,290.220 217.600,290.000 217.600 C 289.780 217.600,289.600 216.995,289.600 216.256 C 289.600 215.289,289.319 214.701,288.600 214.161 C 288.050 213.748,287.600 213.183,287.600 212.905 C 287.600 212.627,287.408 212.400,287.173 212.400 C 286.938 212.400,286.152 211.770,285.426 211.000 C 284.700 210.230,283.722 209.600,283.253 209.600 C 282.761 209.600,282.400 209.346,282.400 209.000 C 282.400 208.547,281.911 208.400,280.400 208.400 C 279.300 208.400,278.400 208.220,278.400 208.000 C 278.400 207.754,276.408 207.600,273.224 207.600 C 270.204 207.600,267.944 207.767,267.800 208.000 C 267.664 208.220,266.843 208.400,265.976 208.400 C 264.842 208.400,264.400 208.568,264.400 209.000 C 264.400 209.419,263.978 209.600,263.000 209.600 C 262.230 209.600,261.600 209.799,261.600 210.043 C 261.600 210.286,261.328 210.381,260.996 210.254 C 260.643 210.118,260.189 210.349,259.900 210.811 C 259.629 211.245,259.258 211.600,259.075 211.600 C 258.892 211.600,258.506 211.825,258.216 212.100 C 257.926 212.375,257.178 212.960,256.554 213.400 C 254.801 214.636,253.600 216.042,253.600 216.858 C 253.600 217.266,253.330 217.600,253.000 217.600 C 252.547 217.600,252.400 217.111,252.400 215.600 C 252.400 214.500,252.220 213.600,252.000 213.600 C 251.780 213.600,251.600 212.700,251.600 211.600 C 251.600 210.089,251.453 209.600,251.000 209.600 C 250.627 209.600,250.400 209.222,250.400 208.600 L 250.400 207.600 245.000 207.600 C 241.667 207.600,239.600 207.753,239.600 208.000 M326.800 208.059 C 326.800 208.239,322.255 208.434,316.700 208.493 L 306.600 208.600 306.482 211.500 L 306.365 214.400 310.411 214.400 C 313.474 214.400,314.603 214.546,315.057 215.000 C 315.387 215.330,316.094 215.600,316.629 215.600 C 317.379 215.600,317.600 215.812,317.600 216.532 C 317.600 217.118,317.972 217.664,318.600 218.000 L 319.600 218.535 319.600 239.268 C 319.600 262.429,319.704 261.600,316.800 261.600 C 316.140 261.600,315.600 261.780,315.600 262.000 C 315.600 262.237,314.133 262.400,312.000 262.400 L 308.400 262.400 308.400 265.400 L 308.400 268.400 325.400 268.400 L 342.400 268.400 342.400 265.400 L 342.400 262.400 339.024 262.400 C 337.167 262.400,335.536 262.220,335.400 262.000 C 335.264 261.780,334.533 261.600,333.776 261.600 C 332.575 261.600,332.400 261.473,332.400 260.600 C 332.400 260.050,332.220 259.600,332.000 259.600 C 331.737 259.600,331.600 250.660,331.600 233.579 L 331.600 207.558 329.200 207.645 C 327.880 207.692,326.800 207.879,326.800 208.059 " stroke="none" fill="#cc0404" fill-rule="evenodd"></path><path id="path1" d="M47.600 133.400 L 47.600 138.400 55.951 138.400 C 62.886 138.400,64.386 138.502,64.800 139.000 C 65.074 139.330,65.546 139.600,65.849 139.600 C 66.152 139.600,66.400 139.780,66.400 140.000 C 66.400 140.220,66.605 140.400,66.856 140.400 C 67.521 140.400,68.373 141.664,68.387 142.671 C 68.394 143.151,68.670 143.813,69.000 144.143 C 69.910 145.053,69.910 236.147,69.000 237.057 C 68.562 237.496,68.400 238.565,68.400 241.029 C 68.400 243.010,68.235 244.400,68.000 244.400 C 67.780 244.400,67.600 244.828,67.600 245.351 C 67.600 245.874,67.330 246.526,67.000 246.800 C 66.670 247.074,66.400 247.501,66.400 247.749 C 66.399 247.997,65.949 248.723,65.400 249.362 C 64.850 250.001,64.400 250.946,64.400 251.462 C 64.400 251.978,64.220 252.400,64.000 252.400 C 63.479 252.400,60.400 255.479,60.400 256.000 C 60.400 256.220,59.963 256.400,59.429 256.400 C 58.894 256.400,58.187 256.670,57.857 257.000 C 57.527 257.330,57.064 257.600,56.829 257.600 C 56.593 257.600,56.400 257.780,56.400 258.000 C 56.400 258.220,56.034 258.400,55.587 258.400 C 55.141 258.400,54.671 258.670,54.545 259.000 C 54.415 259.338,53.819 259.600,53.181 259.600 C 52.557 259.600,51.936 259.780,51.800 260.000 C 51.653 260.238,49.129 260.400,45.576 260.400 C 41.859 260.400,39.600 260.249,39.600 260.000 C 39.600 259.780,38.964 259.600,38.187 259.600 C 37.301 259.600,36.689 259.377,36.545 259.000 C 36.418 258.670,35.884 258.400,35.357 258.400 C 34.831 258.400,34.400 258.220,34.400 258.000 C 34.400 257.780,34.034 257.600,33.587 257.600 C 33.141 257.600,32.671 257.330,32.545 257.000 C 32.418 256.670,31.884 256.400,31.357 256.400 C 30.831 256.400,30.400 256.220,30.400 256.000 C 30.400 255.780,30.207 255.600,29.971 255.600 C 29.736 255.600,29.292 255.375,28.985 255.100 C 27.719 253.964,27.217 253.600,26.917 253.597 C 26.545 253.593,25.600 251.673,25.600 250.920 C 25.600 250.634,25.330 250.400,25.000 250.400 C 24.627 250.400,24.400 250.022,24.400 249.400 C 24.400 248.850,24.220 248.400,24.000 248.400 C 23.780 248.400,23.600 247.950,23.600 247.400 C 23.600 246.850,23.780 246.400,24.000 246.400 C 24.220 246.400,24.400 245.950,24.400 245.400 C 24.400 244.778,24.627 244.400,25.000 244.400 C 25.330 244.400,25.600 244.220,25.600 244.000 C 25.600 243.780,26.500 243.600,27.600 243.600 C 28.700 243.600,29.600 243.780,29.600 244.000 C 29.600 244.245,31.533 244.400,34.600 244.400 C 37.667 244.400,39.600 244.245,39.600 244.000 C 39.600 243.780,40.050 243.600,40.600 243.600 C 41.222 243.600,41.600 243.373,41.600 243.000 C 41.600 242.660,41.959 242.400,42.429 242.400 C 43.314 242.400,44.400 241.534,44.400 240.829 C 44.400 240.593,44.593 240.400,44.829 240.400 C 45.521 240.400,46.400 239.321,46.400 238.471 C 46.400 238.039,46.670 237.582,47.000 237.455 C 47.330 237.329,47.600 236.769,47.600 236.213 C 47.600 235.656,47.780 235.200,48.000 235.200 C 48.220 235.200,48.400 234.409,48.400 233.443 C 48.400 232.250,48.593 231.612,49.000 231.455 C 49.871 231.121,49.871 224.879,49.000 224.545 C 48.593 224.388,48.400 223.750,48.400 222.557 C 48.400 221.591,48.220 220.800,48.000 220.800 C 47.780 220.800,47.600 220.530,47.600 220.200 C 47.600 219.870,47.330 219.600,47.000 219.600 C 46.567 219.600,46.400 219.156,46.400 218.000 C 46.400 217.120,46.220 216.400,46.000 216.400 C 45.513 216.400,42.400 213.245,42.400 212.752 C 42.400 212.558,41.950 212.400,41.400 212.400 C 40.850 212.400,40.400 212.220,40.400 212.000 C 40.400 211.780,39.950 211.600,39.400 211.600 C 38.778 211.600,38.400 211.373,38.400 211.000 C 38.400 210.627,38.022 210.400,37.400 210.400 C 36.850 210.400,36.400 210.220,36.400 210.000 C 36.400 209.780,35.792 209.600,35.049 209.600 C 34.306 209.600,33.474 209.330,33.200 209.000 C 32.514 208.174,27.264 208.164,26.176 208.987 C 25.749 209.310,24.725 209.580,23.900 209.587 C 23.075 209.594,22.400 209.780,22.400 210.000 C 22.400 210.220,21.950 210.400,21.400 210.400 C 20.778 210.400,20.400 210.627,20.400 211.000 C 20.400 211.330,20.051 211.600,19.624 211.600 C 19.197 211.600,18.736 211.780,18.600 212.000 C 18.464 212.220,17.913 212.400,17.376 212.400 C 16.839 212.400,16.400 212.593,16.400 212.829 C 16.400 213.382,15.382 214.400,14.829 214.400 C 14.593 214.400,14.400 214.593,14.400 214.829 C 14.400 215.382,13.382 216.400,12.829 216.400 C 12.593 216.400,12.400 216.670,12.400 217.000 C 12.400 217.330,12.220 217.600,12.000 217.600 C 11.780 217.600,11.600 218.050,11.600 218.600 C 11.600 219.150,11.407 219.600,11.171 219.600 C 10.641 219.600,9.600 220.608,9.600 221.122 C 9.600 221.331,9.330 221.726,9.000 222.000 C 8.603 222.330,8.400 223.225,8.400 224.649 C 8.400 225.832,8.220 226.800,8.000 226.800 C 7.747 226.800,7.600 229.667,7.600 234.600 C 7.600 239.533,7.747 242.400,8.000 242.400 C 8.220 242.400,8.400 243.281,8.400 244.357 C 8.400 245.728,8.580 246.383,9.000 246.545 C 9.355 246.681,9.600 247.282,9.600 248.016 C 9.600 249.252,10.356 250.400,11.171 250.400 C 11.407 250.400,11.600 250.670,11.600 251.000 C 11.600 251.330,11.780 251.600,12.000 251.600 C 12.220 251.600,12.400 252.157,12.400 252.837 C 12.400 253.712,12.620 254.133,13.151 254.271 C 13.564 254.379,14.101 254.903,14.343 255.434 C 14.585 255.965,14.967 256.400,15.191 256.400 C 15.416 256.400,15.600 256.593,15.600 256.829 C 15.600 257.382,16.618 258.400,17.171 258.400 C 17.407 258.400,17.600 258.593,17.600 258.829 C 17.600 259.350,18.605 260.400,19.104 260.400 C 19.302 260.400,19.706 260.850,20.000 261.400 C 20.325 262.006,20.885 262.400,21.425 262.400 C 21.914 262.400,22.418 262.670,22.545 263.000 C 22.671 263.330,23.128 263.600,23.560 263.600 C 23.993 263.600,24.448 263.915,24.572 264.300 C 24.877 265.246,26.998 266.400,28.432 266.400 C 29.204 266.400,29.600 266.604,29.600 267.000 C 29.600 267.419,30.022 267.600,31.000 267.600 C 31.770 267.600,32.400 267.780,32.400 268.000 C 32.400 268.220,32.651 268.400,32.957 268.400 C 33.264 268.400,33.618 268.670,33.745 269.000 C 33.878 269.347,34.476 269.600,35.164 269.600 C 35.818 269.600,36.464 269.780,36.600 270.000 C 36.740 270.227,38.723 270.400,41.181 270.400 C 44.664 270.400,45.560 270.518,45.745 271.000 C 45.937 271.502,47.124 271.600,53.000 271.600 C 58.876 271.600,60.063 271.502,60.255 271.000 C 60.441 270.516,61.358 270.400,65.019 270.400 C 67.610 270.400,69.659 270.229,69.800 270.000 C 69.936 269.780,70.577 269.600,71.224 269.600 C 72.003 269.600,72.400 269.397,72.400 269.000 C 72.400 268.627,72.778 268.400,73.400 268.400 C 73.950 268.400,74.400 268.220,74.400 268.000 C 74.400 267.780,74.918 267.600,75.551 267.600 C 76.184 267.600,76.926 267.330,77.200 267.000 C 77.474 266.670,78.306 266.400,79.049 266.400 C 79.792 266.400,80.400 266.240,80.400 266.043 C 80.400 265.847,80.850 265.574,81.400 265.436 C 82.046 265.274,82.400 264.904,82.400 264.392 C 82.400 263.863,82.669 263.600,83.213 263.600 C 83.659 263.600,84.129 263.330,84.255 263.000 C 84.382 262.670,84.837 262.400,85.267 262.400 C 86.101 262.400,92.045 256.716,92.523 255.462 C 92.677 255.056,93.163 254.630,93.602 254.515 C 94.201 254.359,94.400 253.969,94.400 252.953 C 94.400 252.017,94.585 251.600,95.000 251.600 C 95.330 251.600,95.600 251.412,95.600 251.183 C 95.600 250.953,96.050 250.280,96.600 249.687 C 97.150 249.093,97.600 248.291,97.600 247.904 C 97.600 247.517,97.780 247.200,98.000 247.200 C 98.222 247.200,98.400 246.133,98.400 244.800 C 98.400 242.933,98.533 242.400,99.000 242.400 C 99.419 242.400,99.600 241.978,99.600 241.000 C 99.600 240.230,99.780 239.600,100.000 239.600 C 100.235 239.600,100.400 238.216,100.400 236.249 C 100.400 233.758,100.554 232.770,101.000 232.400 C 101.527 231.963,101.600 226.442,101.600 187.151 C 101.600 157.584,101.736 142.400,102.000 142.400 C 102.220 142.400,102.400 141.950,102.400 141.400 C 102.400 140.778,102.627 140.400,103.000 140.400 C 103.330 140.400,103.600 140.220,103.600 140.000 C 103.600 139.780,104.028 139.600,104.551 139.600 C 105.074 139.600,105.726 139.330,106.000 139.000 C 106.402 138.516,107.647 138.400,112.449 138.400 L 118.400 138.400 118.400 133.643 C 118.400 129.674,118.295 128.845,117.767 128.643 C 117.419 128.509,101.489 128.400,82.367 128.400 L 47.600 128.400 47.600 133.400 M192.573 144.126 C 192.139 145.257,192.593 153.333,193.100 153.501 C 193.482 153.628,193.600 152.482,193.600 148.633 C 193.600 144.032,193.231 142.412,192.573 144.126 M241.600 148.600 C 241.600 151.863,241.741 153.560,242.000 153.400 C 242.229 153.259,242.400 151.204,242.400 148.600 C 242.400 145.996,242.229 143.941,242.000 143.800 C 241.741 143.640,241.600 145.337,241.600 148.600 M120.400 154.000 C 120.400 154.220,120.670 154.400,121.000 154.400 C 121.330 154.400,121.600 154.220,121.600 154.000 C 121.600 153.780,121.330 153.600,121.000 153.600 C 120.670 153.600,120.400 153.780,120.400 154.000 M154.100 154.198 C 153.499 154.881,153.448 155.600,154.000 155.600 C 154.220 155.600,154.400 155.330,154.400 155.000 C 154.400 154.670,154.670 154.400,155.000 154.400 C 155.330 154.400,155.600 154.220,155.600 154.000 C 155.600 153.417,154.681 153.539,154.100 154.198 M199.200 154.000 C 199.988 154.509,201.600 154.509,201.600 154.000 C 201.600 153.780,200.925 153.603,200.100 153.606 C 198.984 153.611,198.754 153.712,199.200 154.000 M232.400 154.000 C 232.400 154.220,232.850 154.400,233.400 154.400 C 233.950 154.400,234.400 154.220,234.400 154.000 C 234.400 153.780,233.950 153.600,233.400 153.600 C 232.850 153.600,232.400 153.780,232.400 154.000 M152.800 157.600 C 152.483 157.796,152.356 158.089,152.518 158.252 C 152.681 158.414,153.023 158.337,153.280 158.080 C 153.884 157.476,153.547 157.138,152.800 157.600 M225.600 161.000 C 225.600 161.330,225.780 161.600,226.000 161.600 C 226.220 161.600,226.400 161.330,226.400 161.000 C 226.400 160.670,226.220 160.400,226.000 160.400 C 225.780 160.400,225.600 160.670,225.600 161.000 M208.400 162.000 C 208.400 162.220,208.670 162.400,209.000 162.400 C 209.330 162.400,209.600 162.220,209.600 162.000 C 209.600 161.780,209.330 161.600,209.000 161.600 C 208.670 161.600,208.400 161.780,208.400 162.000 M329.206 175.071 C 329.218 175.684,329.955 176.578,330.226 176.307 C 330.374 176.159,330.204 175.747,329.848 175.390 C 329.491 175.034,329.203 174.891,329.206 175.071 M316.667 176.667 C 316.206 177.127,316.375 177.600,317.000 177.600 C 317.330 177.600,317.600 177.330,317.600 177.000 C 317.600 176.375,317.127 176.206,316.667 176.667 M369.600 196.600 C 369.600 204.200,369.742 208.400,370.000 208.400 C 370.258 208.400,370.400 204.200,370.400 196.600 C 370.400 189.000,370.258 184.800,370.000 184.800 C 369.742 184.800,369.600 189.000,369.600 196.600 M316.400 185.800 C 316.400 186.130,316.670 186.400,317.000 186.400 C 317.330 186.400,317.600 186.130,317.600 185.800 C 317.600 185.470,317.330 185.200,317.000 185.200 C 316.670 185.200,316.400 185.470,316.400 185.800 M320.492 188.875 C 320.739 189.617,321.600 189.740,321.600 189.033 C 321.600 188.685,321.315 188.400,320.967 188.400 C 320.618 188.400,320.405 188.614,320.492 188.875 M360.400 198.600 C 360.400 199.222,360.627 199.600,361.000 199.600 C 361.373 199.600,361.600 199.222,361.600 198.600 C 361.600 197.978,361.373 197.600,361.000 197.600 C 360.627 197.600,360.400 197.978,360.400 198.600 M250.400 208.967 C 250.400 209.315,250.685 209.600,251.033 209.600 C 251.740 209.600,251.617 208.739,250.875 208.492 C 250.614 208.405,250.400 208.618,250.400 208.967 M262.667 208.667 C 262.123 209.211,262.429 209.600,263.400 209.600 C 264.022 209.600,264.400 209.373,264.400 209.000 C 264.400 208.400,263.170 208.163,262.667 208.667 M349.300 208.665 C 348.312 209.064,348.828 209.600,350.200 209.600 C 351.178 209.600,351.600 209.419,351.600 209.000 C 351.600 208.412,350.371 208.233,349.300 208.665 M229.600 214.000 C 229.600 214.222,230.667 214.400,232.000 214.400 C 233.333 214.400,234.400 214.222,234.400 214.000 C 234.400 213.778,233.333 213.600,232.000 213.600 C 230.667 213.600,229.600 213.778,229.600 214.000 M316.400 216.000 C 316.400 216.220,316.670 216.400,317.000 216.400 C 317.330 216.400,317.600 216.220,317.600 216.000 C 317.600 215.780,317.330 215.600,317.000 215.600 C 316.670 215.600,316.400 215.780,316.400 216.000 M369.600 236.000 C 369.600 249.333,369.739 256.400,370.000 256.400 C 370.261 256.400,370.400 249.333,370.400 236.000 C 370.400 222.667,370.261 215.600,370.000 215.600 C 369.739 215.600,369.600 222.667,369.600 236.000 M252.667 216.667 C 252.206 217.127,252.375 217.600,253.000 217.600 C 253.330 217.600,253.600 217.330,253.600 217.000 C 253.600 216.375,253.127 216.206,252.667 216.667 M289.600 217.000 C 289.600 217.330,289.780 217.600,290.000 217.600 C 290.220 217.600,290.400 217.330,290.400 217.000 C 290.400 216.670,290.220 216.400,290.000 216.400 C 289.780 216.400,289.600 216.670,289.600 217.000 M273.800 218.000 C 273.936 218.220,274.397 218.400,274.824 218.400 C 275.251 218.400,275.600 218.220,275.600 218.000 C 275.600 217.780,275.139 217.600,274.576 217.600 C 273.996 217.600,273.660 217.773,273.800 218.000 M276.400 220.000 C 276.400 220.220,276.670 220.400,277.000 220.400 C 277.330 220.400,277.600 220.220,277.600 220.000 C 277.600 219.780,277.330 219.600,277.000 219.600 C 276.670 219.600,276.400 219.780,276.400 220.000 M257.600 221.000 C 257.600 221.330,257.780 221.600,258.000 221.600 C 258.220 221.600,258.400 221.330,258.400 221.000 C 258.400 220.670,258.220 220.400,258.000 220.400 C 257.780 220.400,257.600 220.670,257.600 221.000 M253.600 227.800 C 253.600 228.570,253.780 229.200,254.000 229.200 C 254.220 229.200,254.400 228.570,254.400 227.800 C 254.400 227.030,254.220 226.400,254.000 226.400 C 253.780 226.400,253.600 227.030,253.600 227.800 M124.488 235.267 C 124.651 242.335,125.600 242.477,125.600 235.433 C 125.600 231.181,125.505 230.400,124.988 230.400 C 124.465 230.400,124.392 231.115,124.488 235.267 M222.584 233.627 C 222.439 233.861,222.416 234.149,222.533 234.267 C 222.820 234.553,223.600 234.048,223.600 233.576 C 223.600 233.065,222.909 233.099,222.584 233.627 M153.600 238.000 C 153.600 238.880,153.780 239.600,154.000 239.600 C 154.220 239.600,154.400 238.880,154.400 238.000 C 154.400 237.120,154.220 236.400,154.000 236.400 C 153.780 236.400,153.600 237.120,153.600 238.000 M208.880 237.280 C 208.190 237.970,208.274 239.600,209.000 239.600 C 209.419 239.600,209.600 239.178,209.600 238.200 C 209.600 236.643,209.564 236.596,208.880 237.280 M221.600 241.000 C 221.600 241.770,221.780 242.400,222.000 242.400 C 222.220 242.400,222.400 241.770,222.400 241.000 C 222.400 240.230,222.220 239.600,222.000 239.600 C 221.780 239.600,221.600 240.230,221.600 241.000 M386.667 244.667 C 385.964 245.369,386.641 245.600,389.400 245.600 C 391.800 245.600,392.400 245.480,392.400 245.000 C 392.400 244.374,387.258 244.075,386.667 244.667 M204.667 245.867 C 204.181 246.353,204.390 246.779,205.000 246.545 C 205.330 246.418,205.600 246.154,205.600 245.957 C 205.600 245.538,205.049 245.484,204.667 245.867 M159.600 249.000 C 159.600 249.330,159.780 249.600,160.000 249.600 C 160.220 249.600,160.400 249.330,160.400 249.000 C 160.400 248.670,160.220 248.400,160.000 248.400 C 159.780 248.400,159.600 248.670,159.600 249.000 M201.246 249.430 C 200.721 249.977,200.377 250.511,200.482 250.615 C 200.784 250.917,202.494 249.280,202.340 248.836 C 202.263 248.616,201.771 248.883,201.246 249.430 M128.472 251.269 C 128.661 252.549,129.600 252.686,129.600 251.433 C 129.600 250.761,129.381 250.400,128.972 250.400 C 128.555 250.400,128.387 250.692,128.472 251.269 M165.443 252.967 C 165.576 253.315,165.861 253.600,166.076 253.600 C 166.602 253.600,166.273 252.691,165.675 252.492 C 165.382 252.394,165.293 252.577,165.443 252.967 M196.400 253.000 C 196.400 253.330,196.670 253.600,197.000 253.600 C 197.330 253.600,197.600 253.330,197.600 253.000 C 197.600 252.670,197.330 252.400,197.000 252.400 C 196.670 252.400,196.400 252.670,196.400 253.000 M384.667 253.867 C 384.163 254.370,384.400 255.600,385.000 255.600 C 385.373 255.600,385.600 255.222,385.600 254.600 C 385.600 253.629,385.211 253.323,384.667 253.867 M169.443 254.967 C 169.576 255.315,169.861 255.600,170.076 255.600 C 170.602 255.600,170.273 254.691,169.675 254.492 C 169.382 254.394,169.293 254.577,169.443 254.967 M132.400 257.000 C 132.400 257.330,132.655 257.600,132.967 257.600 C 133.278 257.600,133.614 257.825,133.712 258.100 C 133.816 258.391,134.039 258.452,134.245 258.245 C 134.452 258.039,134.391 257.816,134.100 257.712 C 133.825 257.614,133.600 257.278,133.600 256.967 C 133.600 256.655,133.330 256.400,133.000 256.400 C 132.670 256.400,132.400 256.670,132.400 257.000 M178.400 257.000 C 178.400 257.453,178.889 257.600,180.400 257.600 C 181.911 257.600,182.400 257.453,182.400 257.000 C 182.400 256.547,181.911 256.400,180.400 256.400 C 178.889 256.400,178.400 256.547,178.400 257.000 M389.600 259.400 C 389.600 259.950,389.780 260.400,390.000 260.400 C 390.220 260.400,390.400 259.950,390.400 259.400 C 390.400 258.850,390.220 258.400,390.000 258.400 C 389.780 258.400,389.600 258.850,389.600 259.400 M238.800 261.000 C 238.392 261.491,238.420 261.600,238.951 261.600 C 239.308 261.600,239.600 261.330,239.600 261.000 C 239.600 260.670,239.532 260.400,239.449 260.400 C 239.366 260.400,239.074 260.670,238.800 261.000 M278.667 260.667 C 278.206 261.127,278.375 261.600,279.000 261.600 C 279.330 261.600,279.600 261.330,279.600 261.000 C 279.600 260.375,279.127 260.206,278.667 260.667 M317.600 261.000 C 317.600 261.330,317.761 261.600,317.957 261.600 C 318.154 261.600,318.418 261.330,318.545 261.000 C 318.685 260.635,318.545 260.400,318.187 260.400 C 317.864 260.400,317.600 260.670,317.600 261.000 M332.400 260.967 C 332.400 261.315,332.685 261.600,333.033 261.600 C 333.740 261.600,333.617 260.739,332.875 260.492 C 332.614 260.405,332.400 260.618,332.400 260.967 M378.667 260.667 C 378.130 261.203,378.423 261.600,379.357 261.600 C 379.884 261.600,380.418 261.330,380.545 261.000 C 380.782 260.382,379.227 260.106,378.667 260.667 M358.400 261.813 C 358.400 262.136,358.670 262.400,359.000 262.400 C 359.330 262.400,359.600 262.239,359.600 262.043 C 359.600 261.846,359.330 261.582,359.000 261.455 C 358.635 261.315,358.400 261.455,358.400 261.813 M138.400 262.000 C 138.400 262.220,138.670 262.400,139.000 262.400 C 139.330 262.400,139.600 262.220,139.600 262.000 C 139.600 261.780,139.330 261.600,139.000 261.600 C 138.670 261.600,138.400 261.780,138.400 262.000 M388.400 262.000 C 388.400 262.220,388.670 262.400,389.000 262.400 C 389.330 262.400,389.600 262.220,389.600 262.000 C 389.600 261.780,389.330 261.600,389.000 261.600 C 388.670 261.600,388.400 261.780,388.400 262.000 M140.492 262.875 C 140.739 263.617,141.600 263.740,141.600 263.033 C 141.600 262.685,141.315 262.400,140.967 262.400 C 140.618 262.400,140.405 262.614,140.492 262.875 M205.600 263.000 C 205.600 263.330,205.780 263.600,206.000 263.600 C 206.220 263.600,206.400 263.330,206.400 263.000 C 206.400 262.670,206.220 262.400,206.000 262.400 C 205.780 262.400,205.600 262.670,205.600 263.000 M360.400 265.000 C 360.400 265.330,360.655 265.600,360.967 265.600 C 361.278 265.600,361.614 265.825,361.712 266.100 C 361.816 266.391,362.039 266.452,362.245 266.245 C 362.452 266.039,362.391 265.816,362.100 265.712 C 361.825 265.614,361.600 265.278,361.600 264.967 C 361.600 264.655,361.330 264.400,361.000 264.400 C 360.670 264.400,360.400 264.670,360.400 265.000 M145.600 266.000 C 145.600 266.220,146.050 266.400,146.600 266.400 C 147.150 266.400,147.600 266.220,147.600 266.000 C 147.600 265.780,147.150 265.600,146.600 265.600 C 146.050 265.600,145.600 265.780,145.600 266.000 M200.400 266.000 C 200.400 266.220,200.749 266.400,201.176 266.400 C 201.603 266.400,202.064 266.220,202.200 266.000 C 202.340 265.773,202.004 265.600,201.424 265.600 C 200.861 265.600,200.400 265.780,200.400 266.000 M157.600 270.000 C 157.600 270.220,158.500 270.400,159.600 270.400 C 160.700 270.400,161.600 270.220,161.600 270.000 C 161.600 269.780,160.700 269.600,159.600 269.600 C 158.500 269.600,157.600 269.780,157.600 270.000 M186.400 270.000 C 186.400 270.220,187.300 270.400,188.400 270.400 C 189.500 270.400,190.400 270.220,190.400 270.000 C 190.400 269.780,189.500 269.600,188.400 269.600 C 187.300 269.600,186.400 269.780,186.400 270.000 " stroke="none" fill="#4c9c04" fill-rule="evenodd"></path><path id="path2" d="" stroke="none" fill="#d02804" fill-rule="evenodd"></path><path id="path3" d="" stroke="none" fill="#d02804" fill-rule="evenodd"></path><path id="path4" d="" stroke="none" fill="#d02804" fill-rule="evenodd"></path></g></svg>