<svg id="svg" version="1.1" xmlns="http://www.w3.org/2000/svg" xmlns:xlink="http://www.w3.org/1999/xlink" width="400" height="400" viewBox="0, 0, 400,400"><g id="svgg"><path id="path0" d="M258.200 68.378 C 255.731 68.782,252.929 70.185,250.941 72.014 C 250.112 72.776,248.859 73.850,248.157 74.400 C 247.455 74.950,244.658 77.456,241.941 79.969 C 239.223 82.482,235.020 86.368,232.600 88.605 C 230.180 90.843,227.120 93.632,225.800 94.804 C 223.148 97.158,221.329 98.821,216.822 103.009 C 215.160 104.554,212.805 106.714,211.590 107.809 C 210.374 108.904,207.314 111.700,204.790 114.023 C 202.265 116.345,198.220 120.031,195.800 122.213 C 190.673 126.834,188.087 129.202,184.210 132.825 C 182.664 134.268,178.430 138.127,174.800 141.400 C 171.170 144.673,168.110 147.451,168.000 147.575 C 167.890 147.699,166.990 148.501,166.000 149.358 C 165.010 150.215,163.030 152.020,161.600 153.369 C 154.991 159.604,145.735 167.886,145.128 168.108 C 144.555 168.317,141.529 166.569,140.800 165.608 C 140.555 165.285,136.541 162.237,134.203 160.600 C 132.725 159.564,126.237 154.580,124.372 153.047 C 123.553 152.374,108.475 141.017,105.989 139.200 C 104.935 138.430,102.579 136.643,100.753 135.228 C 96.258 131.746,92.856 130.900,88.573 132.198 C 86.467 132.836,86.169 133.069,79.400 139.361 C 76.980 141.610,74.018 144.339,72.818 145.425 C 67.870 149.902,67.042 151.337,67.063 155.400 C 67.085 159.587,67.952 161.148,72.628 165.414 C 74.789 167.386,76.851 169.270,77.209 169.600 C 77.567 169.930,78.657 170.925,79.630 171.812 C 80.604 172.698,83.740 175.578,86.600 178.212 C 89.460 180.845,92.594 183.720,93.563 184.600 C 94.533 185.480,95.805 186.650,96.390 187.200 C 99.659 190.274,106.573 196.643,107.974 197.871 C 110.141 199.770,110.055 200.196,106.900 203.180 C 100.250 209.470,98.378 211.203,95.000 214.197 C 93.020 215.951,89.060 219.558,86.200 222.213 C 83.340 224.867,80.216 227.750,79.258 228.619 C 78.300 229.489,77.028 230.650,76.432 231.200 C 75.835 231.750,73.799 233.605,71.908 235.323 C 67.886 238.975,67.125 240.442,67.102 244.600 C 67.076 249.137,67.845 250.248,76.230 257.800 C 77.939 259.340,80.586 261.765,82.111 263.188 C 87.638 268.348,89.919 269.280,94.341 268.191 C 96.758 267.596,100.000 265.893,100.000 265.219 C 100.000 265.070,100.717 264.544,101.593 264.052 C 102.469 263.559,103.414 262.939,103.693 262.673 C 103.972 262.407,104.734 261.847,105.387 261.429 C 106.401 260.778,107.658 259.812,111.672 256.594 C 112.042 256.298,114.652 254.327,117.472 252.215 C 120.292 250.102,123.372 247.794,124.316 247.087 C 125.261 246.379,126.251 245.611,126.516 245.380 C 126.782 245.149,127.990 244.224,129.200 243.324 C 130.410 242.424,131.760 241.353,132.200 240.944 C 132.640 240.535,133.655 239.750,134.456 239.200 C 135.257 238.650,137.327 237.120,139.056 235.800 C 144.703 231.489,144.811 231.450,146.643 233.100 C 147.314 233.705,149.469 235.640,151.432 237.400 C 155.263 240.836,159.673 244.861,160.000 245.220 C 160.292 245.542,169.437 253.922,171.545 255.800 C 172.532 256.680,174.524 258.515,175.970 259.877 C 177.417 261.239,179.071 262.769,179.646 263.277 C 180.221 263.785,182.180 265.550,184.000 267.200 C 185.820 268.850,187.714 270.560,188.210 271.000 C 188.706 271.440,189.808 272.430,190.658 273.200 C 198.397 280.206,200.895 282.485,202.796 284.270 C 204.008 285.409,205.476 286.759,206.058 287.270 C 208.504 289.420,213.415 293.901,214.755 295.207 C 215.550 295.980,218.180 298.401,220.600 300.586 C 223.020 302.771,227.340 306.758,230.200 309.446 C 233.060 312.134,235.940 314.750,236.600 315.258 C 237.260 315.767,237.995 316.367,238.234 316.591 C 244.221 322.227,248.090 325.788,248.670 326.197 C 249.072 326.479,250.072 327.346,250.894 328.123 C 255.175 332.170,262.850 333.417,268.312 330.953 C 269.473 330.429,270.499 330.000,270.590 330.000 C 270.858 330.000,281.665 324.820,283.200 323.956 C 283.970 323.523,286.130 322.438,288.000 321.547 C 289.870 320.655,293.830 318.753,296.800 317.320 C 302.759 314.444,308.169 311.857,314.700 308.762 C 317.065 307.641,319.360 306.530,319.800 306.293 C 320.240 306.056,321.798 305.269,323.263 304.544 C 327.351 302.520,330.921 298.764,332.172 295.169 C 333.153 292.353,333.117 108.281,332.135 105.371 C 331.172 102.517,326.403 96.400,325.141 96.400 C 324.841 96.400,308.370 88.501,306.000 87.221 C 305.230 86.805,303.610 86.076,302.400 85.602 C 301.190 85.127,299.380 84.236,298.378 83.621 C 297.376 83.006,296.116 82.374,295.578 82.216 C 295.040 82.057,290.550 79.947,285.600 77.526 C 280.650 75.106,275.610 72.647,274.400 72.062 C 273.190 71.478,272.140 70.865,272.067 70.700 C 271.993 70.535,271.587 70.400,271.165 70.400 C 270.742 70.400,269.467 69.952,268.331 69.404 C 266.001 68.280,261.554 67.829,258.200 68.378 M267.191 140.383 C 267.693 141.320,267.585 259.515,267.081 260.292 C 266.810 260.711,263.016 258.690,262.000 257.585 C 261.890 257.465,259.100 255.302,255.800 252.778 C 247.690 246.574,245.672 245.051,241.430 241.927 C 239.434 240.457,237.260 238.820,236.600 238.290 C 235.940 237.760,233.510 235.912,231.200 234.185 C 228.890 232.457,226.910 230.925,226.800 230.781 C 226.690 230.638,226.239 230.330,225.798 230.098 C 225.357 229.867,223.377 228.405,221.398 226.850 C 219.419 225.295,217.080 223.483,216.200 222.823 C 215.320 222.162,212.107 219.682,209.059 217.311 C 206.012 214.940,202.772 212.455,201.859 211.788 C 200.947 211.122,198.412 209.232,196.227 207.588 C 194.041 205.945,191.116 203.746,189.727 202.702 C 185.991 199.896,185.836 200.097,199.514 190.068 C 201.414 188.675,203.534 187.055,204.227 186.468 C 206.185 184.807,206.878 184.263,209.426 182.385 C 210.732 181.422,211.980 180.486,212.200 180.303 C 212.420 180.121,214.040 178.895,215.800 177.578 C 217.560 176.262,219.271 174.964,219.601 174.693 C 219.932 174.422,221.012 173.573,222.001 172.806 C 222.991 172.039,224.039 171.183,224.331 170.903 C 224.623 170.624,225.223 170.202,225.663 169.966 C 226.103 169.731,226.764 169.290,227.132 168.987 C 227.499 168.684,229.725 167.004,232.079 165.253 C 234.432 163.503,236.592 161.867,236.879 161.617 C 237.165 161.368,237.962 160.767,238.649 160.282 C 239.336 159.797,241.648 158.050,243.786 156.400 C 245.924 154.750,248.332 152.968,249.137 152.440 C 249.941 151.911,250.690 151.371,250.800 151.239 C 250.910 151.106,252.077 150.188,253.393 149.199 C 254.709 148.210,256.239 147.006,256.793 146.525 C 257.347 146.045,258.372 145.235,259.072 144.725 C 267.136 138.856,266.543 139.173,267.191 140.383 " stroke="none" fill="#128fd6" fill-rule="evenodd"></path><path id="path1" d="M0.000 200.000 L 0.000 400.000 200.000 400.000 L 400.000 400.000 400.000 200.000 L 400.000 0.000 200.000 0.000 L 0.000 0.000 0.000 200.000 M248.983 64.373 C 249.353 64.971,247.538 66.000,246.111 66.000 C 244.845 66.000,244.277 65.056,245.067 64.267 C 245.473 63.861,248.721 63.949,248.983 64.373 M280.083 64.947 C 280.606 65.770,279.716 66.062,278.051 65.614 C 276.401 65.169,275.958 64.649,276.900 64.261 C 277.621 63.963,279.750 64.423,280.083 64.947 M273.520 66.880 C 274.051 67.411,274.170 68.407,273.700 68.387 C 273.106 68.363,271.922 66.400,272.501 66.400 C 272.798 66.400,273.256 66.616,273.520 66.880 M266.705 67.190 C 268.475 68.183,271.812 69.600,272.381 69.600 C 272.729 69.600,274.245 70.320,275.751 71.200 C 277.257 72.080,278.604 72.796,278.744 72.791 C 278.885 72.785,280.800 73.661,283.000 74.736 C 285.200 75.812,287.810 77.069,288.800 77.530 C 289.790 77.990,291.050 78.631,291.600 78.954 C 292.150 79.276,294.490 80.429,296.800 81.517 C 299.110 82.604,303.340 84.623,306.200 86.003 C 309.060 87.384,313.830 89.670,316.800 91.083 C 319.770 92.497,323.129 94.105,324.265 94.656 C 329.218 97.062,332.976 102.079,334.008 107.662 C 334.693 111.366,334.345 293.083,333.651 294.600 C 329.874 302.847,329.903 302.827,308.000 313.295 C 298.749 317.717,297.254 318.400,296.831 318.400 C 296.594 318.400,296.400 318.538,296.400 318.707 C 296.400 318.876,295.299 319.451,293.954 319.985 C 292.609 320.520,291.124 321.256,290.654 321.621 C 290.184 321.987,289.080 322.537,288.200 322.843 C 287.320 323.149,285.700 323.895,284.600 324.500 C 283.500 325.104,281.790 325.971,280.800 326.426 C 279.810 326.882,277.380 328.034,275.400 328.988 C 271.605 330.817,269.114 331.935,266.800 332.848 C 265.020 333.550,258.218 333.578,257.527 332.887 C 257.259 332.619,256.686 332.400,256.252 332.400 C 255.819 332.400,254.517 331.865,253.358 331.211 C 251.266 330.031,250.074 329.062,246.449 325.600 C 245.412 324.610,242.862 322.274,240.782 320.409 C 238.702 318.544,236.449 316.474,235.775 315.809 C 235.101 315.144,233.130 313.340,231.395 311.800 C 229.660 310.260,227.947 308.730,227.587 308.400 C 227.228 308.070,225.256 306.270,223.205 304.400 C 221.154 302.530,218.903 300.460,218.203 299.800 C 214.876 296.663,209.296 291.589,208.397 290.882 C 207.845 290.449,206.662 289.398,205.769 288.547 C 202.928 285.842,195.473 278.964,193.415 277.150 C 192.323 276.187,190.149 274.230,188.584 272.800 C 183.889 268.510,179.854 264.870,178.932 264.093 C 178.455 263.691,176.925 262.308,175.532 261.019 C 174.139 259.731,171.126 256.950,168.835 254.839 C 166.544 252.727,164.093 250.415,163.388 249.700 C 162.683 248.985,161.966 248.400,161.796 248.400 C 161.626 248.400,160.732 247.635,159.808 246.700 C 157.589 244.454,150.320 237.726,147.800 235.586 C 146.700 234.653,145.740 233.734,145.667 233.544 C 145.379 232.800,144.118 233.285,142.400 234.800 C 141.410 235.673,140.462 236.390,140.294 236.394 C 140.034 236.399,138.750 237.372,134.688 240.640 C 134.297 240.955,132.363 242.380,130.390 243.807 C 128.418 245.234,126.398 246.745,125.902 247.165 C 125.406 247.584,123.650 248.927,122.000 250.149 C 118.440 252.786,117.325 253.650,116.039 254.766 C 115.510 255.225,114.968 255.600,114.834 255.600 C 114.701 255.600,113.873 256.227,112.996 256.992 C 112.118 257.758,111.256 258.388,111.080 258.392 C 110.904 258.397,110.117 259.025,109.330 259.789 C 108.544 260.553,107.563 261.285,107.150 261.416 C 106.738 261.547,106.400 261.822,106.400 262.027 C 106.400 262.232,106.185 262.400,105.923 262.400 C 105.661 262.400,104.775 263.120,103.955 264.000 C 103.134 264.880,102.355 265.600,102.223 265.600 C 101.860 265.600,98.619 267.757,98.467 268.100 C 98.393 268.265,98.093 268.400,97.800 268.400 C 97.507 268.400,97.192 268.625,97.100 268.900 C 96.980 269.259,95.705 269.400,92.567 269.400 C 87.610 269.400,87.002 269.181,83.809 266.236 C 82.714 265.226,81.709 264.400,81.575 264.400 C 81.442 264.400,79.241 262.375,76.683 259.900 C 71.468 254.852,70.966 254.404,70.517 254.391 C 70.343 254.386,69.570 253.490,68.800 252.400 C 68.030 251.310,67.265 250.414,67.100 250.409 C 66.935 250.404,66.800 250.061,66.800 249.646 C 66.800 249.231,66.531 248.376,66.202 247.746 C 65.874 247.116,65.605 245.610,65.605 244.400 C 65.605 243.190,65.874 241.684,66.202 241.054 C 66.531 240.424,66.800 239.750,66.800 239.557 C 66.800 238.993,71.480 233.600,71.970 233.600 C 72.804 233.600,79.703 226.343,79.275 225.915 C 78.923 225.563,78.946 225.300,79.372 224.825 C 79.681 224.481,79.993 223.660,80.067 223.000 C 80.249 221.361,81.740 221.281,81.927 222.900 C 81.999 223.530,81.859 224.000,81.598 224.000 C 80.938 224.000,79.851 225.188,80.207 225.519 C 80.373 225.674,80.590 225.575,80.688 225.300 C 80.786 225.025,81.039 224.800,81.250 224.800 C 81.461 224.800,81.901 224.575,82.228 224.300 C 83.499 223.232,88.238 218.856,91.325 215.900 C 93.106 214.195,94.668 212.800,94.796 212.800 C 94.925 212.800,96.377 211.495,98.024 209.900 C 99.671 208.305,102.175 206.010,103.589 204.800 C 109.425 199.805,109.382 200.211,104.511 196.000 C 101.391 193.302,100.900 192.859,96.964 189.200 C 95.663 187.990,92.999 185.560,91.043 183.800 C 89.088 182.040,86.478 179.638,85.244 178.463 C 81.359 174.762,80.126 173.895,79.833 174.657 C 79.695 175.019,79.470 175.203,79.334 175.067 C 79.197 174.931,79.330 174.526,79.628 174.166 C 80.093 173.607,80.058 173.432,79.385 172.940 C 78.275 172.129,74.398 168.684,70.913 165.414 C 64.139 159.056,64.085 151.576,70.771 145.834 C 71.305 145.375,72.776 144.010,74.042 142.800 C 75.307 141.590,77.534 139.520,78.990 138.200 C 80.447 136.880,82.219 135.260,82.929 134.600 C 84.220 133.398,85.726 132.316,87.600 131.240 C 88.281 130.849,89.819 130.669,92.425 130.675 C 96.714 130.685,96.707 130.682,101.398 134.389 C 102.937 135.605,105.277 137.393,106.598 138.363 C 107.919 139.333,109.060 140.278,109.133 140.463 C 109.207 140.648,109.440 140.800,109.651 140.800 C 109.862 140.800,110.520 141.250,111.113 141.800 C 111.707 142.350,112.323 142.800,112.484 142.800 C 112.645 142.800,114.672 144.285,116.989 146.100 C 122.569 150.471,124.665 152.058,129.200 155.348 C 131.290 156.865,133.090 158.231,133.200 158.385 C 133.365 158.615,141.506 164.898,143.996 166.717 C 144.608 167.164,144.870 167.068,145.921 166.017 C 146.591 165.348,147.255 164.800,147.398 164.800 C 147.540 164.800,147.904 164.575,148.205 164.300 C 149.605 163.022,156.306 156.725,158.845 154.300 C 160.401 152.815,161.813 151.600,161.984 151.600 C 162.155 151.600,163.908 150.025,165.879 148.100 C 167.850 146.175,170.877 143.340,172.606 141.800 C 174.334 140.260,176.321 138.460,177.021 137.800 C 177.721 137.140,179.776 135.250,181.589 133.600 C 186.068 129.523,186.000 129.591,186.000 129.171 C 186.000 128.967,185.719 128.800,185.376 128.800 C 185.029 128.800,184.872 128.607,185.022 128.365 C 185.215 128.052,185.412 128.052,185.725 128.365 C 186.464 129.104,187.000 128.867,189.043 126.900 C 190.128 125.855,191.732 124.390,192.608 123.645 C 194.440 122.085,200.784 116.246,204.935 112.300 C 206.497 110.815,207.873 109.600,207.992 109.600 C 208.111 109.600,209.826 108.051,211.804 106.157 C 213.782 104.263,215.690 102.508,216.045 102.257 C 216.400 102.006,218.364 100.225,220.409 98.300 C 222.455 96.375,224.249 94.800,224.397 94.800 C 224.544 94.800,224.906 94.350,225.200 93.800 C 225.494 93.250,225.883 92.800,226.065 92.800 C 226.561 92.800,228.189 91.387,234.800 85.217 C 237.110 83.061,240.070 80.330,241.378 79.148 C 242.686 77.967,244.703 76.055,245.861 74.900 C 247.018 73.745,248.056 72.800,248.166 72.800 C 248.277 72.800,249.102 72.080,250.000 71.200 C 250.898 70.320,251.895 69.600,252.216 69.600 C 252.537 69.600,252.802 69.465,252.805 69.300 C 252.809 68.996,254.806 68.042,257.000 67.294 C 258.559 66.763,265.806 66.685,266.705 67.190 M290.567 72.243 C 291.403 72.564,291.371 73.090,290.500 73.350 C 290.115 73.464,290.565 73.462,291.500 73.344 C 293.397 73.105,294.007 74.127,292.336 74.745 C 291.332 75.117,289.600 74.869,289.600 74.353 C 289.600 74.159,289.240 74.000,288.800 74.000 C 287.722 74.000,287.784 73.096,288.900 72.544 C 289.395 72.299,289.830 72.076,289.867 72.049 C 289.904 72.022,290.219 72.109,290.567 72.243 M244.000 75.200 C 243.765 75.640,243.488 76.000,243.386 76.000 C 243.284 76.000,243.200 75.640,243.200 75.200 C 243.200 74.747,243.467 74.400,243.814 74.400 C 244.304 74.400,244.342 74.561,244.000 75.200 M234.662 81.931 C 234.298 82.334,234.000 82.874,234.000 83.131 C 234.000 83.831,232.923 83.697,232.641 82.963 C 232.478 82.538,232.664 82.256,233.198 82.116 C 233.639 82.001,234.000 81.748,234.000 81.553 C 234.000 81.359,234.298 81.200,234.662 81.200 C 235.278 81.200,235.278 81.251,234.662 81.931 M305.600 83.400 C 305.600 83.730,305.341 84.000,305.024 84.000 C 304.355 84.000,303.904 83.429,304.278 83.056 C 304.756 82.578,305.600 82.798,305.600 83.400 M229.706 86.239 C 230.081 86.615,229.570 87.600,229.000 87.600 C 228.430 87.600,227.919 86.615,228.294 86.239 C 228.426 86.108,228.743 86.000,229.000 86.000 C 229.257 86.000,229.574 86.108,229.706 86.239 M322.674 88.030 L 323.800 88.460 322.800 89.016 C 321.403 89.792,321.200 89.739,321.200 88.600 C 321.200 87.452,321.180 87.459,322.674 88.030 M332.438 95.627 C 334.465 97.070,333.383 99.568,331.231 98.417 C 329.536 97.510,329.008 96.453,329.834 95.620 C 330.817 94.629,331.037 94.630,332.438 95.627 M217.367 96.243 C 217.715 96.376,218.000 96.826,218.000 97.243 C 218.000 98.055,217.409 98.261,216.996 97.593 C 216.858 97.370,216.577 97.291,216.372 97.417 C 215.950 97.678,215.858 96.675,216.267 96.267 C 216.591 95.942,216.584 95.942,217.367 96.243 M208.800 97.680 C 208.800 98.326,208.682 98.442,208.355 98.115 C 208.110 97.870,208.031 97.474,208.178 97.235 C 208.592 96.565,208.800 96.714,208.800 97.680 M335.484 100.867 C 336.109 101.586,336.054 103.178,335.400 103.316 C 335.180 103.362,334.938 102.950,334.862 102.400 C 334.786 101.850,334.540 101.177,334.317 100.905 C 334.093 100.633,334.042 100.093,334.202 99.705 C 334.444 99.119,334.528 99.101,334.699 99.600 C 334.812 99.930,335.165 100.500,335.484 100.867 M213.600 101.751 C 213.600 102.490,212.539 103.333,212.016 103.010 C 211.726 102.831,211.725 102.513,212.013 101.976 C 212.489 101.086,213.600 100.929,213.600 101.751 M194.000 118.062 C 194.000 119.143,193.242 118.962,192.790 117.774 C 192.189 116.192,192.323 115.806,193.200 116.600 C 193.640 116.998,194.000 117.656,194.000 118.062 M189.539 120.629 C 190.232 120.975,190.800 121.425,190.800 121.629 C 190.800 122.190,188.894 122.074,188.683 121.500 C 188.581 121.225,188.367 121.495,188.206 122.100 C 188.045 122.705,187.665 123.200,187.362 123.200 C 187.059 123.200,186.532 123.867,186.191 124.683 L 185.572 126.165 184.796 124.889 C 183.998 123.578,184.093 122.400,184.996 122.400 C 185.277 122.400,185.601 122.040,185.716 121.600 C 185.839 121.131,186.262 120.800,186.739 120.800 C 187.187 120.800,187.664 120.620,187.800 120.400 C 188.113 119.894,188.047 119.885,189.539 120.629 M176.830 128.510 C 176.781 128.988,176.232 128.896,176.060 128.380 C 175.972 128.116,176.116 127.972,176.380 128.060 C 176.644 128.148,176.846 128.351,176.830 128.510 M88.000 129.400 C 88.000 129.730,87.730 130.000,87.400 130.000 C 87.070 130.000,86.800 129.730,86.800 129.400 C 86.800 129.070,87.070 128.800,87.400 128.800 C 87.730 128.800,88.000 129.070,88.000 129.400 M181.122 132.211 C 180.820 132.874,180.526 133.086,180.268 132.828 C 180.009 132.569,180.050 132.222,180.386 131.817 C 181.185 130.854,181.632 131.092,181.122 132.211 M82.000 133.376 C 82.000 133.693,81.804 134.074,81.565 134.222 C 81.000 134.571,80.229 133.800,80.578 133.235 C 80.971 132.600,82.000 132.703,82.000 133.376 M111.600 133.800 C 111.600 134.130,111.330 134.400,111.000 134.400 C 110.375 134.400,110.206 133.927,110.667 133.467 C 111.127 133.006,111.600 133.175,111.600 133.800 M174.000 136.452 C 174.000 136.654,173.575 136.982,173.055 137.179 C 172.535 137.377,172.000 137.823,171.867 138.169 C 171.734 138.516,171.362 138.800,171.040 138.800 C 170.717 138.800,170.337 139.170,170.193 139.622 C 169.870 140.640,169.325 140.489,168.516 139.156 C 167.405 137.325,168.610 136.135,171.604 136.106 C 172.922 136.094,174.000 136.249,174.000 136.452 M265.298 141.662 C 265.061 141.899,264.510 142.297,264.074 142.546 C 262.749 143.304,256.341 148.127,255.101 149.300 C 254.462 149.905,253.727 150.402,253.469 150.403 C 253.211 150.405,252.370 150.993,251.600 151.709 C 250.830 152.426,248.490 154.265,246.400 155.798 C 244.310 157.330,242.510 158.690,242.400 158.820 C 242.290 158.950,241.120 159.845,239.800 160.810 C 238.480 161.775,236.952 162.977,236.404 163.482 C 235.856 163.987,235.263 164.400,235.087 164.400 C 234.910 164.400,234.278 164.866,233.683 165.435 C 233.087 166.004,231.893 166.927,231.028 167.485 C 230.164 168.044,228.996 168.928,228.432 169.450 C 227.869 169.973,227.273 170.400,227.107 170.400 C 226.942 170.400,226.400 170.749,225.903 171.176 C 225.406 171.603,224.460 172.419,223.800 172.988 C 223.140 173.558,221.752 174.572,220.716 175.243 C 219.680 175.914,218.161 177.077,217.341 177.828 C 216.522 178.579,215.524 179.297,215.125 179.424 C 214.726 179.550,214.400 179.822,214.400 180.027 C 214.400 180.232,214.145 180.400,213.833 180.400 C 213.522 180.400,213.207 180.542,213.133 180.715 C 213.060 180.888,212.194 181.653,211.210 182.415 C 210.225 183.177,209.177 184.026,208.880 184.301 C 208.583 184.577,207.499 185.378,206.470 186.080 C 205.442 186.782,204.420 187.557,204.200 187.801 C 203.980 188.046,203.080 188.770,202.200 189.410 C 201.320 190.051,200.152 190.985,199.604 191.487 C 199.056 191.989,198.396 192.400,198.137 192.400 C 197.879 192.400,197.607 192.546,197.533 192.724 C 197.460 192.901,196.320 193.846,195.000 194.824 C 193.680 195.801,192.251 196.915,191.824 197.300 C 191.397 197.686,190.454 198.406,189.727 198.900 C 187.988 200.084,187.994 200.100,190.937 202.302 C 197.805 207.441,204.299 212.395,205.161 213.154 C 205.690 213.619,206.241 214.000,206.386 214.000 C 206.531 214.000,206.998 214.323,207.425 214.718 C 207.851 215.112,209.280 216.229,210.600 217.200 C 211.920 218.171,213.360 219.302,213.800 219.713 C 214.240 220.124,215.455 221.018,216.500 221.698 C 217.545 222.378,218.400 223.046,218.400 223.181 C 218.400 223.317,218.985 223.768,219.700 224.184 C 220.415 224.599,221.090 225.057,221.200 225.201 C 221.527 225.628,231.078 232.800,231.321 232.800 C 231.443 232.800,232.211 233.430,233.027 234.200 C 233.844 234.970,234.639 235.600,234.795 235.600 C 234.950 235.600,235.510 235.971,236.039 236.424 C 236.567 236.878,237.406 237.598,237.903 238.024 C 238.400 238.451,238.942 238.800,239.107 238.800 C 239.273 238.800,239.856 239.208,240.404 239.707 C 240.952 240.205,242.390 241.322,243.600 242.189 C 244.810 243.056,246.329 244.268,246.976 244.882 C 247.623 245.497,248.281 246.000,248.439 246.000 C 248.597 246.000,249.721 246.810,250.936 247.800 C 252.152 248.790,253.329 249.600,253.553 249.600 C 253.777 249.600,254.104 249.831,254.280 250.114 C 254.456 250.396,255.590 251.335,256.800 252.201 C 258.010 253.066,259.109 253.928,259.243 254.118 C 259.376 254.307,259.932 254.763,260.478 255.131 C 264.511 257.851,265.418 258.400,265.878 258.400 C 266.485 258.400,266.670 141.814,266.064 141.440 C 265.879 141.325,265.534 141.426,265.298 141.662 M69.687 145.273 C 69.076 145.884,68.625 145.433,68.964 144.550 C 69.164 144.029,69.337 143.977,69.693 144.333 C 70.049 144.689,70.047 144.913,69.687 145.273 M165.377 144.775 C 166.139 145.617,165.863 146.586,164.960 146.240 C 164.652 146.122,164.400 146.199,164.400 146.413 C 164.400 146.626,163.995 146.794,163.500 146.787 C 162.667 146.775,162.652 146.735,163.300 146.243 C 163.685 145.951,164.000 145.327,164.000 144.856 C 164.000 143.793,164.464 143.766,165.377 144.775 M121.600 146.000 C 121.600 146.220,121.420 146.400,121.200 146.400 C 120.980 146.400,120.800 146.760,120.800 147.200 C 120.800 147.964,120.767 147.969,120.056 147.300 C 119.389 146.673,119.377 146.548,119.932 146.100 C 120.677 145.500,121.600 145.444,121.600 146.000 M263.719 149.959 C 263.380 150.501,263.376 150.816,263.702 151.142 C 263.947 151.387,264.010 151.723,263.843 151.890 C 263.676 152.057,263.365 151.880,263.150 151.497 C 262.936 151.114,262.499 150.800,262.180 150.800 C 261.376 150.800,261.454 150.407,262.475 149.320 C 263.516 148.212,264.495 148.715,263.719 149.959 M162.000 150.800 C 162.000 151.020,161.841 151.200,161.646 151.200 C 161.186 151.200,159.977 149.357,160.254 149.079 C 160.524 148.810,162.000 150.265,162.000 150.800 M125.507 150.000 C 125.803 150.474,125.843 150.800,125.603 150.800 C 125.382 150.800,125.200 150.620,125.200 150.400 C 125.200 150.180,124.930 150.000,124.600 150.000 C 124.270 150.000,124.000 149.820,124.000 149.600 C 124.000 148.905,124.987 149.167,125.507 150.000 M256.214 150.423 C 256.533 150.940,256.107 152.800,255.669 152.800 C 254.451 152.800,253.815 151.667,254.567 150.836 C 255.412 149.902,255.828 149.798,256.214 150.423 M260.000 150.567 C 260.000 150.878,260.135 151.209,260.300 151.301 C 260.465 151.393,260.344 151.402,260.032 151.321 C 259.720 151.239,259.352 151.355,259.214 151.577 C 258.759 152.314,257.045 152.257,256.887 151.500 C 256.779 150.980,257.000 150.800,257.747 150.800 C 258.300 150.800,258.864 150.620,259.000 150.400 C 259.365 149.809,260.000 149.915,260.000 150.567 M135.417 152.662 C 136.041 153.118,136.095 153.356,135.715 153.964 C 135.460 154.373,135.304 155.044,135.368 155.454 C 135.432 155.864,135.414 156.009,135.328 155.775 C 135.241 155.541,134.573 155.134,133.842 154.870 C 133.112 154.606,132.191 154.032,131.795 153.595 C 131.400 153.158,130.823 152.800,130.514 152.800 C 130.206 152.800,130.055 152.635,130.180 152.433 C 130.533 151.862,134.564 152.038,135.417 152.662 M156.797 153.743 C 156.799 153.931,156.530 153.976,156.200 153.843 C 154.345 153.092,154.187 153.069,154.700 153.621 C 155.489 154.471,155.294 154.800,154.000 154.800 C 152.523 154.800,152.340 153.603,153.680 152.713 C 154.583 152.114,156.791 152.843,156.797 153.743 M252.390 154.419 C 251.721 155.669,248.400 156.841,248.400 155.827 C 248.400 155.399,248.775 155.200,249.580 155.200 C 250.229 155.200,250.904 154.956,251.080 154.659 C 251.342 154.215,251.922 153.851,252.714 153.632 C 252.777 153.614,252.631 153.969,252.390 154.419 M65.372 161.265 C 65.720 161.961,65.917 162.616,65.812 162.722 C 65.546 162.987,64.030 161.114,64.013 160.500 C 63.989 159.571,64.738 159.992,65.372 161.265 M140.400 160.600 C 140.400 161.228,139.705 161.369,138.635 160.958 C 137.748 160.618,138.256 160.000,139.424 160.000 C 140.025 160.000,140.400 160.231,140.400 160.600 M144.923 163.700 C 144.710 164.782,143.878 165.173,143.407 164.411 C 143.086 163.891,144.433 161.871,144.829 162.279 C 144.999 162.456,145.041 163.095,144.923 163.700 M66.800 163.417 C 66.800 163.536,66.440 164.020,66.000 164.492 C 65.102 165.456,64.944 165.198,65.696 163.995 C 66.157 163.256,66.800 162.920,66.800 163.417 M73.405 170.241 C 72.471 170.930,72.052 170.301,72.825 169.370 C 73.191 168.928,73.444 168.885,73.763 169.210 C 74.080 169.532,73.982 169.815,73.405 170.241 M239.600 171.200 C 239.600 171.644,239.333 172.000,239.000 172.000 C 238.667 172.000,238.400 171.644,238.400 171.200 C 238.400 170.756,238.667 170.400,239.000 170.400 C 239.333 170.400,239.600 170.756,239.600 171.200 M75.600 171.573 C 75.600 172.059,74.124 172.524,73.604 172.202 C 72.812 171.713,73.219 171.200,74.400 171.200 C 75.060 171.200,75.600 171.368,75.600 171.573 M85.050 179.785 C 85.173 180.106,85.572 180.466,85.937 180.584 C 86.302 180.702,86.815 181.265,87.079 181.834 C 87.468 182.676,87.458 182.831,87.025 182.665 C 86.732 182.552,86.111 182.727,85.645 183.053 C 84.737 183.690,84.000 183.491,84.000 182.610 C 84.000 182.311,83.819 182.006,83.597 181.932 C 83.338 181.846,83.369 181.337,83.685 180.499 C 84.213 179.101,84.691 178.851,85.050 179.785 M216.000 181.800 C 216.000 182.130,215.820 182.400,215.600 182.400 C 215.380 182.400,215.200 182.130,215.200 181.800 C 215.200 181.470,215.380 181.200,215.600 181.200 C 215.820 181.200,216.000 181.470,216.000 181.800 M223.814 183.223 C 224.217 183.875,223.652 185.600,223.035 185.600 C 222.335 185.600,221.992 184.717,222.274 183.639 C 222.506 182.750,223.377 182.515,223.814 183.223 M208.000 189.624 C 208.000 189.831,207.745 190.000,207.433 190.000 C 207.122 190.000,206.786 190.225,206.688 190.500 C 206.590 190.775,206.380 190.880,206.221 190.733 C 206.063 190.587,206.263 190.120,206.667 189.697 C 207.394 188.933,208.000 188.900,208.000 189.624 M204.200 190.800 C 204.903 191.576,204.899 191.600,204.062 191.600 C 203.467 191.600,203.200 191.353,203.200 190.800 C 203.200 190.360,203.262 190.000,203.338 190.000 C 203.414 190.000,203.802 190.360,204.200 190.800 M199.623 194.900 C 200.530 195.988,200.624 197.200,199.800 197.200 C 199.470 197.200,199.200 197.380,199.200 197.600 C 199.200 197.820,198.930 198.000,198.600 198.000 C 198.270 198.000,198.000 197.665,198.000 197.255 C 198.000 196.664,197.780 196.553,196.929 196.716 L 195.857 196.921 197.229 195.488 C 198.884 193.758,198.706 193.802,199.623 194.900 M98.000 195.376 C 98.000 196.022,97.433 196.500,97.083 196.150 C 96.771 195.838,97.201 194.800,97.643 194.800 C 97.839 194.800,98.000 195.059,98.000 195.376 M191.889 199.592 C 191.969 200.652,191.412 200.937,190.771 200.165 C 190.342 199.648,190.352 199.476,190.826 199.176 C 191.662 198.647,191.823 198.710,191.889 199.592 M98.000 204.600 C 98.000 205.447,97.306 205.345,96.814 204.426 C 96.059 203.015,96.287 202.287,97.200 203.200 C 97.640 203.640,98.000 204.270,98.000 204.600 M200.153 203.218 C 200.711 203.737,200.104 204.800,199.250 204.800 C 198.659 204.800,198.527 204.600,198.695 203.959 C 198.822 203.471,198.681 202.956,198.357 202.733 C 197.968 202.463,198.101 202.429,198.800 202.619 C 199.350 202.768,199.959 203.038,200.153 203.218 M101.600 204.400 C 101.600 204.620,101.330 204.800,101.000 204.800 C 100.670 204.800,100.400 204.620,100.400 204.400 C 100.400 204.180,100.670 204.000,101.000 204.000 C 101.330 204.000,101.600 204.180,101.600 204.400 M205.092 208.324 C 205.747 208.741,204.200 210.097,203.273 209.919 C 202.211 209.714,202.214 208.488,203.277 208.285 C 203.784 208.188,204.290 208.087,204.400 208.061 C 204.510 208.034,204.821 208.153,205.092 208.324 M207.260 209.660 C 207.890 210.290,208.016 210.685,207.731 211.136 C 207.089 212.155,206.245 212.236,206.502 211.254 C 206.624 210.785,206.562 210.300,206.362 210.177 C 205.985 209.944,205.850 208.800,206.200 208.800 C 206.310 208.800,206.787 209.187,207.260 209.660 M224.000 216.424 C 224.000 216.631,223.730 216.800,223.400 216.800 C 222.781 216.800,222.605 216.328,223.056 215.878 C 223.375 215.558,224.000 215.919,224.000 216.424 M86.569 216.865 C 88.290 217.064,88.216 217.681,86.323 218.909 C 83.431 220.784,82.615 220.297,83.819 217.416 C 84.269 216.340,84.570 216.043,84.919 216.332 C 85.184 216.550,85.926 216.790,86.569 216.865 M215.750 217.519 C 215.858 217.695,215.804 218.070,215.629 218.353 C 215.397 218.728,215.252 218.642,215.093 218.034 C 214.883 217.229,215.346 216.866,215.750 217.519 M74.200 228.400 C 74.336 228.620,74.066 228.800,73.600 228.800 C 73.134 228.800,72.864 228.620,73.000 228.400 C 73.136 228.180,73.406 228.000,73.600 228.000 C 73.794 228.000,74.064 228.180,74.200 228.400 M232.800 232.249 C 232.800 232.663,232.617 232.626,232.063 232.100 C 231.658 231.715,231.404 231.256,231.499 231.081 C 231.741 230.631,232.800 231.582,232.800 232.249 M66.000 235.400 C 66.000 235.730,65.730 236.000,65.400 236.000 C 64.775 236.000,64.606 235.527,65.067 235.067 C 65.527 234.606,66.000 234.775,66.000 235.400 M144.437 236.820 C 144.869 237.051,145.117 237.411,144.988 237.620 C 144.624 238.208,144.000 238.069,144.000 237.400 C 144.000 236.611,143.351 236.629,143.046 237.425 C 142.912 237.774,142.601 237.924,142.342 237.764 C 141.309 237.126,143.317 236.221,144.437 236.820 M64.676 239.900 C 64.575 240.285,64.493 239.970,64.493 239.200 C 64.493 238.430,64.575 238.115,64.676 238.500 C 64.776 238.885,64.776 239.515,64.676 239.900 M149.091 239.843 C 148.950 239.984,148.517 239.977,148.128 239.828 C 147.530 239.598,147.511 239.502,148.008 239.195 C 148.621 238.816,149.557 239.376,149.091 239.843 M249.294 243.588 L 250.600 244.777 249.347 244.788 C 248.399 244.797,248.039 244.592,247.871 243.948 C 247.728 243.402,247.435 243.178,247.057 243.323 C 246.732 243.447,246.367 243.291,246.246 242.975 C 245.841 241.921,247.921 242.340,249.294 243.588 M135.200 244.927 C 135.200 245.648,133.815 246.380,133.186 245.991 C 132.760 245.728,132.854 245.485,133.619 244.865 C 134.620 244.054,135.200 244.077,135.200 244.927 M154.525 246.116 C 154.483 246.712,154.629 247.200,154.848 247.200 C 155.068 247.200,155.131 247.389,154.988 247.619 C 154.811 247.906,154.550 247.891,154.164 247.570 C 153.748 247.225,153.459 247.219,153.063 247.548 C 152.365 248.127,151.950 247.698,152.394 246.857 C 152.585 246.496,152.844 245.872,152.970 245.470 C 153.337 244.295,154.614 244.825,154.525 246.116 M259.788 248.125 C 260.395 248.183,260.589 248.522,260.634 249.600 C 260.667 250.370,260.612 250.775,260.513 250.500 C 260.414 250.225,260.106 250.000,259.828 250.000 C 259.117 250.000,256.800 248.804,256.800 248.437 C 256.800 247.832,257.397 247.559,258.190 247.802 C 258.635 247.939,259.355 248.084,259.788 248.125 M263.840 249.040 C 263.722 249.348,263.805 249.600,264.025 249.600 C 264.245 249.600,264.383 250.218,264.333 250.974 C 264.282 251.730,264.108 252.267,263.948 252.168 C 263.787 252.068,263.542 252.170,263.404 252.393 C 263.266 252.617,263.343 252.800,263.576 252.800 C 263.809 252.800,264.000 253.070,264.000 253.400 C 264.000 253.730,263.824 254.000,263.609 254.000 C 262.978 254.000,261.891 252.061,262.148 251.392 C 262.281 251.045,262.051 250.493,261.620 250.124 C 260.880 249.491,260.896 249.451,262.128 248.811 C 263.524 248.088,264.172 248.174,263.840 249.040 M256.000 249.400 C 256.000 249.730,255.831 250.000,255.624 250.000 C 255.119 250.000,254.758 249.375,255.078 249.056 C 255.528 248.605,256.000 248.781,256.000 249.400 M164.069 251.862 C 165.146 252.837,165.018 254.000,163.833 254.000 C 163.302 254.000,162.782 254.225,162.679 254.500 C 162.576 254.775,162.516 254.145,162.546 253.100 C 162.604 251.065,162.912 250.815,164.069 251.862 M68.500 253.757 C 69.302 254.366,69.449 256.007,68.700 255.987 C 67.785 255.962,66.387 254.500,66.642 253.835 C 66.936 253.069,67.559 253.042,68.500 253.757 M169.690 261.205 C 168.972 262.354,169.058 263.016,169.840 262.367 C 170.810 261.562,171.564 261.586,172.019 262.435 C 172.244 262.856,172.728 263.200,173.094 263.200 C 173.620 263.200,173.657 263.303,173.270 263.690 C 172.887 264.073,172.612 264.075,172.009 263.698 C 171.522 263.394,171.148 263.361,170.995 263.608 C 170.497 264.413,169.210 263.979,168.600 262.801 C 168.035 261.708,168.039 261.512,168.650 260.580 C 169.484 259.307,170.496 259.914,169.690 261.205 M110.800 261.600 C 110.800 261.820,110.530 262.000,110.200 262.000 C 109.870 262.000,109.600 261.820,109.600 261.600 C 109.600 261.380,109.870 261.200,110.200 261.200 C 110.530 261.200,110.800 261.380,110.800 261.600 M74.325 262.505 C 74.417 262.985,74.202 263.200,73.629 263.200 C 73.057 263.200,72.800 262.943,72.800 262.371 C 72.800 261.346,74.124 261.462,74.325 262.505 M111.761 266.863 C 111.532 267.233,110.400 266.840,110.400 266.391 C 110.400 266.212,110.625 265.989,110.900 265.893 C 111.450 265.702,112.056 266.385,111.761 266.863 M180.800 267.600 C 180.800 267.820,180.530 268.000,180.200 268.000 C 179.870 268.000,179.600 267.820,179.600 267.600 C 179.600 267.380,179.870 267.200,180.200 267.200 C 180.530 267.200,180.800 267.380,180.800 267.600 M186.249 275.051 C 186.390 275.614,186.882 276.106,187.444 276.247 C 188.119 276.416,188.400 276.768,188.400 277.443 C 188.400 278.196,188.612 278.400,189.396 278.400 C 190.354 278.400,190.366 278.431,189.707 279.200 C 187.809 281.417,184.416 279.188,184.457 275.751 C 184.484 273.496,185.736 273.007,186.249 275.051 M194.465 282.193 C 195.105 283.605,194.464 285.600,193.372 285.600 C 192.566 285.600,191.981 283.702,192.426 282.533 C 192.649 281.944,192.749 281.243,192.646 280.976 C 192.205 279.826,193.908 280.966,194.465 282.193 M198.200 286.400 C 198.336 286.620,198.066 286.800,197.600 286.800 C 197.134 286.800,196.864 286.620,197.000 286.400 C 197.136 286.180,197.406 286.000,197.600 286.000 C 197.794 286.000,198.064 286.180,198.200 286.400 M208.800 294.080 C 208.800 294.726,208.682 294.842,208.355 294.515 C 208.110 294.270,208.031 293.874,208.178 293.635 C 208.592 292.965,208.800 293.114,208.800 294.080 M212.957 296.633 C 213.371 297.711,213.227 298.400,212.587 298.400 C 211.864 298.400,211.419 297.449,211.745 296.600 C 212.045 295.817,212.651 295.834,212.957 296.633 M334.800 300.024 C 334.800 300.477,334.620 300.736,334.400 300.600 C 334.180 300.464,334.000 300.093,334.000 299.776 C 334.000 299.459,334.180 299.200,334.400 299.200 C 334.620 299.200,334.800 299.571,334.800 300.024 M216.946 301.687 C 216.602 302.243,216.021 301.610,216.273 300.954 C 216.459 300.469,216.581 300.446,216.829 300.847 C 217.004 301.130,217.057 301.508,216.946 301.687 M332.026 302.814 C 333.095 303.386,332.996 304.336,331.837 304.626 C 330.015 305.084,328.478 303.660,329.900 302.832 C 330.795 302.311,331.081 302.308,332.026 302.814 M325.200 309.600 C 325.200 309.820,325.560 310.000,326.000 310.000 C 326.440 310.000,326.800 310.180,326.800 310.400 C 326.800 310.620,326.440 310.800,326.000 310.800 C 325.560 310.800,325.200 310.620,325.200 310.400 C 325.200 310.180,324.750 310.000,324.200 310.000 C 323.650 310.000,323.200 309.820,323.200 309.600 C 323.200 309.380,323.650 309.200,324.200 309.200 C 324.750 309.200,325.200 309.380,325.200 309.600 M228.233 311.200 C 228.545 311.200,228.800 311.380,228.800 311.600 C 228.800 312.109,228.122 312.121,227.811 311.617 C 227.681 311.407,227.310 311.336,226.987 311.460 C 226.664 311.584,226.400 311.501,226.400 311.276 C 226.400 310.757,227.355 310.406,227.533 310.860 C 227.607 311.047,227.922 311.200,228.233 311.200 M335.600 311.957 C 335.600 312.806,334.710 313.294,333.800 312.945 C 332.643 312.501,333.090 311.200,334.400 311.200 C 335.311 311.200,335.600 311.383,335.600 311.957 M232.000 315.014 C 232.000 315.336,231.730 315.600,231.400 315.600 C 231.070 315.600,230.800 315.435,230.800 315.233 C 230.800 315.031,230.683 314.560,230.539 314.186 C 230.314 313.600,230.396 313.570,231.139 313.968 C 231.613 314.221,232.000 314.692,232.000 315.014 M234.000 316.800 C 234.000 317.020,233.820 317.200,233.600 317.200 C 232.880 317.200,233.180 317.868,234.100 318.312 C 234.839 318.668,234.872 318.751,234.283 318.773 C 232.995 318.822,231.774 317.370,232.666 316.851 C 233.598 316.309,234.000 316.294,234.000 316.800 M319.800 319.200 C 319.800 319.557,319.355 319.851,318.700 319.927 C 317.636 320.049,317.187 319.346,317.884 318.650 C 318.372 318.161,319.800 318.571,319.800 319.200 M294.100 324.888 C 293.605 325.127,293.200 325.475,293.200 325.661 C 293.200 326.199,295.111 326.054,295.335 325.500 C 295.446 325.225,295.551 325.399,295.568 325.886 C 295.596 326.654,295.332 326.808,293.591 327.039 C 292.486 327.186,291.485 327.462,291.367 327.653 C 291.018 328.219,289.868 328.034,288.846 327.248 C 288.260 326.798,288.056 326.412,288.318 326.251 C 288.553 326.106,288.858 326.170,288.996 326.393 C 289.134 326.617,289.822 326.775,290.524 326.746 C 291.503 326.704,291.586 326.650,290.877 326.515 C 289.486 326.249,290.060 325.417,291.731 325.276 C 292.539 325.208,293.200 324.983,293.200 324.776 C 293.200 324.569,293.605 324.412,294.100 324.427 L 295.000 324.454 294.100 324.888 M242.415 325.615 C 243.567 326.767,242.956 327.486,241.770 326.372 C 241.250 325.883,240.920 325.330,241.036 325.142 C 241.341 324.649,241.506 324.706,242.415 325.615 M247.949 328.937 C 248.439 329.529,248.369 329.600,247.295 329.600 C 245.876 329.600,244.609 328.032,245.009 326.772 C 245.270 325.951,245.802 326.343,247.949 328.937 M280.200 330.396 C 280.200 331.623,278.307 332.486,277.498 331.628 C 277.117 331.224,277.112 331.059,277.478 330.924 C 277.740 330.827,277.862 330.506,277.748 330.209 C 277.632 329.907,277.861 329.585,278.271 329.477 C 279.630 329.118,280.200 329.389,280.200 330.396 M273.517 332.852 C 273.655 333.584,271.404 334.207,270.236 333.759 C 269.613 333.519,269.614 333.447,270.262 332.731 C 271.117 331.786,273.331 331.868,273.517 332.852 M252.000 334.440 C 252.000 334.948,249.165 336.053,248.212 335.916 C 247.103 335.757,247.270 335.137,248.624 334.386 C 249.761 333.756,252.000 333.792,252.000 334.440 M278.036 334.769 C 277.726 334.965,277.231 335.033,276.936 334.920 C 276.090 334.596,276.306 334.399,277.500 334.406 C 278.301 334.411,278.447 334.509,278.036 334.769 " stroke="none" fill="#fbfbfb" fill-rule="evenodd"></path><path id="path2" d="M257.600 67.200 C 257.270 67.413,256.640 67.595,256.200 67.604 C 254.673 67.635,249.879 71.107,245.436 75.400 C 244.526 76.280,241.914 78.710,239.634 80.800 C 237.353 82.890,234.117 85.880,232.443 87.444 C 230.770 89.008,228.690 90.898,227.823 91.644 C 226.956 92.390,225.588 93.630,224.784 94.400 C 223.979 95.170,222.799 96.234,222.161 96.765 C 221.522 97.296,218.752 99.816,216.003 102.365 C 213.255 104.914,210.806 107.180,210.561 107.400 C 206.650 110.909,203.185 114.080,202.036 115.200 C 200.572 116.627,193.613 122.874,192.247 123.987 C 191.833 124.324,190.731 125.320,189.799 126.200 C 188.062 127.838,182.667 132.759,178.011 136.951 C 174.228 140.358,168.225 145.921,165.026 148.985 C 163.501 150.447,162.037 151.768,161.773 151.921 C 161.308 152.191,154.784 158.148,151.392 161.400 C 149.371 163.337,145.864 166.389,145.157 166.827 C 144.588 167.178,143.809 166.843,142.600 165.727 C 142.160 165.320,139.910 163.558,137.600 161.811 C 135.290 160.064,132.489 157.907,131.375 157.017 C 130.262 156.128,128.121 154.500,126.618 153.400 C 121.971 149.999,110.508 141.428,109.600 140.676 C 109.270 140.403,107.574 139.104,105.832 137.790 C 104.089 136.475,101.929 134.816,101.032 134.102 C 96.915 130.827,96.555 130.684,92.415 130.675 C 89.818 130.669,88.281 130.849,87.600 131.240 C 85.694 132.334,84.213 133.406,82.957 134.600 C 82.263 135.260,80.478 136.880,78.989 138.200 C 68.043 147.908,66.000 150.673,66.000 155.782 C 66.000 160.595,67.028 162.047,76.216 170.200 C 77.703 171.520,79.582 173.230,80.392 174.000 C 81.861 175.397,82.706 176.174,90.221 183.030 C 92.410 185.027,95.460 187.813,97.000 189.220 C 100.999 192.876,100.836 192.730,104.331 195.800 C 106.083 197.340,107.750 199.011,108.033 199.513 C 108.613 200.539,109.155 199.915,102.577 205.800 C 100.610 207.560,98.137 209.848,97.082 210.885 C 96.027 211.922,94.677 213.152,94.082 213.618 C 93.487 214.085,91.444 215.936,89.543 217.733 C 87.641 219.530,84.893 222.062,83.435 223.361 C 66.441 238.502,66.000 239.039,66.000 244.601 C 66.000 246.256,66.159 247.923,66.353 248.305 C 66.548 248.687,66.931 249.482,67.206 250.072 C 67.675 251.078,69.994 253.535,73.200 256.421 C 73.970 257.114,75.590 258.608,76.800 259.741 C 86.642 268.953,87.334 269.392,92.039 269.397 C 96.245 269.401,96.139 269.452,103.958 263.605 C 107.344 261.072,110.615 258.640,111.225 258.200 C 112.227 257.477,125.353 247.555,137.200 238.566 C 139.730 236.646,141.890 234.964,142.000 234.828 C 142.400 234.335,144.384 233.200,144.847 233.200 C 145.109 233.200,146.252 234.055,147.387 235.100 C 148.523 236.145,150.349 237.810,151.445 238.800 C 152.541 239.790,154.610 241.680,156.043 243.000 C 157.475 244.320,160.335 246.930,162.398 248.800 C 164.462 250.670,167.691 253.658,169.575 255.440 C 174.497 260.096,177.597 262.932,179.200 264.246 C 179.970 264.877,181.590 266.312,182.800 267.434 C 188.080 272.331,191.562 275.521,193.413 277.154 C 194.506 278.118,197.020 280.390,199.000 282.201 C 200.980 284.013,203.309 286.104,204.175 286.848 C 205.042 287.592,206.302 288.760,206.975 289.445 C 207.649 290.130,210.000 292.306,212.200 294.281 C 214.400 296.256,216.839 298.486,217.621 299.236 C 218.402 299.986,220.742 302.128,222.821 303.996 C 224.899 305.863,226.966 307.753,227.413 308.196 C 227.860 308.638,229.649 310.260,231.388 311.800 C 233.127 313.340,235.101 315.144,235.775 315.809 C 236.449 316.474,238.704 318.544,240.787 320.409 C 244.811 324.013,246.589 325.623,249.800 328.569 C 256.591 334.801,263.046 334.961,275.000 329.193 C 277.200 328.131,279.810 326.888,280.800 326.431 C 281.790 325.973,283.500 325.100,284.600 324.490 C 285.700 323.880,287.374 323.129,288.320 322.820 C 289.266 322.511,290.132 322.111,290.244 321.930 C 290.431 321.626,292.339 320.682,300.400 316.901 C 329.588 303.212,329.761 303.096,333.651 294.600 C 334.345 293.083,334.693 111.366,334.008 107.662 C 332.976 102.079,329.218 97.062,324.265 94.656 C 323.129 94.105,319.770 92.497,316.800 91.083 C 313.830 89.670,309.060 87.384,306.200 86.003 C 303.340 84.623,299.110 82.604,296.800 81.517 C 294.490 80.429,292.150 79.276,291.600 78.954 C 291.050 78.631,289.790 77.990,288.800 77.530 C 287.810 77.069,285.200 75.812,283.000 74.736 C 280.800 73.661,278.885 72.785,278.744 72.791 C 278.604 72.796,277.257 72.080,275.751 71.200 C 274.245 70.320,272.641 69.600,272.186 69.600 C 271.732 69.600,271.189 69.450,270.980 69.267 C 268.736 67.304,259.619 65.895,257.600 67.200 M268.940 69.327 C 269.714 69.917,270.719 70.400,271.173 70.400 C 271.628 70.400,272.000 70.580,272.000 70.800 C 272.000 71.020,272.230 71.200,272.510 71.200 C 272.791 71.200,274.793 72.100,276.960 73.200 C 279.127 74.300,281.151 75.200,281.458 75.200 C 281.765 75.200,282.687 75.610,283.508 76.111 C 284.329 76.613,285.630 77.313,286.400 77.667 C 287.170 78.021,288.430 78.600,289.200 78.953 C 290.586 79.589,291.194 79.940,293.260 81.300 C 293.845 81.685,294.666 82.000,295.085 82.000 C 295.504 82.000,296.196 82.264,296.624 82.587 C 297.051 82.910,297.700 83.180,298.067 83.187 C 298.433 83.194,298.793 83.347,298.867 83.527 C 298.940 83.707,300.260 84.441,301.800 85.159 C 303.340 85.877,305.817 87.089,307.305 87.852 C 308.793 88.615,310.740 89.496,311.631 89.811 C 312.523 90.126,313.747 90.735,314.351 91.165 C 314.955 91.595,315.978 92.079,316.624 92.240 C 317.271 92.401,318.610 92.982,319.600 93.530 C 320.590 94.079,321.670 94.654,322.000 94.807 C 326.349 96.828,330.800 100.650,330.800 102.363 C 330.800 102.556,331.070 102.818,331.400 102.945 C 331.730 103.071,332.000 103.595,332.000 104.107 C 332.000 104.620,332.178 105.218,332.395 105.435 C 333.136 106.176,332.949 293.966,332.205 295.624 C 331.577 297.024,330.769 298.438,330.391 298.800 C 330.276 298.910,329.880 299.475,329.511 300.055 C 328.302 301.957,324.071 304.581,317.000 307.812 C 312.934 309.670,312.000 310.170,312.000 310.491 C 312.000 310.661,311.664 310.800,311.252 310.800 C 310.841 310.800,307.842 312.150,304.587 313.800 C 301.332 315.450,298.507 316.800,298.308 316.800 C 298.109 316.800,297.357 317.250,296.636 317.800 C 295.914 318.350,295.071 318.796,294.762 318.790 C 294.453 318.785,292.760 319.496,291.000 320.370 C 289.240 321.244,286.090 322.761,284.000 323.740 C 278.644 326.249,276.804 327.135,275.200 327.975 C 274.430 328.378,272.990 329.039,272.000 329.443 C 271.010 329.847,270.110 330.275,270.000 330.393 C 269.696 330.719,267.152 331.856,265.800 332.268 C 264.012 332.814,258.924 332.925,258.615 332.425 C 258.471 332.191,257.929 332.000,257.411 332.000 C 255.126 332.000,249.949 328.149,242.354 320.800 C 241.104 319.590,239.633 318.240,239.086 317.800 C 238.164 317.057,231.370 310.886,230.118 309.653 C 229.813 309.352,228.806 308.475,227.881 307.704 C 226.547 306.592,221.098 301.559,215.209 296.000 C 214.859 295.670,213.139 294.141,211.387 292.602 C 209.634 291.063,207.657 289.263,206.993 288.602 C 206.329 287.941,203.809 285.613,201.393 283.428 C 198.977 281.244,195.290 277.897,193.200 275.991 C 191.110 274.085,187.150 270.489,184.400 268.001 C 181.650 265.512,177.330 261.547,174.800 259.190 C 172.270 256.834,168.310 253.234,166.000 251.190 C 163.690 249.147,160.720 246.450,159.400 245.197 C 158.080 243.945,155.923 241.948,154.606 240.760 C 153.290 239.572,151.220 237.669,150.006 236.532 C 148.793 235.394,147.096 233.906,146.235 233.223 L 144.669 231.983 143.736 232.860 C 143.223 233.342,141.558 234.650,140.035 235.768 C 135.406 239.165,130.675 242.727,122.859 248.700 C 118.757 251.835,114.680 254.945,113.800 255.612 C 111.946 257.016,107.280 260.614,106.398 261.319 C 106.066 261.583,104.086 263.056,101.998 264.592 C 99.909 266.127,98.110 267.481,98.000 267.600 C 95.768 270.015,88.057 269.355,85.018 266.488 C 84.173 265.690,82.743 264.424,81.840 263.674 C 80.938 262.924,78.462 260.665,76.337 258.655 C 74.212 256.645,71.668 254.311,70.684 253.469 C 67.799 251.002,66.626 248.446,66.613 244.600 C 66.597 239.692,67.319 238.629,75.835 231.010 C 77.796 229.256,79.865 227.366,80.432 226.810 C 81.000 226.255,82.170 225.185,83.032 224.433 C 83.895 223.682,85.778 221.972,87.219 220.633 C 95.717 212.737,102.734 206.322,104.526 204.812 C 106.463 203.180,109.200 200.330,109.200 199.945 C 109.200 199.416,106.302 196.552,101.000 191.842 C 98.800 189.888,95.560 186.917,93.800 185.242 C 92.040 183.566,89.970 181.680,89.200 181.050 C 88.430 180.421,86.620 178.802,85.177 177.453 C 83.735 176.104,81.566 174.100,80.358 173.000 C 66.927 160.773,66.481 160.158,66.889 154.454 C 67.203 150.069,67.567 149.592,77.200 140.952 C 86.867 132.282,87.086 132.108,88.708 131.831 C 89.528 131.691,90.811 131.469,91.558 131.338 C 94.667 130.791,97.907 132.256,102.861 136.447 C 103.664 137.127,104.779 137.980,105.338 138.342 C 107.097 139.480,119.355 148.887,120.355 149.866 C 120.880 150.380,121.437 150.800,121.592 150.800 C 121.748 150.800,122.399 151.264,123.038 151.832 C 123.677 152.399,124.846 153.283,125.636 153.796 C 126.426 154.309,127.326 154.980,127.636 155.287 C 127.946 155.594,128.785 156.189,129.500 156.609 C 130.215 157.029,130.800 157.514,130.800 157.686 C 130.800 157.859,131.048 158.000,131.351 158.000 C 131.654 158.000,132.149 158.297,132.451 158.661 C 132.752 159.024,135.379 161.103,138.288 163.280 C 141.197 165.458,143.683 167.410,143.812 167.619 C 144.337 168.469,144.555 168.305,152.564 161.035 C 154.524 159.256,157.404 156.606,158.964 155.146 C 160.524 153.686,162.610 151.821,163.600 151.001 C 164.590 150.180,166.763 148.224,168.429 146.655 C 170.095 145.085,172.345 142.995,173.429 142.010 C 177.172 138.611,189.406 127.479,191.200 125.839 C 192.190 124.935,195.070 122.302,197.600 119.989 C 200.130 117.677,202.903 115.158,203.763 114.392 C 204.622 113.627,205.972 112.370,206.763 111.599 C 207.553 110.828,209.636 108.938,211.391 107.399 C 213.147 105.860,214.857 104.308,215.191 103.951 C 215.857 103.242,226.380 93.625,229.471 90.900 C 230.532 89.966,232.221 88.436,233.225 87.500 C 234.228 86.565,236.118 84.839,237.425 83.664 C 240.966 80.479,246.613 75.282,249.155 72.868 C 251.396 70.739,255.486 68.406,257.000 68.394 C 257.440 68.391,258.583 68.154,259.539 67.868 C 262.092 67.104,267.031 67.871,268.940 69.327 M265.334 140.540 C 264.710 141.060,262.031 143.114,259.380 145.105 C 256.729 147.097,254.322 149.013,254.031 149.363 C 253.740 149.713,253.332 150.000,253.123 150.000 C 252.915 150.000,251.197 151.215,249.307 152.700 C 247.416 154.185,242.523 157.923,238.434 161.007 C 227.757 169.059,219.095 175.600,218.399 176.137 C 215.166 178.628,214.171 179.411,214.000 179.598 C 213.890 179.718,212.090 181.069,210.000 182.600 C 207.910 184.131,206.110 185.478,206.000 185.594 C 205.823 185.780,201.250 189.280,198.442 191.379 C 192.556 195.777,187.600 199.787,187.600 200.152 C 187.600 200.601,189.193 201.993,192.192 204.164 C 193.076 204.804,193.890 205.434,194.000 205.564 C 194.220 205.824,204.856 213.889,210.401 218.000 C 212.329 219.430,214.941 221.410,216.205 222.400 C 217.469 223.390,219.155 224.632,219.951 225.159 C 220.748 225.687,222.414 226.992,223.654 228.059 C 224.894 229.127,226.094 230.000,226.321 230.000 C 226.548 230.000,226.793 230.146,226.867 230.325 C 226.940 230.504,228.080 231.436,229.400 232.397 C 230.720 233.358,231.890 234.263,232.000 234.408 C 232.110 234.553,233.910 235.900,236.000 237.400 C 238.090 238.900,239.890 240.235,240.000 240.366 C 240.110 240.497,241.640 241.675,243.400 242.983 C 246.136 245.017,248.364 246.748,251.705 249.433 C 252.092 249.745,252.517 250.000,252.650 250.000 C 252.868 250.000,255.509 252.008,261.045 256.384 C 262.170 257.273,263.214 258.000,263.365 258.000 C 263.516 258.000,264.284 258.626,265.072 259.391 C 265.860 260.156,266.661 260.686,266.852 260.568 C 267.326 260.275,267.308 140.114,266.834 139.821 C 266.632 139.696,265.957 140.020,265.334 140.540 M266.400 200.024 C 266.400 247.752,266.305 258.400,265.878 258.400 C 265.065 258.400,262.236 256.444,254.592 250.600 C 252.002 248.620,249.031 246.370,247.990 245.600 C 246.949 244.830,244.705 243.120,243.003 241.800 C 241.301 240.480,239.568 239.203,239.152 238.962 C 238.735 238.721,237.811 238.000,237.097 237.360 C 236.384 236.720,235.291 235.869,234.669 235.469 C 234.047 235.069,233.147 234.415,232.669 234.016 C 232.191 233.618,229.460 231.530,226.600 229.377 C 223.740 227.225,221.310 225.346,221.200 225.202 C 221.090 225.058,220.415 224.599,219.700 224.184 C 218.985 223.768,218.400 223.321,218.400 223.190 C 218.400 223.059,217.242 222.185,215.826 221.247 C 214.410 220.310,212.835 219.133,212.326 218.632 C 211.817 218.131,210.635 217.220,209.700 216.608 C 208.765 215.995,208.000 215.376,208.000 215.233 C 208.000 215.090,207.428 214.634,206.728 214.221 C 206.029 213.808,205.025 213.094,204.497 212.635 C 203.969 212.176,200.188 209.280,196.096 206.200 C 192.003 203.120,188.589 200.395,188.509 200.145 C 188.363 199.690,193.407 195.651,200.200 190.782 C 202.180 189.363,203.980 188.005,204.200 187.763 C 204.420 187.522,205.230 186.908,206.000 186.400 C 206.770 185.892,207.580 185.269,207.800 185.015 C 208.317 184.420,212.253 181.445,215.229 179.400 C 216.510 178.520,217.935 177.395,218.395 176.900 C 218.855 176.405,219.370 176.000,219.540 176.000 C 219.710 176.000,220.198 175.682,220.625 175.293 C 221.051 174.904,222.750 173.559,224.400 172.304 C 226.050 171.048,227.581 169.881,227.803 169.710 C 228.025 169.540,229.786 168.230,231.716 166.800 C 233.647 165.370,237.668 162.310,240.651 160.000 C 243.635 157.690,246.734 155.356,247.538 154.812 C 248.342 154.269,250.024 153.009,251.275 152.012 C 252.526 151.016,254.201 149.750,254.998 149.200 C 255.795 148.650,257.832 147.105,259.524 145.767 C 263.212 142.850,265.691 141.231,266.100 141.471 C 266.265 141.568,266.400 167.917,266.400 200.024 " stroke="none" fill="#96d0ed" fill-rule="evenodd"></path><path id="path3" d="M245.067 64.267 C 244.277 65.056,244.845 66.000,246.111 66.000 C 247.538 66.000,249.353 64.971,248.983 64.373 C 248.721 63.949,245.473 63.861,245.067 64.267 M276.900 64.261 C 275.958 64.649,276.401 65.169,278.051 65.614 C 279.716 66.062,280.606 65.770,280.083 64.947 C 279.750 64.423,277.621 63.963,276.900 64.261 M272.681 67.387 C 273.477 68.480,274.000 68.676,274.000 67.880 C 274.000 67.204,273.186 66.400,272.501 66.400 C 272.098 66.400,272.144 66.649,272.681 67.387 M288.900 72.544 C 287.784 73.096,287.722 74.000,288.800 74.000 C 289.240 74.000,289.600 74.159,289.600 74.353 C 289.600 74.869,291.332 75.117,292.336 74.745 C 294.007 74.127,293.397 73.105,291.500 73.344 C 290.565 73.462,290.115 73.464,290.500 73.350 C 291.371 73.090,291.403 72.564,290.567 72.243 C 290.219 72.109,289.904 72.022,289.867 72.049 C 289.830 72.076,289.395 72.299,288.900 72.544 M243.200 75.200 C 243.200 75.640,243.284 76.000,243.386 76.000 C 243.488 76.000,243.765 75.640,244.000 75.200 C 244.342 74.561,244.304 74.400,243.814 74.400 C 243.467 74.400,243.200 74.747,243.200 75.200 M234.000 81.553 C 234.000 81.748,233.639 82.001,233.198 82.116 C 232.664 82.256,232.478 82.538,232.641 82.963 C 232.923 83.697,234.000 83.831,234.000 83.131 C 234.000 82.874,234.298 82.334,234.662 81.931 C 235.278 81.251,235.278 81.200,234.662 81.200 C 234.298 81.200,234.000 81.359,234.000 81.553 M304.278 83.056 C 303.904 83.429,304.355 84.000,305.024 84.000 C 305.341 84.000,305.600 83.730,305.600 83.400 C 305.600 82.798,304.756 82.578,304.278 83.056 M228.294 86.239 C 227.919 86.615,228.430 87.600,229.000 87.600 C 229.570 87.600,230.081 86.615,229.706 86.239 C 229.574 86.108,229.257 86.000,229.000 86.000 C 228.743 86.000,228.426 86.108,228.294 86.239 M321.200 88.600 C 321.200 89.739,321.403 89.792,322.800 89.016 L 323.800 88.460 322.674 88.030 C 321.180 87.459,321.200 87.452,321.200 88.600 M329.834 95.620 C 329.008 96.453,329.536 97.510,331.231 98.417 C 333.383 99.568,334.465 97.070,332.438 95.627 C 331.037 94.630,330.817 94.629,329.834 95.620 M216.267 96.267 C 215.858 96.675,215.950 97.678,216.372 97.417 C 216.577 97.291,216.858 97.370,216.996 97.593 C 217.409 98.261,218.000 98.055,218.000 97.243 C 218.000 96.826,217.715 96.376,217.367 96.243 C 216.584 95.942,216.591 95.942,216.267 96.267 M208.178 97.235 C 208.031 97.474,208.110 97.870,208.355 98.115 C 208.682 98.442,208.800 98.326,208.800 97.680 C 208.800 96.714,208.592 96.565,208.178 97.235 M334.202 99.705 C 334.042 100.093,334.093 100.633,334.317 100.905 C 334.540 101.177,334.786 101.850,334.862 102.400 C 334.938 102.950,335.180 103.362,335.400 103.316 C 336.054 103.178,336.109 101.586,335.484 100.867 C 335.165 100.500,334.812 99.930,334.699 99.600 C 334.528 99.101,334.444 99.119,334.202 99.705 M212.013 101.976 C 211.725 102.513,211.726 102.831,212.016 103.010 C 212.539 103.333,213.600 102.490,213.600 101.751 C 213.600 100.929,212.489 101.086,212.013 101.976 M192.400 116.312 C 192.400 117.158,193.185 118.800,193.590 118.800 C 194.294 118.800,194.038 117.359,193.200 116.600 C 192.760 116.202,192.400 116.072,192.400 116.312 M187.800 120.400 C 187.664 120.620,187.187 120.800,186.739 120.800 C 186.262 120.800,185.839 121.131,185.716 121.600 C 185.601 122.040,185.277 122.400,184.996 122.400 C 184.093 122.400,183.998 123.578,184.796 124.889 L 185.572 126.165 186.191 124.683 C 186.532 123.867,187.059 123.200,187.362 123.200 C 187.665 123.200,188.045 122.705,188.206 122.100 C 188.367 121.495,188.581 121.225,188.683 121.500 C 188.894 122.074,190.800 122.190,190.800 121.629 C 190.800 120.896,188.162 119.815,187.800 120.400 M176.060 128.380 C 176.232 128.896,176.781 128.988,176.830 128.510 C 176.846 128.351,176.644 128.148,176.380 128.060 C 176.116 127.972,175.972 128.116,176.060 128.380 M185.012 128.381 C 184.869 128.611,185.053 128.800,185.419 128.800 C 185.873 128.800,186.005 129.010,185.834 129.457 C 185.621 130.010,185.679 130.032,186.201 129.600 C 186.541 129.317,186.770 129.061,186.710 129.030 C 186.649 128.999,186.301 128.746,185.936 128.467 C 185.487 128.125,185.187 128.097,185.012 128.381 M86.800 129.400 C 86.800 129.730,87.070 130.000,87.400 130.000 C 87.730 130.000,88.000 129.730,88.000 129.400 C 88.000 129.070,87.730 128.800,87.400 128.800 C 87.070 128.800,86.800 129.070,86.800 129.400 M180.386 131.817 C 180.050 132.222,180.009 132.569,180.268 132.828 C 180.526 133.086,180.820 132.874,181.122 132.211 C 181.632 131.092,181.185 130.854,180.386 131.817 M80.578 133.235 C 80.229 133.800,81.000 134.571,81.565 134.222 C 81.804 134.074,82.000 133.693,82.000 133.376 C 82.000 132.703,80.971 132.600,80.578 133.235 M110.667 133.467 C 110.206 133.927,110.375 134.400,111.000 134.400 C 111.330 134.400,111.600 134.130,111.600 133.800 C 111.600 133.175,111.127 133.006,110.667 133.467 M168.551 137.131 C 167.955 138.041,167.952 138.226,168.516 139.156 C 169.325 140.489,169.870 140.640,170.193 139.622 C 170.337 139.170,170.717 138.800,171.040 138.800 C 171.362 138.800,171.734 138.516,171.867 138.169 C 172.000 137.823,172.535 137.377,173.055 137.179 C 174.709 136.550,174.077 136.083,171.604 136.106 C 169.501 136.126,169.127 136.252,168.551 137.131 M68.964 144.550 C 68.625 145.433,69.076 145.884,69.687 145.273 C 70.047 144.913,70.049 144.689,69.693 144.333 C 69.337 143.977,69.164 144.029,68.964 144.550 M164.000 144.856 C 164.000 145.327,163.685 145.951,163.300 146.243 C 162.652 146.735,162.667 146.775,163.500 146.787 C 163.995 146.794,164.400 146.626,164.400 146.413 C 164.400 146.199,164.652 146.122,164.960 146.240 C 165.863 146.586,166.139 145.617,165.377 144.775 C 164.464 143.766,164.000 143.793,164.000 144.856 M119.932 146.100 C 119.377 146.548,119.389 146.673,120.056 147.300 C 120.767 147.969,120.800 147.964,120.800 147.200 C 120.800 146.760,120.980 146.400,121.200 146.400 C 121.420 146.400,121.600 146.220,121.600 146.000 C 121.600 145.444,120.677 145.500,119.932 146.100 M262.475 149.320 C 261.454 150.407,261.376 150.800,262.180 150.800 C 262.499 150.800,262.936 151.114,263.150 151.497 C 263.365 151.880,263.676 152.057,263.843 151.890 C 264.010 151.723,263.947 151.387,263.702 151.142 C 263.376 150.816,263.380 150.501,263.719 149.959 C 264.495 148.715,263.516 148.212,262.475 149.320 M160.254 149.079 C 159.977 149.357,161.186 151.200,161.646 151.200 C 161.841 151.200,162.000 151.020,162.000 150.800 C 162.000 150.265,160.524 148.810,160.254 149.079 M124.000 149.600 C 124.000 149.820,124.270 150.000,124.600 150.000 C 124.930 150.000,125.200 150.180,125.200 150.400 C 125.200 150.620,125.382 150.800,125.603 150.800 C 125.843 150.800,125.803 150.474,125.507 150.000 C 124.987 149.167,124.000 148.905,124.000 149.600 M254.567 150.836 C 253.825 151.657,253.825 151.683,254.582 152.236 C 255.655 153.021,255.948 152.947,256.230 151.823 C 256.685 150.009,255.794 149.480,254.567 150.836 M259.000 150.400 C 258.864 150.620,258.300 150.800,257.747 150.800 C 257.000 150.800,256.779 150.980,256.887 151.500 C 257.045 152.257,258.759 152.314,259.214 151.577 C 259.352 151.355,259.720 151.239,260.032 151.321 C 260.344 151.402,260.465 151.393,260.300 151.301 C 260.135 151.209,260.000 150.878,260.000 150.567 C 260.000 149.915,259.365 149.809,259.000 150.400 M130.180 152.433 C 130.055 152.635,130.206 152.800,130.514 152.800 C 130.823 152.800,131.400 153.158,131.795 153.595 C 132.191 154.032,133.112 154.606,133.842 154.870 C 134.573 155.134,135.241 155.541,135.328 155.775 C 135.414 156.009,135.432 155.864,135.368 155.454 C 135.304 155.044,135.460 154.373,135.715 153.964 C 136.095 153.356,136.041 153.118,135.417 152.662 C 134.564 152.038,130.533 151.862,130.180 152.433 M153.680 152.713 C 152.340 153.603,152.523 154.800,154.000 154.800 C 155.294 154.800,155.489 154.471,154.700 153.621 C 154.187 153.069,154.345 153.092,156.200 153.843 C 157.248 154.267,156.841 153.426,155.677 152.765 C 154.691 152.204,154.457 152.198,153.680 152.713 M252.000 153.890 C 251.670 154.015,251.256 154.361,251.080 154.659 C 250.904 154.956,250.229 155.200,249.580 155.200 C 248.775 155.200,248.400 155.399,248.400 155.827 C 248.400 156.462,248.778 156.425,251.076 155.566 C 251.735 155.319,253.303 153.469,252.714 153.632 C 252.651 153.649,252.330 153.765,252.000 153.890 M64.013 160.500 C 64.030 161.114,65.546 162.987,65.812 162.722 C 66.095 162.438,64.804 160.000,64.371 160.000 C 64.167 160.000,64.006 160.225,64.013 160.500 M138.226 160.358 C 138.104 160.555,138.288 160.825,138.635 160.958 C 139.705 161.369,140.400 161.228,140.400 160.600 C 140.400 159.945,138.604 159.746,138.226 160.358 M143.843 162.991 C 143.137 164.067,143.273 164.800,144.177 164.800 C 144.777 164.800,145.302 162.770,144.829 162.279 C 144.658 162.103,144.215 162.423,143.843 162.991 M65.696 163.995 C 64.944 165.198,65.102 165.456,66.000 164.492 C 66.847 163.583,66.994 163.200,66.496 163.200 C 66.329 163.200,65.969 163.558,65.696 163.995 M72.825 169.370 C 72.052 170.301,72.471 170.930,73.405 170.241 C 73.982 169.815,74.080 169.532,73.763 169.210 C 73.444 168.885,73.191 168.928,72.825 169.370 M238.400 171.200 C 238.400 171.644,238.667 172.000,239.000 172.000 C 239.333 172.000,239.600 171.644,239.600 171.200 C 239.600 170.756,239.333 170.400,239.000 170.400 C 238.667 170.400,238.400 170.756,238.400 171.200 M73.200 171.576 C 73.200 172.182,73.945 172.471,74.804 172.199 C 76.007 171.817,75.758 171.200,74.400 171.200 C 73.740 171.200,73.200 171.369,73.200 171.576 M83.685 180.499 C 83.369 181.337,83.338 181.846,83.597 181.932 C 83.819 182.006,84.000 182.311,84.000 182.610 C 84.000 183.491,84.737 183.690,85.645 183.053 C 86.111 182.727,86.732 182.552,87.025 182.665 C 87.458 182.831,87.468 182.676,87.079 181.834 C 86.815 181.265,86.302 180.702,85.937 180.584 C 85.572 180.466,85.173 180.106,85.050 179.785 C 84.691 178.851,84.213 179.101,83.685 180.499 M215.200 181.800 C 215.200 182.130,215.380 182.400,215.600 182.400 C 215.820 182.400,216.000 182.130,216.000 181.800 C 216.000 181.470,215.820 181.200,215.600 181.200 C 215.380 181.200,215.200 181.470,215.200 181.800 M222.274 183.639 C 221.992 184.717,222.335 185.600,223.035 185.600 C 223.652 185.600,224.217 183.875,223.814 183.223 C 223.377 182.515,222.506 182.750,222.274 183.639 M206.667 189.697 C 206.263 190.120,206.063 190.587,206.221 190.733 C 206.380 190.880,206.590 190.775,206.688 190.500 C 206.786 190.225,207.122 190.000,207.433 190.000 C 207.745 190.000,208.000 189.831,208.000 189.624 C 208.000 188.900,207.394 188.933,206.667 189.697 M203.200 190.800 C 203.200 191.353,203.467 191.600,204.062 191.600 C 204.899 191.600,204.903 191.576,204.200 190.800 C 203.802 190.360,203.414 190.000,203.338 190.000 C 203.262 190.000,203.200 190.360,203.200 190.800 M197.229 195.488 L 195.857 196.921 196.929 196.716 C 197.780 196.553,198.000 196.664,198.000 197.255 C 198.000 197.665,198.270 198.000,198.600 198.000 C 198.930 198.000,199.200 197.820,199.200 197.600 C 199.200 197.380,199.470 197.200,199.800 197.200 C 200.624 197.200,200.530 195.988,199.623 194.900 C 198.706 193.802,198.884 193.758,197.229 195.488 M97.070 195.361 C 96.820 196.013,97.156 196.474,97.656 196.166 C 98.110 195.885,98.100 194.800,97.643 194.800 C 97.446 194.800,97.189 195.052,97.070 195.361 M190.826 199.176 C 190.352 199.476,190.342 199.648,190.771 200.165 C 191.412 200.937,191.969 200.652,191.889 199.592 C 191.823 198.710,191.662 198.647,190.826 199.176 M96.400 203.026 C 96.400 203.876,97.139 205.200,97.614 205.200 C 98.277 205.200,98.036 204.036,97.200 203.200 C 96.548 202.548,96.400 202.516,96.400 203.026 M198.357 202.733 C 198.681 202.956,198.822 203.471,198.695 203.959 C 198.427 204.983,199.879 205.181,200.266 204.173 C 200.554 203.420,200.142 202.983,198.800 202.619 C 198.101 202.429,197.968 202.463,198.357 202.733 M100.400 204.400 C 100.400 204.620,100.670 204.800,101.000 204.800 C 101.330 204.800,101.600 204.620,101.600 204.400 C 101.600 204.180,101.330 204.000,101.000 204.000 C 100.670 204.000,100.400 204.180,100.400 204.400 M203.277 208.285 C 202.214 208.488,202.211 209.714,203.273 209.919 C 204.200 210.097,205.747 208.741,205.092 208.324 C 204.821 208.153,204.510 208.034,204.400 208.061 C 204.290 208.087,203.784 208.188,203.277 208.285 M206.000 209.376 C 206.000 209.693,206.163 210.054,206.362 210.177 C 206.562 210.300,206.624 210.785,206.502 211.254 C 206.245 212.236,207.089 212.155,207.731 211.136 C 208.016 210.685,207.890 210.290,207.260 209.660 C 206.250 208.650,206.000 208.593,206.000 209.376 M223.056 215.878 C 222.605 216.328,222.781 216.800,223.400 216.800 C 223.730 216.800,224.000 216.631,224.000 216.424 C 224.000 215.919,223.375 215.558,223.056 215.878 M83.819 217.416 C 82.615 220.297,83.431 220.784,86.323 218.909 C 88.216 217.681,88.290 217.064,86.569 216.865 C 85.926 216.790,85.184 216.550,84.919 216.332 C 84.570 216.043,84.269 216.340,83.819 217.416 M215.093 218.034 C 215.252 218.642,215.397 218.728,215.629 218.353 C 215.973 217.796,215.759 217.200,215.214 217.200 C 215.027 217.200,214.973 217.575,215.093 218.034 M80.280 221.853 C 80.126 222.007,80.000 222.621,80.000 223.218 C 80.000 223.814,79.728 224.528,79.395 224.804 C 78.918 225.200,78.891 225.428,79.269 225.884 C 79.647 226.338,79.626 226.538,79.174 226.824 C 78.858 227.024,78.780 227.186,79.000 227.183 C 79.220 227.180,79.925 226.643,80.567 225.989 C 81.208 225.335,81.523 224.800,81.267 224.800 C 81.010 224.800,80.800 224.599,80.800 224.353 C 80.800 224.108,81.132 223.994,81.539 224.100 C 82.176 224.266,82.242 224.122,82.023 223.049 C 81.781 221.865,80.884 221.250,80.280 221.853 M73.000 228.400 C 72.864 228.620,73.134 228.800,73.600 228.800 C 74.066 228.800,74.336 228.620,74.200 228.400 C 74.064 228.180,73.794 228.000,73.600 228.000 C 73.406 228.000,73.136 228.180,73.000 228.400 M231.499 231.081 C 231.404 231.256,231.658 231.715,232.063 232.100 C 232.617 232.626,232.800 232.663,232.800 232.249 C 232.800 231.582,231.741 230.631,231.499 231.081 M65.067 235.067 C 64.606 235.527,64.775 236.000,65.400 236.000 C 65.730 236.000,66.000 235.730,66.000 235.400 C 66.000 234.775,65.527 234.606,65.067 235.067 M142.616 236.939 C 142.102 237.315,142.019 237.565,142.342 237.764 C 142.601 237.924,142.912 237.774,143.046 237.425 C 143.351 236.629,144.000 236.611,144.000 237.400 C 144.000 238.069,144.624 238.208,144.988 237.620 C 145.117 237.411,144.869 237.051,144.437 236.820 C 143.456 236.295,143.501 236.292,142.616 236.939 M64.493 239.200 C 64.493 239.970,64.575 240.285,64.676 239.900 C 64.776 239.515,64.776 238.885,64.676 238.500 C 64.575 238.115,64.493 238.430,64.493 239.200 M148.008 239.195 C 147.511 239.502,147.530 239.598,148.128 239.828 C 148.963 240.148,149.508 239.748,148.970 239.210 C 148.743 238.983,148.361 238.977,148.008 239.195 M65.728 244.400 C 65.728 245.830,65.801 246.415,65.889 245.700 C 65.978 244.985,65.978 243.815,65.889 243.100 C 65.801 242.385,65.728 242.970,65.728 244.400 M246.246 242.975 C 246.367 243.291,246.732 243.447,247.057 243.323 C 247.435 243.178,247.728 243.402,247.871 243.948 C 248.039 244.592,248.399 244.797,249.347 244.788 L 250.600 244.777 249.294 243.588 C 247.921 242.340,245.841 241.921,246.246 242.975 M133.619 244.865 C 132.854 245.485,132.760 245.728,133.186 245.991 C 133.815 246.380,135.200 245.648,135.200 244.927 C 135.200 244.077,134.620 244.054,133.619 244.865 M152.970 245.470 C 152.844 245.872,152.585 246.496,152.394 246.857 C 151.950 247.698,152.365 248.127,153.063 247.548 C 153.459 247.219,153.748 247.225,154.164 247.570 C 154.550 247.891,154.811 247.906,154.988 247.619 C 155.131 247.389,155.068 247.200,154.848 247.200 C 154.629 247.200,154.483 246.712,154.525 246.116 C 154.614 244.825,153.337 244.295,152.970 245.470 M257.090 247.844 C 256.435 248.499,258.341 250.000,259.828 250.000 C 260.106 250.000,260.414 250.225,260.513 250.500 C 260.612 250.775,260.667 250.370,260.634 249.600 C 260.589 248.522,260.395 248.183,259.788 248.125 C 259.355 248.084,258.635 247.939,258.190 247.802 C 257.744 247.665,257.249 247.684,257.090 247.844 M262.128 248.811 C 260.896 249.451,260.880 249.491,261.620 250.124 C 262.051 250.493,262.281 251.045,262.148 251.392 C 261.891 252.061,262.978 254.000,263.609 254.000 C 263.824 254.000,264.000 253.730,264.000 253.400 C 264.000 253.070,263.809 252.800,263.576 252.800 C 263.343 252.800,263.266 252.617,263.404 252.393 C 263.542 252.170,263.787 252.068,263.948 252.168 C 264.108 252.267,264.282 251.730,264.333 250.974 C 264.383 250.218,264.245 249.600,264.025 249.600 C 263.805 249.600,263.722 249.348,263.840 249.040 C 264.172 248.174,263.524 248.088,262.128 248.811 M255.078 249.056 C 254.758 249.375,255.119 250.000,255.624 250.000 C 255.831 250.000,256.000 249.730,256.000 249.400 C 256.000 248.781,255.528 248.605,255.078 249.056 M162.546 253.100 C 162.516 254.145,162.576 254.775,162.679 254.500 C 162.782 254.225,163.302 254.000,163.833 254.000 C 165.018 254.000,165.146 252.837,164.069 251.862 C 162.912 250.815,162.604 251.065,162.546 253.100 M66.642 253.835 C 66.387 254.500,67.785 255.962,68.700 255.987 C 69.449 256.007,69.302 254.366,68.500 253.757 C 67.559 253.042,66.936 253.069,66.642 253.835 M168.650 260.580 C 168.039 261.512,168.035 261.708,168.600 262.801 C 169.210 263.979,170.497 264.413,170.995 263.608 C 171.148 263.361,171.522 263.394,172.009 263.698 C 172.612 264.075,172.887 264.073,173.270 263.690 C 173.657 263.303,173.620 263.200,173.094 263.200 C 172.728 263.200,172.244 262.856,172.019 262.435 C 171.564 261.586,170.810 261.562,169.840 262.367 C 169.058 263.016,168.972 262.354,169.690 261.205 C 170.496 259.914,169.484 259.307,168.650 260.580 M109.600 261.600 C 109.600 261.820,109.870 262.000,110.200 262.000 C 110.530 262.000,110.800 261.820,110.800 261.600 C 110.800 261.380,110.530 261.200,110.200 261.200 C 109.870 261.200,109.600 261.380,109.600 261.600 M72.800 262.371 C 72.800 262.943,73.057 263.200,73.629 263.200 C 74.202 263.200,74.417 262.985,74.325 262.505 C 74.124 261.462,72.800 261.346,72.800 262.371 M80.062 263.200 C 80.722 263.860,81.371 264.400,81.506 264.400 C 81.640 264.400,81.232 263.860,80.600 263.200 C 79.968 262.540,79.318 262.000,79.156 262.000 C 78.994 262.000,79.402 262.540,80.062 263.200 M101.800 265.253 C 99.783 266.763,98.981 267.616,100.662 266.465 C 101.356 265.989,102.114 265.600,102.348 265.600 C 102.581 265.600,102.965 265.240,103.200 264.800 C 103.734 263.803,103.738 263.802,101.800 265.253 M110.900 265.893 C 110.625 265.989,110.400 266.212,110.400 266.391 C 110.400 266.840,111.532 267.233,111.761 266.863 C 112.056 266.385,111.450 265.702,110.900 265.893 M179.600 267.600 C 179.600 267.820,179.870 268.000,180.200 268.000 C 180.530 268.000,180.800 267.820,180.800 267.600 C 180.800 267.380,180.530 267.200,180.200 267.200 C 179.870 267.200,179.600 267.380,179.600 267.600 M184.457 275.751 C 184.416 279.188,187.809 281.417,189.707 279.200 C 190.366 278.431,190.354 278.400,189.396 278.400 C 188.612 278.400,188.400 278.196,188.400 277.443 C 188.400 276.768,188.119 276.416,187.444 276.247 C 186.882 276.106,186.390 275.614,186.249 275.051 C 185.736 273.007,184.484 273.496,184.457 275.751 M192.646 280.976 C 192.749 281.243,192.649 281.944,192.426 282.533 C 191.981 283.702,192.566 285.600,193.372 285.600 C 194.464 285.600,195.105 283.605,194.465 282.193 C 193.908 280.966,192.205 279.826,192.646 280.976 M197.000 286.400 C 196.864 286.620,197.134 286.800,197.600 286.800 C 198.066 286.800,198.336 286.620,198.200 286.400 C 198.064 286.180,197.794 286.000,197.600 286.000 C 197.406 286.000,197.136 286.180,197.000 286.400 M208.178 293.635 C 208.031 293.874,208.110 294.270,208.355 294.515 C 208.682 294.842,208.800 294.726,208.800 294.080 C 208.800 293.114,208.592 292.965,208.178 293.635 M211.745 296.600 C 211.419 297.449,211.864 298.400,212.587 298.400 C 213.227 298.400,213.371 297.711,212.957 296.633 C 212.651 295.834,212.045 295.817,211.745 296.600 M334.000 299.776 C 334.000 300.093,334.180 300.464,334.400 300.600 C 334.620 300.736,334.800 300.477,334.800 300.024 C 334.800 299.571,334.620 299.200,334.400 299.200 C 334.180 299.200,334.000 299.459,334.000 299.776 M216.273 300.954 C 216.142 301.295,216.195 301.673,216.390 301.794 C 216.900 302.109,217.204 301.454,216.829 300.847 C 216.581 300.446,216.459 300.469,216.273 300.954 M329.900 302.832 C 328.973 303.372,329.016 303.874,330.037 304.420 C 331.071 304.973,332.800 304.589,332.800 303.806 C 332.800 302.716,331.087 302.141,329.900 302.832 M323.200 309.600 C 323.200 309.820,323.650 310.000,324.200 310.000 C 324.750 310.000,325.200 310.180,325.200 310.400 C 325.200 310.620,325.560 310.800,326.000 310.800 C 326.440 310.800,326.800 310.620,326.800 310.400 C 326.800 310.180,326.440 310.000,326.000 310.000 C 325.560 310.000,325.200 309.820,325.200 309.600 C 325.200 309.380,324.750 309.200,324.200 309.200 C 323.650 309.200,323.200 309.380,323.200 309.600 M226.900 310.693 C 226.625 310.789,226.400 311.051,226.400 311.276 C 226.400 311.501,226.664 311.584,226.987 311.460 C 227.310 311.336,227.681 311.407,227.811 311.617 C 228.122 312.121,228.800 312.109,228.800 311.600 C 228.800 311.380,228.545 311.200,228.233 311.200 C 227.922 311.200,227.607 311.047,227.533 310.860 C 227.460 310.673,227.175 310.598,226.900 310.693 M333.200 311.957 C 333.200 312.806,334.090 313.294,335.000 312.945 C 336.157 312.501,335.710 311.200,334.400 311.200 C 333.489 311.200,333.200 311.383,333.200 311.957 M230.539 314.186 C 230.683 314.560,230.800 315.031,230.800 315.233 C 230.800 315.435,231.070 315.600,231.400 315.600 C 232.299 315.600,232.122 314.494,231.139 313.968 C 230.396 313.570,230.314 313.600,230.539 314.186 M232.666 316.851 C 231.774 317.370,232.995 318.822,234.283 318.773 C 234.872 318.751,234.839 318.668,234.100 318.312 C 233.180 317.868,232.880 317.200,233.600 317.200 C 233.820 317.200,234.000 317.020,234.000 316.800 C 234.000 316.294,233.598 316.309,232.666 316.851 M317.884 318.650 C 317.187 319.346,317.636 320.049,318.700 319.927 C 319.355 319.851,319.800 319.557,319.800 319.200 C 319.800 318.571,318.372 318.161,317.884 318.650 M293.200 324.776 C 293.200 324.983,292.539 325.208,291.731 325.276 C 290.060 325.417,289.486 326.249,290.877 326.515 C 291.586 326.650,291.503 326.704,290.524 326.746 C 289.822 326.775,289.134 326.617,288.996 326.393 C 288.858 326.170,288.553 326.106,288.318 326.251 C 288.056 326.412,288.260 326.798,288.846 327.248 C 289.868 328.034,291.018 328.219,291.367 327.653 C 291.485 327.462,292.486 327.186,293.591 327.039 C 295.332 326.808,295.596 326.654,295.568 325.886 C 295.551 325.399,295.446 325.225,295.335 325.500 C 295.111 326.054,293.200 326.199,293.200 325.661 C 293.200 325.475,293.605 325.127,294.100 324.888 L 295.000 324.454 294.100 324.427 C 293.605 324.412,293.200 324.569,293.200 324.776 M241.036 325.142 C 240.920 325.330,241.250 325.883,241.770 326.372 C 242.956 327.486,243.567 326.767,242.415 325.615 C 241.506 324.706,241.341 324.649,241.036 325.142 M245.009 326.772 C 244.609 328.032,245.876 329.600,247.295 329.600 C 248.623 329.600,248.613 329.574,246.330 327.127 C 245.325 326.049,245.245 326.028,245.009 326.772 M278.271 329.477 C 277.861 329.585,277.632 329.907,277.748 330.209 C 277.862 330.506,277.740 330.827,277.478 330.924 C 277.112 331.059,277.117 331.224,277.498 331.628 C 278.307 332.486,280.200 331.623,280.200 330.396 C 280.200 329.389,279.630 329.118,278.271 329.477 M270.262 332.731 C 269.614 333.447,269.613 333.519,270.236 333.759 C 271.404 334.207,273.655 333.584,273.517 332.852 C 273.331 331.868,271.117 331.786,270.262 332.731 M248.624 334.386 C 247.270 335.137,247.103 335.757,248.212 335.916 C 249.165 336.053,252.000 334.948,252.000 334.440 C 252.000 333.792,249.761 333.756,248.624 334.386 M276.400 334.557 C 276.400 334.946,277.527 335.092,278.036 334.769 C 278.447 334.509,278.301 334.411,277.500 334.406 C 276.895 334.403,276.400 334.471,276.400 334.557 " stroke="none" fill="#f9f8ec" fill-rule="evenodd"></path><path id="path4" d="M259.805 67.776 C 258.478 68.149,258.779 68.203,262.322 68.229 C 264.536 68.245,266.584 68.435,266.873 68.651 C 267.519 69.132,269.600 70.038,269.600 69.837 C 269.600 68.567,262.389 67.050,259.805 67.776 M253.400 69.671 C 251.730 70.543,248.463 73.307,247.837 74.378 C 247.427 75.080,248.550 74.204,250.798 72.068 C 251.569 71.335,252.965 70.371,253.900 69.924 C 255.501 69.159,255.984 68.777,255.300 68.818 C 255.135 68.827,254.280 69.211,253.400 69.671 M244.422 77.207 C 243.003 78.510,241.934 79.667,242.044 79.777 C 242.154 79.888,243.400 78.813,244.811 77.389 C 248.006 74.165,247.824 74.081,244.422 77.207 M288.176 78.761 C 288.411 79.142,290.800 80.078,290.800 79.789 C 290.800 79.595,288.561 78.400,288.196 78.400 C 288.062 78.400,288.053 78.562,288.176 78.761 M239.148 82.106 C 238.570 82.603,236.500 84.481,234.548 86.278 C 232.597 88.076,230.224 90.234,229.276 91.073 C 226.059 93.922,215.803 103.300,215.191 103.951 C 214.857 104.308,213.147 105.860,211.391 107.399 C 209.636 108.938,207.553 110.828,206.763 111.599 C 205.972 112.370,204.622 113.627,203.763 114.392 C 202.903 115.158,200.130 117.677,197.600 119.989 C 195.070 122.302,192.190 124.935,191.200 125.839 C 189.406 127.479,177.172 138.611,173.429 142.010 C 172.345 142.995,170.095 145.085,168.429 146.655 C 166.763 148.224,164.590 150.180,163.600 151.001 C 162.610 151.821,160.523 153.686,158.961 155.146 C 157.400 156.606,155.510 158.348,154.761 159.018 C 154.013 159.688,152.229 161.308,150.797 162.618 C 149.365 163.928,147.307 165.772,146.222 166.716 C 145.138 167.660,144.599 168.304,145.025 168.147 C 145.717 167.893,154.608 159.965,161.600 153.369 C 163.030 152.020,165.010 150.215,166.000 149.358 C 166.990 148.501,167.890 147.699,168.000 147.575 C 168.110 147.451,171.170 144.673,174.800 141.400 C 178.430 138.127,182.664 134.268,184.210 132.825 C 188.087 129.202,190.673 126.834,195.800 122.213 C 198.220 120.031,202.265 116.345,204.790 114.023 C 207.314 111.700,210.374 108.904,211.590 107.809 C 212.805 106.714,215.160 104.554,216.822 103.009 C 221.329 98.821,223.148 97.158,225.800 94.804 C 227.120 93.632,230.180 90.843,232.600 88.606 C 235.020 86.369,237.810 83.792,238.800 82.879 C 240.691 81.136,240.954 80.553,239.148 82.106 M327.200 98.122 C 327.200 98.192,327.763 98.779,328.450 99.425 C 329.325 100.248,329.547 100.348,329.191 99.759 C 328.751 99.033,327.200 97.757,327.200 98.122 M90.800 131.410 C 91.130 131.475,92.700 131.740,94.290 131.998 C 96.011 132.279,97.629 132.811,98.290 133.315 L 99.400 134.160 98.634 133.276 C 97.683 132.178,94.451 131.185,92.027 131.246 C 91.022 131.272,90.470 131.346,90.800 131.410 M100.785 135.179 C 101.547 135.851,102.324 136.400,102.513 136.400 C 102.996 136.400,102.023 135.523,100.600 134.674 C 99.466 133.998,99.476 134.026,100.785 135.179 M81.978 136.700 L 80.600 138.200 82.100 136.822 C 83.496 135.538,83.784 135.200,83.478 135.200 C 83.412 135.200,82.737 135.875,81.978 136.700 M103.394 137.191 C 103.530 137.410,104.469 138.160,105.482 138.857 C 106.495 139.553,107.201 139.925,107.051 139.683 C 106.902 139.441,105.962 138.691,104.963 138.017 C 103.965 137.343,103.259 136.971,103.394 137.191 M77.198 140.908 C 75.987 142.059,73.682 144.170,72.075 145.600 C 69.464 147.924,67.192 150.833,67.205 151.835 C 67.207 152.036,67.638 151.451,68.162 150.535 C 68.686 149.618,70.169 147.894,71.457 146.703 C 73.410 144.898,78.373 140.387,79.780 139.137 C 80.020 138.924,80.020 138.803,79.780 138.808 C 79.571 138.812,78.409 139.757,77.198 140.908 M108.102 140.655 C 108.827 141.494,112.400 144.178,112.400 143.884 C 112.400 143.793,111.275 142.846,109.900 141.780 C 108.525 140.715,107.716 140.208,108.102 140.655 M262.643 142.106 C 261.126 143.258,259.460 144.486,258.940 144.836 C 258.421 145.186,257.499 145.906,256.892 146.436 C 256.285 146.966,255.105 147.913,254.268 148.540 C 253.432 149.168,252.841 149.774,252.954 149.888 C 253.068 150.002,254.115 149.289,255.281 148.304 C 256.446 147.318,259.145 145.225,261.279 143.652 C 264.603 141.201,266.023 139.982,265.524 140.006 C 265.456 140.009,264.159 140.954,262.643 142.106 M267.395 199.800 C 267.395 232.360,267.442 245.621,267.500 229.269 C 267.558 212.916,267.558 186.276,267.500 170.069 C 267.442 153.861,267.395 167.240,267.395 199.800 M114.400 145.292 C 114.400 145.509,118.694 148.892,119.600 149.389 C 120.442 149.850,119.784 149.258,117.400 147.408 C 114.460 145.127,114.400 145.085,114.400 145.292 M248.937 152.523 C 248.243 153.005,245.925 154.750,243.786 156.400 C 241.648 158.050,239.336 159.797,238.649 160.282 C 237.962 160.767,237.165 161.368,236.879 161.617 C 236.592 161.867,234.432 163.503,232.079 165.253 C 229.725 167.004,227.499 168.684,227.132 168.987 C 226.764 169.290,226.103 169.731,225.663 169.966 C 225.223 170.202,224.623 170.624,224.331 170.903 C 224.039 171.183,222.991 172.039,222.001 172.806 C 221.012 173.573,219.932 174.422,219.601 174.693 C 219.271 174.964,217.560 176.262,215.800 177.578 C 214.040 178.895,212.420 180.121,212.200 180.303 C 211.980 180.486,210.732 181.422,209.426 182.385 C 206.348 184.654,205.757 185.131,204.034 186.738 L 202.600 188.076 204.200 186.940 C 205.080 186.316,205.890 185.710,206.000 185.594 C 206.110 185.478,207.910 184.131,210.000 182.600 C 212.090 181.069,213.890 179.718,214.000 179.598 C 214.172 179.410,215.011 178.750,218.399 176.136 C 218.729 175.881,220.980 174.181,223.400 172.359 C 244.238 156.670,250.400 151.963,250.400 151.736 C 250.400 151.525,250.286 151.586,248.937 152.523 M128.400 156.102 C 128.400 156.183,128.940 156.649,129.600 157.137 C 130.260 157.625,130.800 157.877,130.800 157.698 C 130.800 157.519,130.260 157.054,129.600 156.664 C 128.940 156.274,128.400 156.021,128.400 156.102 M131.834 158.837 C 132.250 159.297,132.953 159.861,133.396 160.089 C 133.970 160.385,133.864 160.145,133.025 159.252 C 131.736 157.878,130.611 157.487,131.834 158.837 M68.000 161.220 C 68.000 161.475,74.403 167.579,80.358 173.000 C 81.566 174.100,83.735 176.104,85.177 177.453 C 88.590 180.644,91.273 182.759,88.600 180.151 C 86.686 178.284,80.599 172.669,75.432 168.005 C 74.094 166.798,71.875 164.713,70.500 163.372 C 69.125 162.031,68.000 161.062,68.000 161.220 M135.964 161.735 C 136.549 162.463,138.800 164.177,138.800 163.894 C 138.800 163.806,138.035 163.126,137.100 162.383 C 136.165 161.640,135.654 161.348,135.964 161.735 M140.809 165.473 C 140.813 165.653,141.578 166.333,142.509 166.984 C 143.439 167.635,143.946 167.852,143.636 167.465 C 142.884 166.529,140.798 165.059,140.809 165.473 M96.635 187.900 C 99.187 190.265,101.456 192.266,101.677 192.347 C 101.899 192.427,100.848 191.347,99.341 189.947 C 97.835 188.546,95.702 186.549,94.601 185.508 C 93.500 184.467,92.464 183.612,92.298 183.608 C 92.132 183.604,94.084 185.535,96.635 187.900 M199.138 190.307 C 192.011 195.645,188.502 198.397,187.968 199.066 C 187.491 199.663,187.571 199.651,188.460 198.989 C 191.236 196.924,200.335 189.922,201.400 189.032 C 203.539 187.244,202.279 187.954,199.138 190.307 M102.400 192.925 C 102.400 192.994,102.985 193.579,103.700 194.225 L 105.000 195.400 103.825 194.100 C 102.730 192.888,102.400 192.616,102.400 192.925 M108.138 198.513 C 109.710 199.864,109.067 200.985,104.526 204.812 C 102.734 206.322,95.717 212.737,87.219 220.633 C 85.778 221.972,83.895 223.682,83.032 224.433 C 82.170 225.185,81.000 226.255,80.432 226.810 C 79.865 227.366,77.796 229.256,75.835 231.010 C 67.319 238.629,66.597 239.692,66.613 244.600 C 66.626 248.446,67.799 251.002,70.684 253.469 C 71.668 254.311,74.212 256.645,76.337 258.655 C 78.462 260.665,80.938 262.924,81.840 263.674 C 82.743 264.424,84.173 265.690,85.018 266.488 C 88.057 269.355,95.768 270.015,98.000 267.600 C 98.110 267.481,99.909 266.127,101.998 264.592 C 104.086 263.056,106.066 261.583,106.398 261.319 C 107.280 260.614,111.946 257.016,113.800 255.612 C 114.680 254.945,118.757 251.835,122.859 248.700 C 130.751 242.669,135.460 239.125,140.100 235.722 C 141.659 234.579,143.309 233.257,143.767 232.785 L 144.600 231.926 143.400 232.663 C 142.740 233.068,140.785 234.480,139.056 235.800 C 137.327 237.120,135.257 238.650,134.456 239.200 C 133.655 239.750,132.640 240.535,132.200 240.944 C 131.760 241.353,130.410 242.424,129.200 243.324 C 127.990 244.224,126.782 245.149,126.516 245.380 C 126.251 245.611,125.261 246.379,124.316 247.087 C 123.372 247.794,120.292 250.102,117.472 252.215 C 114.652 254.327,112.042 256.298,111.672 256.594 C 107.658 259.812,106.401 260.778,105.387 261.429 C 104.734 261.847,103.972 262.407,103.693 262.673 C 103.414 262.939,102.469 263.559,101.593 264.052 C 100.717 264.544,100.000 265.070,100.000 265.219 C 100.000 265.893,96.758 267.596,94.341 268.191 C 89.919 269.280,87.638 268.348,82.111 263.188 C 80.586 261.765,77.939 259.340,76.230 257.800 C 67.845 250.248,67.076 249.137,67.102 244.600 C 67.125 240.442,67.886 238.975,71.908 235.323 C 73.799 233.605,75.835 231.750,76.432 231.200 C 77.028 230.650,78.300 229.489,79.258 228.619 C 80.216 227.750,83.340 224.867,86.200 222.213 C 89.060 219.558,93.020 215.951,95.000 214.197 C 96.980 212.442,99.860 209.820,101.400 208.370 C 110.662 199.649,110.363 200.056,108.674 198.470 C 108.165 197.991,107.597 197.600,107.412 197.600 C 107.227 197.600,107.554 198.011,108.138 198.513 M187.200 200.396 C 187.200 200.581,187.920 201.303,188.800 202.000 C 189.680 202.697,190.400 203.192,190.400 203.099 C 190.400 203.007,189.680 202.285,188.800 201.495 C 187.920 200.705,187.200 200.210,187.200 200.396 M192.770 204.932 C 193.789 206.054,194.008 206.193,193.987 205.700 C 193.981 205.535,193.486 205.054,192.887 204.632 L 191.800 203.864 192.770 204.932 M194.400 206.146 C 194.400 206.256,194.940 206.730,195.600 207.200 C 196.260 207.670,196.800 207.964,196.800 207.854 C 196.800 207.744,196.260 207.270,195.600 206.800 C 194.940 206.330,194.400 206.036,194.400 206.146 M199.167 209.745 C 199.700 210.401,201.200 211.393,201.200 211.089 C 201.200 211.013,200.615 210.522,199.900 209.999 C 199.096 209.410,198.816 209.313,199.167 209.745 M204.000 213.306 C 204.000 213.394,204.765 214.074,205.700 214.817 C 206.635 215.560,207.146 215.852,206.836 215.465 C 206.251 214.737,204.000 213.023,204.000 213.306 M207.600 216.122 C 207.600 216.275,213.724 221.027,214.800 221.709 C 215.130 221.918,214.743 221.484,213.941 220.745 C 212.480 219.399,207.600 215.841,207.600 216.122 M216.196 222.761 C 216.633 223.263,217.330 223.855,217.744 224.077 C 218.917 224.705,218.189 223.785,216.688 222.743 L 215.400 221.849 216.196 222.761 M219.200 224.918 C 219.200 225.106,223.737 228.732,224.975 229.534 C 225.429 229.828,224.810 229.167,223.600 228.065 C 221.581 226.227,219.200 224.524,219.200 224.918 M229.030 232.589 C 230.334 233.573,231.571 234.383,231.780 234.389 C 231.989 234.395,231.047 233.590,229.686 232.600 C 226.477 230.265,225.941 230.256,229.030 232.589 M144.833 232.100 C 144.925 232.155,145.495 232.636,146.100 233.170 C 146.705 233.703,147.200 234.025,147.200 233.885 C 147.200 233.496,145.500 232.000,145.058 232.000 C 144.843 232.000,144.742 232.045,144.833 232.100 M149.987 236.410 C 152.936 239.356,159.413 245.200,159.729 245.200 C 159.960 245.200,157.707 243.072,152.600 238.464 C 148.623 234.876,147.816 234.242,149.987 236.410 M235.200 237.176 C 236.680 238.509,239.405 240.400,239.846 240.400 C 240.155 240.400,239.021 239.526,236.000 237.437 C 234.034 236.078,233.949 236.050,235.200 237.176 M240.497 241.033 C 240.627 241.244,241.591 242.032,242.637 242.784 C 243.684 243.535,244.433 243.978,244.303 243.767 C 244.173 243.556,243.209 242.768,242.163 242.016 C 241.116 241.265,240.367 240.822,240.497 241.033 M244.921 244.271 C 245.080 244.530,245.967 245.340,246.890 246.071 C 247.814 246.802,248.439 247.188,248.279 246.929 C 248.120 246.670,247.233 245.860,246.310 245.129 C 245.386 244.398,244.761 244.012,244.921 244.271 M160.000 245.730 C 160.000 245.933,169.565 254.400,169.795 254.400 C 169.908 254.400,167.840 252.420,165.200 250.000 C 160.863 246.025,160.000 245.316,160.000 245.730 M252.620 250.334 C 252.829 250.517,254.980 252.175,257.400 254.017 C 259.820 255.860,261.890 257.474,262.000 257.605 C 262.110 257.735,262.920 258.267,263.800 258.785 C 265.316 259.678,265.353 259.682,264.517 258.864 C 264.031 258.389,263.511 258.000,263.362 258.000 C 263.212 258.000,262.170 257.273,261.045 256.384 C 255.165 251.736,252.859 250.000,252.565 250.000 C 252.386 250.000,252.411 250.150,252.620 250.334 M173.800 258.253 C 175.120 259.565,176.271 260.589,176.357 260.529 C 176.628 260.340,175.557 259.237,173.441 257.522 L 171.400 255.869 173.800 258.253 M178.181 262.323 C 179.051 263.245,179.810 264.000,179.869 264.000 C 180.278 264.000,179.287 262.805,178.065 261.823 L 176.600 260.646 178.181 262.323 M182.185 265.921 C 184.068 267.893,184.400 268.184,184.400 267.861 C 184.400 267.645,181.829 265.066,180.971 264.421 C 180.547 264.103,181.093 264.778,182.185 265.921 M186.807 270.041 C 188.021 271.228,190.811 273.833,193.007 275.828 C 195.203 277.824,198.913 281.199,201.251 283.328 C 203.589 285.458,205.600 287.200,205.721 287.200 C 205.940 287.200,203.336 284.709,199.215 280.978 C 198.013 279.890,195.949 278.010,194.629 276.800 C 193.309 275.590,192.022 274.420,191.770 274.200 C 191.518 273.980,190.611 273.162,189.756 272.383 C 186.179 269.124,184.539 267.822,186.807 270.041 M207.008 288.635 C 209.327 290.886,214.323 295.200,214.612 295.200 C 214.773 295.200,214.124 294.525,213.172 293.700 C 212.219 292.875,210.379 291.210,209.083 290.000 C 206.656 287.733,204.868 286.556,207.008 288.635 M332.893 290.000 C 332.893 290.770,332.975 291.085,333.076 290.700 C 333.176 290.315,333.176 289.685,333.076 289.300 C 332.975 288.915,332.893 289.230,332.893 290.000 M218.200 298.800 C 219.283 299.900,220.260 300.800,220.370 300.800 C 220.480 300.800,219.683 299.900,218.600 298.800 C 217.517 297.700,216.540 296.800,216.430 296.800 C 216.320 296.800,217.117 297.700,218.200 298.800 M328.582 300.515 C 327.589 301.668,327.559 302.120,328.535 301.230 C 329.121 300.697,329.600 300.202,329.600 300.130 C 329.600 299.828,328.969 300.067,328.582 300.515 M220.800 300.964 C 220.800 301.238,225.250 305.475,227.800 307.629 C 228.686 308.378,229.043 308.563,228.600 308.045 C 227.456 306.708,220.800 300.664,220.800 300.964 M237.400 316.228 C 238.280 317.093,239.360 318.054,239.800 318.365 C 240.786 319.061,238.154 316.495,236.788 315.428 C 236.245 315.004,236.520 315.364,237.400 316.228 M299.800 315.790 C 298.920 316.332,298.301 316.781,298.425 316.788 C 298.795 316.808,302.000 315.197,302.000 314.991 C 302.000 314.598,301.353 314.833,299.800 315.790 M295.400 318.000 C 294.331 318.495,294.066 318.748,294.600 318.761 C 295.040 318.773,295.850 318.430,296.400 318.000 C 297.620 317.046,297.461 317.046,295.400 318.000 M289.285 320.871 C 288.342 321.329,287.649 321.782,287.746 321.879 C 287.945 322.079,291.200 320.489,291.200 320.192 C 291.200 319.937,291.247 319.920,289.285 320.871 M244.800 322.925 C 244.800 322.994,245.385 323.579,246.100 324.225 L 247.400 325.400 246.225 324.100 C 245.130 322.888,244.800 322.616,244.800 322.925 M249.000 326.951 C 251.421 329.157,253.272 330.395,251.200 328.423 C 250.210 327.481,248.950 326.436,248.400 326.101 C 247.850 325.767,248.120 326.149,249.000 326.951 M255.424 331.387 C 255.851 331.710,256.684 331.980,257.276 331.987 C 257.868 331.994,258.464 332.180,258.600 332.400 C 258.736 332.620,259.872 332.783,261.124 332.762 C 263.386 332.724,263.378 332.720,259.727 332.062 C 257.707 331.698,255.922 331.265,255.761 331.100 C 255.599 330.935,255.282 330.800,255.057 330.800 C 254.831 330.800,254.996 331.064,255.424 331.387 M267.200 331.433 C 266.577 331.779,266.435 331.990,266.824 331.994 C 267.166 331.997,267.796 331.736,268.224 331.413 C 269.194 330.678,268.537 330.692,267.200 331.433 M263.881 332.441 C 264.198 332.758,264.532 332.761,265.061 332.454 C 265.709 332.077,265.654 332.023,264.620 332.012 C 263.759 332.003,263.560 332.120,263.881 332.441 " stroke="none" fill="#8cacbc" fill-rule="evenodd"></path></g></svg>