<svg id="svg" version="1.1" xmlns="http://www.w3.org/2000/svg" xmlns:xlink="http://www.w3.org/1999/xlink" width="400" height="400" viewBox="0, 0, 400,400"><g id="svgg"><path id="path0" d="M57.240 0.684 C 55.640 4.810,0.218 157.052,0.097 157.656 C -0.056 158.414,1.306 158.939,18.227 164.651 C 28.290 168.047,36.998 171.018,37.577 171.253 L 38.631 171.680 21.476 203.516 L 4.322 235.352 5.188 236.172 C 5.665 236.624,18.749 247.046,34.264 259.332 C 49.778 271.618,62.559 281.811,62.665 281.982 C 62.770 282.153,61.972 285.178,60.891 288.705 C 59.810 292.232,57.096 301.533,54.860 309.375 C 52.624 317.217,50.592 324.336,50.344 325.195 C 49.766 327.206,49.421 328.440,48.438 332.031 C 47.996 333.643,47.448 335.545,47.219 336.260 C 46.990 336.974,46.907 337.663,47.034 337.790 C 47.162 337.917,47.266 337.838,47.266 337.614 C 47.266 337.390,54.209 333.011,62.695 327.883 L 78.125 318.558 78.125 197.951 C 78.125 131.617,78.169 77.314,78.223 77.278 C 78.276 77.241,114.021 77.110,157.656 76.985 L 236.991 76.758 231.874 70.807 C 229.060 67.534,226.230 64.196,225.586 63.389 C 216.488 52.007,183.479 15.286,182.157 15.077 C 179.003 14.578,59.426 0.000,58.492 0.000 C 57.914 0.000,57.396 0.283,57.240 0.684 " stroke="none" fill="#e04462" fill-rule="evenodd"></path><path id="path1" d="M251.032 35.775 L 226.870 64.900 227.626 65.751 C 228.042 66.219,230.381 68.887,232.822 71.680 L 237.261 76.758 281.228 76.953 L 325.195 77.148 325.296 98.560 L 325.397 119.972 326.273 119.700 C 326.754 119.551,341.150 114.733,358.263 108.995 L 389.377 98.561 391.432 100.129 C 395.905 103.539,392.569 100.515,386.219 95.403 C 382.519 92.424,377.031 87.994,374.023 85.559 C 361.810 75.670,338.795 57.183,335.484 54.601 C 333.907 53.372,332.147 51.965,331.573 51.476 C 330.374 50.455,329.094 49.437,326.465 47.416 C 325.444 46.631,324.609 45.837,324.609 45.651 C 324.609 45.465,324.427 45.313,324.204 45.312 C 323.679 45.312,318.750 41.366,318.750 40.946 C 318.750 40.769,318.530 40.623,318.262 40.621 C 317.993 40.619,316.918 39.828,315.872 38.863 C 314.826 37.899,313.898 37.109,313.809 37.109 C 313.427 37.109,304.297 29.571,304.297 29.255 C 304.297 29.063,304.162 28.950,303.997 29.004 C 303.832 29.058,297.414 24.048,289.734 17.871 C 282.054 11.694,275.641 6.643,275.483 6.645 C 275.325 6.648,264.322 19.756,251.032 35.775 M393.750 101.688 C 393.750 101.921,398.857 106.044,399.609 106.417 C 400.279 106.750,399.486 106.062,396.121 103.392 C 394.817 102.357,393.750 101.590,393.750 101.688 M385.938 123.532 C 378.311 132.604,361.611 152.422,348.828 167.572 L 325.586 195.117 325.391 259.570 L 325.195 324.023 283.499 324.219 L 241.802 324.414 226.333 352.344 C 208.268 384.962,209.820 381.784,211.513 382.692 C 212.238 383.080,214.032 384.205,215.498 385.190 C 216.964 386.176,219.395 387.778,220.898 388.750 C 235.053 397.905,238.424 399.998,238.992 399.987 C 239.353 399.980,274.101 386.137,316.209 369.224 L 392.769 338.475 396.371 226.952 C 398.351 165.615,399.934 113.541,399.888 111.233 L 399.805 107.037 385.938 123.532 " stroke="none" fill="#117ceb" fill-rule="evenodd"></path><path id="path2" d="M116.797 118.750 L 116.797 128.125 124.219 128.125 L 131.641 128.125 131.641 160.352 L 131.641 192.578 124.219 192.578 L 116.797 192.578 116.797 201.953 L 116.797 211.328 142.383 211.328 L 167.969 211.328 167.969 201.953 L 167.969 192.578 160.742 192.578 L 153.516 192.578 153.516 160.352 L 153.516 128.125 160.742 128.125 L 167.969 128.125 167.969 118.750 L 167.969 109.375 142.383 109.375 L 116.797 109.375 116.797 118.750 M230.363 144.824 C 230.216 181.969,230.232 181.612,228.447 185.410 C 224.021 194.825,209.146 193.882,199.854 183.597 C 199.076 182.736,198.360 182.031,198.262 182.031 C 197.858 182.031,184.375 197.408,184.375 197.868 C 184.375 198.671,190.526 204.173,194.051 206.522 C 213.549 219.522,242.552 212.492,250.371 192.872 C 252.958 186.379,252.865 187.997,253.020 146.777 L 253.161 109.375 241.832 109.375 L 230.503 109.375 230.363 144.824 M101.172 285.352 L 101.172 292.969 147.461 292.969 L 193.750 292.969 193.750 285.352 L 193.750 277.734 147.461 277.734 L 101.172 277.734 101.172 285.352 " stroke="none" fill="#fbfbfb" fill-rule="evenodd"></path><path id="path3" d="M251.728 34.454 C 238.854 49.966,227.895 63.194,227.374 63.849 L 226.428 65.039 227.428 64.063 C 227.979 63.525,238.835 50.518,251.555 35.156 C 264.274 19.795,274.900 7.070,275.167 6.878 C 275.505 6.636,278.428 8.768,284.702 13.833 C 289.679 17.850,293.750 21.048,293.750 20.941 C 293.750 20.635,275.854 6.250,275.474 6.250 C 275.288 6.250,264.602 18.942,251.728 34.454 M300.000 25.904 C 300.000 26.011,300.879 26.835,301.953 27.734 C 303.027 28.634,303.906 29.282,303.906 29.174 C 303.906 29.067,303.027 28.243,301.953 27.344 C 300.879 26.444,300.000 25.796,300.000 25.904 M281.250 77.245 L 325.000 77.347 325.000 200.536 L 325.000 323.724 201.989 324.017 C 134.332 324.177,78.785 324.190,78.551 324.045 C 78.315 323.899,78.125 322.661,78.125 321.266 C 78.125 319.882,78.050 318.750,77.958 318.750 C 76.643 318.750,46.127 338.054,46.637 338.564 C 46.764 338.691,46.704 338.993,46.504 339.234 C 46.304 339.475,46.047 340.107,45.934 340.637 C 45.821 341.168,42.578 352.588,38.727 366.016 C 34.876 379.443,31.762 390.471,31.807 390.521 C 31.852 390.572,33.020 390.183,34.402 389.658 C 49.740 383.827,154.501 346.172,154.832 346.371 C 155.075 346.517,167.277 354.337,181.947 363.748 C 196.618 373.159,208.889 380.859,209.217 380.859 C 209.544 380.859,209.715 381.015,209.598 381.206 C 209.480 381.396,209.720 381.640,210.131 381.747 C 210.623 381.876,210.815 381.775,210.691 381.454 C 210.588 381.185,217.546 368.241,226.153 352.690 L 241.803 324.414 283.499 324.219 L 325.195 324.023 325.391 259.570 L 325.586 195.117 344.547 172.656 C 354.975 160.303,371.481 140.703,381.227 129.102 C 390.973 117.500,399.184 107.730,399.474 107.391 C 399.932 106.854,399.784 106.617,398.340 105.574 C 397.427 104.914,395.933 103.681,395.020 102.833 C 394.106 101.985,393.359 101.361,393.359 101.445 C 393.359 101.529,392.463 100.915,391.368 100.080 L 389.377 98.561 358.263 108.995 C 341.150 114.733,326.754 119.551,326.273 119.700 L 325.397 119.972 325.296 98.560 L 325.195 77.148 281.348 77.146 L 237.500 77.143 281.250 77.245 M116.497 118.652 L 116.587 128.320 116.699 118.850 L 116.811 109.381 142.487 109.277 L 168.164 109.174 142.285 109.079 L 116.406 108.984 116.497 118.652 M230.258 109.473 C 230.156 109.741,230.118 125.166,230.175 143.750 L 230.278 177.539 230.373 143.463 L 230.469 109.387 241.895 109.277 L 253.320 109.167 241.882 109.076 C 233.023 109.005,230.402 109.094,230.258 109.473 M131.436 160.352 C 131.436 178.184,131.484 185.536,131.543 176.689 C 131.601 167.843,131.601 153.253,131.543 144.267 C 131.484 135.282,131.436 142.520,131.436 160.352 M153.702 160.352 C 153.702 178.184,153.750 185.536,153.808 176.689 C 153.867 167.843,153.867 153.253,153.808 144.267 C 153.750 135.282,153.702 142.520,153.702 160.352 M200.374 184.082 C 201.332 185.103,202.167 185.938,202.230 185.938 C 202.523 185.938,202.213 185.587,200.488 183.968 L 198.633 182.227 200.374 184.082 M215.918 192.073 C 216.401 192.166,217.192 192.166,217.676 192.073 C 218.159 191.979,217.764 191.903,216.797 191.903 C 215.830 191.903,215.435 191.979,215.918 192.073 M116.575 201.953 C 116.575 207.217,116.630 209.370,116.698 206.738 C 116.766 204.106,116.766 199.800,116.698 197.168 C 116.630 194.536,116.575 196.689,116.575 201.953 M243.139 203.613 L 241.992 204.883 243.262 203.736 C 243.960 203.104,244.531 202.533,244.531 202.466 C 244.531 202.164,244.209 202.430,243.139 203.613 M215.344 213.178 C 216.371 213.259,217.953 213.258,218.859 213.176 C 219.766 213.094,218.926 213.028,216.992 213.029 C 215.059 213.030,214.317 213.097,215.344 213.178 M124.347 293.262 C 137.200 293.319,158.118 293.319,170.831 293.262 C 183.544 293.205,173.027 293.158,147.461 293.158 C 121.895 293.158,111.493 293.205,124.347 293.262 " stroke="none" fill="#4169d2" fill-rule="evenodd"></path><path id="path4" d="M85.059 77.245 L 78.125 77.362 78.125 200.572 C 78.125 289.114,78.245 323.856,78.551 324.045 C 78.785 324.190,134.332 324.177,201.989 324.017 L 325.000 323.724 325.000 200.599 L 325.000 77.473 259.310 77.213 C 197.585 76.969,100.482 76.987,85.059 77.245 M167.969 118.555 L 167.969 128.125 160.938 128.125 L 153.906 128.125 153.906 160.352 L 153.906 192.578 160.938 192.578 L 167.969 192.578 167.969 201.953 L 167.969 211.328 142.188 211.328 L 116.406 211.328 116.406 201.953 L 116.406 192.578 123.828 192.578 L 131.250 192.578 131.250 160.352 L 131.250 128.125 123.828 128.125 L 116.406 128.125 116.406 118.555 L 116.406 108.984 142.188 108.984 L 167.969 108.984 167.969 118.555 M253.123 145.410 C 253.122 184.057,253.052 185.756,251.239 191.017 C 246.447 204.931,233.563 213.130,216.602 213.060 C 204.569 213.010,195.957 209.507,187.337 201.156 L 183.855 197.781 191.048 189.724 L 198.242 181.667 200.977 184.352 C 209.255 192.484,219.548 194.264,225.922 188.668 C 230.106 184.994,230.066 185.422,230.072 144.499 C 230.076 125.252,230.195 109.388,230.339 109.245 C 230.482 109.102,235.667 108.984,241.862 108.984 L 253.125 108.984 253.123 145.410 M193.750 285.547 L 193.750 293.359 147.461 293.359 L 101.172 293.359 101.172 285.547 L 101.172 277.734 147.461 277.734 L 193.750 277.734 193.750 285.547 " stroke="none" fill="#040404" fill-rule="evenodd"></path></g></svg>