<svg id="svg" version="1.1" xmlns="http://www.w3.org/2000/svg" xmlns:xlink="http://www.w3.org/1999/xlink" width="400" height="266.6666666666667" viewBox="0, 0, 400,266.6666666666667"><g id="svgg"><path id="path0" d="M242.417 53.992 C 237.999 54.963,236.469 60.436,239.278 65.221 C 239.538 65.663,239.825 66.151,239.917 66.307 C 240.055 66.541,240.533 67.197,241.211 68.083 C 241.281 68.175,241.520 68.455,241.742 68.705 C 241.963 68.955,242.325 69.405,242.546 69.705 C 246.852 75.555,246.975 75.758,247.611 78.048 C 248.087 79.767,248.569 81.240,249.339 83.333 C 249.625 84.112,249.960 85.050,250.081 85.417 C 250.203 85.783,250.468 86.496,250.669 87.000 C 250.870 87.504,251.133 88.179,251.254 88.500 C 251.551 89.291,253.326 92.721,253.972 93.750 C 254.259 94.208,254.565 94.742,254.651 94.936 C 254.738 95.130,255.270 95.759,255.833 96.333 C 257.033 97.555,257.280 98.052,256.944 98.565 C 256.666 98.989,256.165 100.667,255.669 102.833 C 255.470 103.704,255.165 104.904,254.991 105.500 C 253.594 110.289,253.544 118.224,254.879 123.333 C 254.987 123.746,255.077 124.133,255.079 124.194 C 255.082 124.256,255.140 124.362,255.208 124.431 C 255.277 124.499,255.333 124.698,255.333 124.872 C 255.333 125.274,256.216 127.496,256.866 128.731 C 259.175 133.118,261.582 135.236,264.250 135.229 C 267.396 135.220,268.847 133.184,269.344 128.083 C 269.424 127.258,269.605 126.148,269.745 125.617 C 269.885 125.085,270.000 124.392,270.000 124.075 C 270.000 123.091,270.226 123.405,271.833 126.625 C 273.568 130.101,273.572 130.107,275.355 132.331 C 276.663 133.963,280.843 138.167,281.157 138.167 C 281.254 138.167,281.333 138.227,281.333 138.301 C 281.333 138.374,281.873 138.843,282.533 139.342 C 283.192 139.842,284.469 140.962,285.370 141.833 C 287.394 143.791,287.266 143.682,288.184 144.220 C 288.999 144.698,289.333 144.775,289.333 144.487 C 289.333 144.275,288.423 143.333,288.218 143.333 C 288.083 143.333,285.906 141.128,284.667 139.738 C 284.347 139.378,283.732 138.596,283.300 138.000 C 282.869 137.404,282.454 136.842,282.380 136.750 C 282.211 136.542,280.976 134.729,280.750 134.358 C 280.658 134.207,280.315 133.671,279.987 133.167 C 279.082 131.775,278.778 131.289,278.523 130.833 C 278.058 130.002,277.906 129.743,277.643 129.333 C 277.495 129.104,277.129 128.467,276.829 127.917 C 276.529 127.367,275.994 126.392,275.641 125.750 C 275.023 124.629,273.654 121.857,272.986 120.375 C 271.734 117.596,271.229 116.355,270.903 115.250 C 270.741 114.700,270.445 114.075,270.246 113.862 L 269.883 113.474 268.722 114.945 C 267.476 116.524,266.856 117.379,266.571 117.914 C 266.473 118.099,266.309 118.400,266.208 118.583 C 265.342 120.147,263.977 127.217,263.996 130.042 C 264.001 130.785,263.512 130.903,262.788 130.333 C 262.555 130.150,262.301 129.997,262.224 129.993 C 261.665 129.965,260.139 127.097,259.035 124.000 C 257.011 118.322,257.141 109.210,259.326 103.667 C 261.533 98.066,261.525 96.613,259.276 94.268 C 258.670 93.637,257.824 92.587,257.396 91.935 C 256.968 91.283,256.479 90.547,256.309 90.298 C 256.139 90.050,255.998 89.750,255.996 89.632 C 255.994 89.513,255.846 89.229,255.667 89.000 C 255.487 88.771,255.339 88.486,255.337 88.367 C 255.335 88.248,255.206 87.910,255.050 87.617 C 254.733 87.019,254.371 86.050,253.732 84.083 C 253.494 83.350,253.164 82.375,252.998 81.917 C 252.833 81.458,252.662 80.896,252.618 80.667 C 252.575 80.438,252.407 79.875,252.245 79.417 C 251.483 77.262,251.330 76.840,250.908 75.750 C 250.177 73.857,249.072 71.994,247.001 69.167 C 246.631 68.662,246.199 68.065,246.040 67.839 C 245.880 67.614,245.573 67.239,245.357 67.006 C 242.874 64.331,241.226 60.828,241.820 59.485 C 242.705 57.484,244.469 57.585,249.583 59.928 C 250.225 60.222,251.012 60.581,251.333 60.725 C 252.191 61.110,253.811 62.021,254.648 62.588 C 255.051 62.860,255.519 63.157,255.690 63.248 C 255.860 63.338,256.000 63.459,256.000 63.515 C 256.000 63.694,257.893 65.106,258.500 65.380 C 259.099 65.650,259.662 65.710,264.250 65.989 C 266.892 66.150,268.715 66.505,269.811 67.072 C 270.089 67.216,270.414 67.336,270.533 67.339 C 270.653 67.342,271.050 67.490,271.417 67.667 C 271.783 67.844,272.141 67.991,272.212 67.994 C 272.517 68.008,277.026 70.347,278.167 71.083 C 284.217 74.990,286.750 76.986,290.886 81.107 C 292.538 82.754,293.311 83.580,294.917 85.417 C 295.157 85.692,295.587 86.235,295.872 86.625 C 296.157 87.015,296.452 87.333,296.528 87.333 C 296.604 87.333,296.667 87.429,296.667 87.546 C 296.667 87.663,296.798 87.879,296.958 88.026 C 297.119 88.172,297.512 88.673,297.833 89.138 C 298.154 89.604,298.473 89.988,298.542 89.992 C 298.610 89.996,298.667 90.078,298.667 90.174 C 298.667 90.269,298.967 90.754,299.333 91.250 C 299.700 91.746,300.000 92.188,300.000 92.231 C 300.000 92.274,300.290 92.746,300.644 93.280 C 301.455 94.503,304.000 98.970,304.000 99.171 C 304.000 99.254,304.110 99.568,304.244 99.869 C 304.378 100.170,304.683 100.942,304.921 101.583 C 305.652 103.555,306.365 105.165,308.168 108.917 C 309.110 110.877,310.082 112.957,310.817 114.583 C 311.106 115.225,311.498 116.087,311.687 116.500 C 311.876 116.912,312.166 117.550,312.332 117.917 C 312.728 118.789,314.097 121.565,314.556 122.427 C 315.264 123.755,316.859 126.000,317.094 126.000 C 317.226 126.000,317.333 126.062,317.333 126.139 C 317.333 126.328,318.985 127.050,320.682 127.602 C 327.383 129.784,329.318 130.570,331.317 131.921 C 331.720 132.194,332.167 132.492,332.311 132.583 C 332.454 132.675,332.965 133.031,333.445 133.375 C 333.926 133.719,334.391 134.000,334.479 134.000 C 334.567 134.000,334.664 134.056,334.694 134.125 C 334.751 134.252,335.851 135.110,336.349 135.417 C 336.498 135.508,337.178 135.963,337.859 136.427 C 338.540 136.891,339.206 137.313,339.340 137.365 C 339.939 137.596,342.343 139.535,342.567 139.968 L 342.815 140.448 339.074 140.560 C 334.659 140.692,331.608 141.190,329.000 142.204 C 328.771 142.293,327.908 142.591,327.083 142.865 C 325.027 143.550,324.121 144.506,324.908 145.160 C 325.041 145.270,325.238 145.635,325.345 145.972 C 326.135 148.445,328.916 151.474,332.977 154.285 C 335.110 155.762,335.390 155.927,337.557 156.977 C 338.717 157.540,340.621 158.463,341.787 159.028 C 342.954 159.594,343.985 160.123,344.079 160.205 C 344.173 160.286,344.475 160.498,344.750 160.674 C 345.586 161.211,345.879 161.408,346.153 161.618 C 346.298 161.729,346.689 162.029,347.023 162.285 C 347.356 162.541,347.799 162.862,348.007 163.000 C 348.404 163.263,349.792 164.407,350.917 165.399 C 352.091 166.436,352.444 166.183,351.750 164.802 C 351.521 164.346,351.333 163.880,351.333 163.767 C 351.333 163.653,350.782 163.003,350.109 162.322 C 349.435 161.641,348.483 160.596,347.993 160.000 C 346.554 158.250,344.086 155.860,341.885 154.083 C 341.384 153.679,341.181 153.537,340.000 152.767 C 339.313 152.318,338.547 151.812,338.298 151.642 C 338.050 151.472,337.812 151.333,337.768 151.333 C 337.445 151.333,334.006 148.976,333.210 148.208 C 331.505 146.563,331.406 146.010,332.815 146.002 C 333.035 146.001,333.710 145.859,334.315 145.687 C 336.951 144.937,338.252 144.671,340.917 144.333 C 345.141 143.799,348.333 142.896,348.333 142.235 C 348.333 141.726,345.917 138.594,344.563 137.348 C 342.551 135.496,342.359 135.333,342.181 135.333 C 342.082 135.333,342.000 135.271,342.000 135.196 C 342.000 135.120,341.467 134.651,340.817 134.154 C 340.166 133.657,339.511 133.119,339.363 132.958 C 339.214 132.798,339.003 132.667,338.894 132.667 C 338.784 132.667,338.669 132.601,338.639 132.521 C 338.574 132.353,336.367 130.667,336.210 130.667 C 336.152 130.667,335.950 130.525,335.761 130.352 C 334.566 129.260,330.200 126.626,328.084 125.720 C 327.533 125.484,326.783 125.153,326.417 124.984 C 323.543 123.658,322.807 123.333,322.668 123.333 C 321.333 123.333,320.053 121.969,318.681 119.083 C 318.288 118.258,317.080 115.783,315.997 113.583 C 314.079 109.690,312.667 106.719,312.667 106.577 C 312.667 106.512,311.739 104.464,311.009 102.917 C 310.836 102.550,310.451 101.612,310.154 100.833 C 309.856 100.054,309.550 99.345,309.473 99.258 C 309.396 99.171,309.333 98.995,309.333 98.867 C 309.333 98.387,307.503 94.592,306.639 93.280 C 306.288 92.746,306.000 92.276,306.000 92.235 C 306.000 92.153,305.139 90.802,305.001 90.667 C 304.910 90.578,303.696 88.801,303.417 88.348 C 303.108 87.848,302.251 86.750,302.125 86.694 C 302.056 86.664,302.000 86.566,302.000 86.476 C 302.000 86.312,299.758 83.478,298.669 82.265 C 297.104 80.523,294.777 78.118,293.501 76.924 C 292.721 76.194,292.046 75.556,292.000 75.505 C 291.954 75.454,291.504 75.076,291.000 74.665 C 290.496 74.254,290.008 73.834,289.917 73.731 C 289.036 72.742,281.472 67.522,277.584 65.219 C 274.170 63.197,268.355 61.613,263.583 61.404 C 260.791 61.283,260.979 61.351,259.009 59.747 C 258.279 59.153,257.603 58.667,257.507 58.667 C 257.412 58.667,257.333 58.607,257.333 58.533 C 257.333 58.460,257.015 58.233,256.625 58.030 C 256.235 57.826,255.617 57.482,255.250 57.266 C 254.352 56.736,252.096 55.641,250.917 55.163 C 248.238 54.078,244.420 53.552,242.417 53.992 M261.375 73.210 C 260.398 73.445,260.560 73.963,262.141 75.643 C 262.430 75.950,262.667 76.265,262.667 76.343 C 262.667 76.420,262.766 76.543,262.887 76.617 C 263.104 76.748,264.525 79.561,264.744 80.292 C 265.168 81.711,267.017 78.882,266.995 76.847 C 266.986 75.981,265.983 74.472,264.917 73.718 C 263.827 72.948,262.975 72.826,261.375 73.210 M55.500 150.764 C 55.271 150.805,54.408 150.957,53.583 151.103 C 49.422 151.837,47.413 153.093,46.417 155.583 C 46.090 156.399,46.082 156.860,46.039 177.542 L 45.994 198.667 51.247 198.667 L 56.500 198.667 56.513 179.042 C 56.520 168.248,56.568 159.529,56.619 159.667 C 56.669 159.804,56.953 160.442,57.248 161.083 C 57.544 161.725,58.331 163.487,58.998 165.000 C 59.664 166.512,60.266 167.825,60.334 167.917 C 60.403 168.008,60.516 168.271,60.586 168.500 C 60.656 168.729,61.011 169.554,61.376 170.333 C 62.000 171.667,62.321 172.370,63.126 174.167 C 63.311 174.579,63.651 175.329,63.882 175.833 C 64.113 176.338,65.058 178.456,65.983 180.542 C 66.907 182.627,67.728 184.465,67.806 184.625 C 68.075 185.179,68.644 186.420,69.086 187.417 C 69.330 187.967,69.629 188.642,69.751 188.917 C 69.873 189.192,70.232 189.979,70.550 190.667 C 70.867 191.354,71.355 192.442,71.635 193.083 C 73.733 197.903,76.294 199.465,81.819 199.293 C 86.366 199.151,88.719 197.802,90.324 194.417 C 90.541 193.958,90.784 193.451,90.862 193.290 C 90.941 193.128,91.603 191.648,92.333 190.000 C 93.064 188.352,93.726 186.872,93.805 186.710 C 94.186 185.927,94.767 184.643,95.749 182.417 C 95.871 182.142,96.124 181.579,96.313 181.167 C 96.502 180.754,96.876 179.929,97.144 179.333 C 97.411 178.737,97.819 177.838,98.048 177.333 C 98.278 176.829,98.858 175.517,99.337 174.417 C 99.816 173.317,100.300 172.229,100.412 172.000 C 100.524 171.771,100.767 171.246,100.952 170.833 C 101.137 170.421,101.441 169.746,101.629 169.333 C 102.243 167.981,102.646 167.098,103.071 166.167 C 103.301 165.662,104.090 163.900,104.824 162.250 L 106.159 159.250 106.163 178.958 L 106.167 198.667 111.421 198.667 L 116.675 198.667 116.626 177.792 C 116.577 157.525,116.566 156.887,116.246 155.888 C 115.571 153.781,114.290 152.616,111.750 151.798 C 104.271 149.389,98.755 151.182,96.265 156.833 C 95.774 157.948,94.919 159.846,94.314 161.167 C 94.125 161.579,93.827 162.235,93.652 162.625 C 93.477 163.015,93.190 163.652,93.015 164.042 C 92.310 165.611,91.990 166.314,91.343 167.711 C 90.971 168.515,90.667 169.220,90.667 169.277 C 90.667 169.334,90.505 169.726,90.308 170.148 C 90.111 170.571,89.799 171.254,89.615 171.667 C 89.431 172.079,89.218 172.546,89.141 172.705 C 89.064 172.863,87.651 176.034,86.000 179.750 C 84.349 183.466,82.935 186.637,82.857 186.795 C 82.779 186.954,82.599 187.346,82.457 187.667 C 82.315 187.987,82.045 188.588,81.858 189.000 C 81.671 189.412,81.436 189.968,81.336 190.235 C 81.079 190.923,81.005 190.803,79.553 187.333 C 79.418 187.012,79.207 186.525,79.084 186.250 C 78.960 185.975,78.360 184.588,77.750 183.167 C 76.500 180.255,76.367 179.950,75.794 178.667 C 75.569 178.162,75.065 177.000,74.673 176.083 C 73.921 174.325,73.496 173.345,73.007 172.250 C 72.844 171.883,72.391 170.833,72.002 169.917 C 71.349 168.379,70.994 167.562,70.412 166.250 C 70.290 165.975,69.806 164.850,69.337 163.750 C 68.867 162.650,68.374 161.551,68.242 161.308 C 68.109 161.064,68.000 160.785,68.000 160.686 C 68.000 160.587,67.712 159.886,67.360 159.128 C 67.008 158.370,66.511 157.262,66.255 156.667 C 65.999 156.071,65.687 155.465,65.562 155.320 C 65.436 155.175,65.333 154.987,65.333 154.902 C 65.333 154.577,62.837 152.341,62.001 151.917 C 60.350 151.080,57.032 150.492,55.500 150.764 M162.833 178.917 L 162.833 192.000 150.997 192.000 L 139.160 192.000 138.003 191.596 C 136.824 191.184,136.632 191.068,135.906 190.333 C 135.190 189.608,135.169 189.240,135.168 177.375 L 135.167 166.000 129.958 166.000 L 124.750 166.001 124.704 177.739 C 124.659 189.364,124.662 189.487,125.017 190.530 C 126.170 193.928,129.430 196.311,134.750 197.647 C 137.458 198.327,138.673 198.388,150.875 198.457 L 162.667 198.524 162.667 200.786 L 162.667 203.049 162.088 203.755 C 160.375 205.846,160.544 205.829,141.292 205.831 L 125.000 205.833 125.000 209.342 L 125.000 212.850 142.875 212.793 C 162.721 212.729,160.974 212.821,164.667 211.650 C 168.312 210.494,170.645 208.853,172.141 206.391 C 173.364 204.378,173.333 204.938,173.333 184.302 L 173.333 165.833 168.083 165.833 L 162.833 165.833 162.833 178.917 " stroke="none" fill="#04638c" fill-rule="evenodd"></path><path id="path1" d="M193.417 151.908 C 190.556 152.151,189.089 152.559,186.417 153.856 C 184.241 154.911,182.593 156.454,181.809 158.167 C 180.531 160.959,180.453 169.921,181.691 171.692 C 181.861 171.936,182.000 172.206,182.000 172.292 C 182.000 172.479,184.085 174.554,184.370 174.650 C 184.479 174.687,184.711 174.851,184.887 175.014 C 185.250 175.352,187.886 176.667,188.202 176.667 C 188.316 176.667,188.787 176.811,189.247 176.988 C 191.872 177.998,195.515 178.332,203.972 178.336 C 214.624 178.342,215.667 178.928,215.667 184.904 C 215.667 188.269,215.531 188.901,214.613 189.829 C 212.794 191.666,212.787 191.667,195.445 191.667 L 180.833 191.667 180.833 195.170 L 180.833 198.673 197.292 198.628 C 212.620 198.586,213.836 198.562,215.000 198.277 C 219.017 197.291,222.070 195.761,223.978 193.777 C 224.579 193.152,224.729 192.921,225.451 191.500 L 225.917 190.583 225.965 185.075 L 226.013 179.568 225.579 178.621 C 224.428 176.107,220.510 173.487,216.667 172.662 C 216.346 172.593,215.521 172.406,214.833 172.246 C 213.765 171.997,212.262 171.937,204.500 171.835 C 191.512 171.665,191.466 171.641,191.366 165.060 C 191.264 158.399,190.076 158.784,210.958 158.710 L 226.500 158.655 226.500 155.161 L 226.500 151.667 211.125 151.688 C 200.842 151.703,194.977 151.775,193.417 151.908 M289.203 170.708 L 289.250 189.750 289.625 190.563 C 289.831 191.010,290.000 191.439,290.000 191.515 C 290.000 192.951,294.443 196.499,297.167 197.237 C 297.396 197.299,298.071 197.490,298.667 197.660 C 300.210 198.102,304.167 198.667,305.833 198.684 C 306.612 198.692,313.344 198.691,320.792 198.682 L 334.333 198.667 334.333 195.167 L 334.333 191.667 319.875 191.663 C 302.699 191.659,302.271 191.621,300.622 189.922 C 299.438 188.703,299.498 189.790,299.499 169.708 L 299.500 151.667 294.328 151.667 L 289.156 151.667 289.203 170.708 M245.083 151.990 C 243.713 152.129,241.759 152.575,240.580 153.019 C 240.120 153.192,239.684 153.333,239.611 153.333 C 239.539 153.333,239.053 153.533,238.531 153.777 C 235.077 155.394,233.187 157.626,232.568 160.821 C 232.168 162.881,232.237 188.674,232.646 190.167 C 233.878 194.663,237.262 197.141,244.167 198.602 C 245.308 198.843,263.178 198.819,265.760 198.572 C 266.673 198.485,266.990 198.513,267.176 198.698 C 267.309 198.830,268.242 199.676,269.250 200.578 C 270.258 201.480,271.204 202.338,271.352 202.484 C 271.499 202.630,272.086 203.162,272.656 203.667 C 273.226 204.171,273.958 204.827,274.284 205.125 L 274.875 205.667 280.854 205.667 C 284.143 205.667,286.833 205.603,286.833 205.526 C 286.833 205.448,285.802 204.456,284.542 203.322 C 283.281 202.187,282.094 201.107,281.902 200.921 C 281.711 200.735,281.299 200.357,280.986 200.081 C 277.034 196.592,277.087 196.659,277.958 196.219 C 280.819 194.776,282.280 192.771,282.758 189.635 C 283.099 187.397,283.108 163.255,282.769 161.166 C 282.035 156.649,279.090 154.089,272.750 152.458 L 270.750 151.943 258.500 151.908 C 251.762 151.888,245.725 151.925,245.083 151.990 M268.833 159.148 C 270.392 159.535,271.047 159.886,271.950 160.815 C 273.405 162.313,273.348 161.691,273.296 175.559 C 273.244 189.300,273.325 188.450,271.933 189.872 C 270.969 190.856,270.800 190.898,270.148 190.318 C 269.837 190.042,269.144 189.426,268.607 188.950 C 268.070 188.473,267.355 187.821,267.018 187.500 C 266.681 187.179,265.713 186.298,264.867 185.542 L 263.328 184.167 257.414 184.167 C 253.454 184.167,251.500 184.224,251.500 184.339 C 251.500 184.505,251.832 184.852,253.020 185.925 C 253.330 186.205,254.371 187.146,255.333 188.017 C 256.296 188.888,257.374 189.859,257.728 190.175 C 258.083 190.491,258.681 191.038,259.056 191.389 L 259.739 192.029 254.411 191.954 C 246.931 191.848,245.122 191.229,243.972 188.381 L 243.583 187.417 243.583 175.083 C 243.583 162.763,243.584 162.749,243.946 162.000 C 244.459 160.938,244.994 160.427,246.270 159.784 C 247.040 159.396,247.417 159.279,248.580 159.069 C 248.853 159.020,249.109 158.947,249.149 158.907 C 249.423 158.633,267.659 158.856,268.833 159.148 M345.083 184.114 C 336.187 186.121,336.869 198.488,345.919 199.284 C 351.956 199.816,356.121 192.741,352.828 187.548 C 351.272 185.094,347.719 183.519,345.083 184.114 M348.814 186.490 C 352.076 188.137,353.052 192.592,350.742 195.290 L 350.234 195.883 349.664 194.983 C 349.351 194.488,349.054 194.046,349.004 194.000 C 348.802 193.813,348.000 192.496,348.000 192.350 C 348.000 192.264,348.244 192.140,348.542 192.076 C 349.502 191.868,350.000 191.115,350.000 189.871 C 350.000 187.769,349.273 187.333,345.766 187.333 L 343.333 187.333 343.333 191.667 L 343.333 196.000 344.167 196.000 L 345.000 196.000 345.000 194.156 L 345.000 192.312 345.542 192.364 C 346.037 192.412,346.174 192.570,347.147 194.208 L 348.212 196.000 349.116 196.000 C 350.215 196.000,350.157 196.165,348.826 196.837 C 345.121 198.708,340.753 195.906,340.765 191.667 C 340.777 187.411,345.113 184.622,348.814 186.490 M347.853 189.113 C 348.811 190.070,348.049 190.827,346.125 190.831 L 345.000 190.833 345.000 189.732 L 345.000 188.630 346.249 188.693 C 347.248 188.744,347.568 188.827,347.853 189.113 " stroke="none" fill="#e48c04" fill-rule="evenodd"></path><path id="path2" d="" stroke="none" fill="#3c7490" fill-rule="evenodd"></path><path id="path3" d="" stroke="none" fill="#3c7490" fill-rule="evenodd"></path><path id="path4" d="" stroke="none" fill="#3c7490" fill-rule="evenodd"></path></g></svg>