<svg id="svg" version="1.1" xmlns="http://www.w3.org/2000/svg" xmlns:xlink="http://www.w3.org/1999/xlink" width="400" height="446.096654275093" viewBox="0, 0, 400,446.096654275093"><g id="svgg"><path id="path0" d="M133.847 68.610 C 132.954 69.503,133.087 215.900,133.982 216.979 C 134.707 217.852,281.635 217.921,282.360 217.048 C 283.152 216.094,283.000 69.629,282.207 68.835 C 281.216 67.844,134.835 67.622,133.847 68.610 M238.344 86.009 C 245.919 86.680,251.748 89.104,256.479 93.550 L 258.907 95.832 258.261 97.016 C 257.906 97.667,256.703 99.184,255.588 100.387 C 254.473 101.589,252.984 103.344,252.280 104.286 C 250.783 106.289,249.566 106.764,248.294 105.840 C 244.711 103.238,241.428 101.200,240.819 101.200 C 240.423 101.200,239.491 100.950,238.749 100.644 C 227.621 96.061,213.679 109.170,216.742 121.335 C 216.994 122.336,217.200 123.532,217.200 123.994 C 217.200 125.784,219.644 130.058,222.013 132.413 C 228.610 138.969,238.604 139.198,246.800 132.982 C 250.465 130.202,250.261 130.156,255.023 134.842 C 259.956 139.696,260.013 139.915,257.049 142.718 C 242.440 156.535,217.718 154.032,206.608 137.610 C 199.154 126.592,198.770 112.965,205.576 101.000 C 207.056 98.398,214.221 91.030,215.714 90.575 C 216.201 90.427,216.870 90.093,217.200 89.833 C 217.763 89.390,219.656 88.539,223.400 87.048 C 224.716 86.523,228.916 85.915,233.000 85.657 C 233.440 85.630,235.845 85.788,238.344 86.009 M180.600 87.307 C 191.385 90.294,196.467 97.099,196.502 108.600 C 196.524 115.977,195.217 119.305,190.448 124.016 C 185.355 129.047,180.182 130.752,169.120 131.045 C 164.899 131.157,161.300 131.338,161.122 131.448 C 160.945 131.558,160.800 135.561,160.800 140.344 C 160.800 146.574,160.664 149.176,160.320 149.520 C 159.284 150.556,147.320 150.154,146.602 149.059 C 145.683 147.656,145.875 87.379,146.800 86.786 C 147.917 86.071,177.798 86.531,180.600 87.307 M162.400 100.695 C 160.869 100.979,160.812 101.282,160.812 109.200 C 160.811 119.396,160.132 118.400,167.085 118.400 C 174.663 118.400,176.689 117.858,179.273 115.138 C 183.053 111.160,182.179 104.954,177.426 102.016 C 176.263 101.297,166.355 100.167,163.800 100.463 C 163.580 100.488,162.950 100.593,162.400 100.695 M203.424 189.367 C 204.458 190.123,204.850 198.329,203.889 199.126 C 203.450 199.491,196.574 199.581,175.156 199.503 L 147.000 199.400 146.659 196.857 C 146.250 193.799,146.632 190.225,147.457 189.400 C 148.335 188.522,202.224 188.491,203.424 189.367 M193.214 333.974 C 192.582 335.155,192.646 389.286,193.280 389.920 C 194.198 390.838,202.295 390.560,202.600 389.600 C 202.740 389.160,202.898 383.355,202.953 376.700 C 203.060 363.491,203.179 362.730,205.521 360.264 C 209.277 356.310,216.044 357.219,218.800 362.048 C 219.796 363.793,219.801 363.852,220.000 376.600 C 220.110 383.640,220.346 389.625,220.524 389.900 C 220.963 390.580,228.843 390.597,229.520 389.920 C 230.299 389.141,230.175 362.193,229.377 358.805 C 227.024 348.823,213.803 345.141,207.222 352.636 C 203.552 356.816,202.847 355.390,202.814 343.717 C 202.794 336.348,202.661 333.759,202.293 333.526 C 201.128 332.786,193.652 333.155,193.214 333.974 M163.400 335.805 C 143.599 338.603,133.715 361.190,144.424 379.166 C 146.331 382.367,151.372 386.727,155.300 388.574 C 165.631 393.431,179.467 391.567,187.300 384.264 C 188.871 382.799,188.697 382.134,185.949 379.100 C 183.704 376.621,181.600 375.491,181.600 376.764 C 181.600 377.276,176.653 380.343,174.659 381.067 C 161.438 385.867,149.039 374.877,151.101 360.185 C 151.912 354.407,157.565 346.400,160.834 346.400 C 161.051 346.400,161.646 346.126,162.157 345.791 C 165.899 343.339,174.639 344.908,180.446 349.073 L 182.293 350.398 184.199 348.299 C 189.073 342.934,189.036 343.047,186.501 341.123 C 180.127 336.284,172.475 334.522,163.400 335.805 M52.425 337.153 C 51.811 338.301,51.909 388.927,52.527 389.752 C 53.022 390.412,61.314 390.818,61.924 390.211 C 62.076 390.060,62.290 386.516,62.400 382.335 C 62.646 372.975,61.839 373.796,71.091 373.486 C 84.949 373.020,91.664 368.949,93.805 359.716 C 96.308 348.922,90.870 339.639,80.600 337.174 C 75.777 336.016,53.043 335.999,52.425 337.153 M77.424 346.166 C 85.937 349.256,86.564 359.850,78.463 363.699 C 76.028 364.856,64.768 365.275,63.400 364.260 C 61.624 362.941,62.111 345.953,63.940 345.468 C 66.435 344.806,74.882 345.243,77.424 346.166 M295.530 349.473 C 293.480 350.157,290.847 352.375,289.892 354.222 C 287.895 358.083,285.003 356.987,285.812 352.676 C 286.318 349.981,285.730 349.599,281.086 349.606 C 278.839 349.609,276.778 349.753,276.507 349.926 C 275.990 350.254,275.701 389.192,276.209 390.015 C 276.340 390.227,278.421 390.400,280.834 390.400 C 286.303 390.400,286.000 390.990,286.000 380.332 C 286.000 365.877,288.658 361.271,298.073 359.410 C 299.401 359.148,299.520 358.743,299.674 353.961 C 299.845 348.672,299.394 348.184,295.530 349.473 M323.472 349.491 C 322.412 349.858,320.558 351.020,319.354 352.075 C 315.520 355.429,314.156 355.333,313.922 351.692 L 313.800 349.800 309.434 349.686 C 306.730 349.615,304.907 349.733,304.643 349.997 C 304.051 350.589,303.826 388.528,304.408 389.616 C 304.786 390.321,305.267 390.400,309.206 390.400 C 314.536 390.400,313.958 391.999,314.120 376.800 C 314.261 363.595,314.380 362.872,316.856 360.186 C 318.565 358.331,320.991 357.467,323.400 357.855 C 330.031 358.923,330.564 360.285,330.730 376.596 C 330.884 391.649,330.407 390.400,336.006 390.400 C 341.312 390.400,340.798 391.764,340.810 377.667 C 340.824 360.898,342.076 357.910,349.105 357.869 C 356.306 357.827,357.365 360.163,357.505 376.400 C 357.641 392.168,356.922 390.400,363.200 390.400 C 368.254 390.400,368.390 390.377,368.576 389.500 C 369.022 387.394,368.600 361.723,368.108 361.131 C 367.838 360.805,367.255 359.367,366.813 357.935 C 363.686 347.813,352.405 345.636,342.648 353.272 C 340.169 355.212,339.983 355.196,337.620 352.857 C 333.945 349.221,328.203 347.855,323.472 349.491 M245.600 349.671 C 241.036 350.649,238.492 351.606,238.278 352.425 C 238.113 353.055,239.684 358.601,240.168 359.099 C 240.221 359.153,241.150 358.942,242.232 358.630 C 251.229 356.035,258.246 357.477,260.676 362.418 C 262.898 366.934,261.614 368.125,255.735 367.000 C 240.817 364.145,230.501 372.332,234.767 383.639 C 237.736 391.509,250.185 393.873,257.626 387.980 C 259.757 386.291,260.839 386.491,261.538 388.700 L 262.076 390.400 266.224 390.400 C 271.629 390.400,271.213 391.723,271.027 375.144 C 270.852 359.439,270.546 357.804,267.052 353.928 C 263.567 350.060,253.297 348.022,245.600 349.671 M98.516 350.274 C 98.279 350.893,99.080 353.434,101.141 358.600 C 101.580 359.700,103.580 364.920,105.587 370.200 C 107.593 375.480,109.497 380.367,109.817 381.060 C 110.138 381.754,110.406 382.474,110.414 382.660 C 110.421 382.847,110.775 383.720,111.200 384.600 C 111.625 385.480,111.979 386.504,111.986 386.876 C 111.994 387.248,112.175 387.661,112.389 387.793 C 113.025 388.186,113.669 391.176,113.391 392.442 C 112.859 394.864,109.074 396.293,106.142 395.178 C 104.232 394.452,103.486 394.951,102.253 397.782 C 100.837 401.032,100.961 401.347,104.230 402.813 C 113.215 406.845,119.735 402.480,124.233 389.422 C 124.836 387.674,125.568 385.784,125.862 385.222 C 126.155 384.660,126.396 383.981,126.398 383.714 C 126.399 383.446,126.658 382.636,126.973 381.914 C 127.663 380.331,129.568 375.364,132.387 367.800 C 133.535 364.720,134.846 361.210,135.302 360.000 C 139.394 349.119,139.472 349.524,133.326 349.686 C 128.189 349.822,128.944 348.892,125.770 359.000 C 124.527 362.960,123.271 366.920,122.980 367.800 C 122.688 368.680,122.065 370.750,121.595 372.400 C 120.139 377.512,120.054 377.659,118.643 377.521 L 117.400 377.400 113.200 364.800 C 110.890 357.870,108.753 351.615,108.451 350.900 L 107.903 349.600 103.339 349.600 C 99.428 349.600,98.738 349.697,98.516 350.274 M257.602 372.038 C 261.684 372.913,262.724 375.341,260.859 379.641 C 257.469 387.458,243.600 386.528,243.600 378.484 C 243.600 373.145,249.690 370.341,257.602 372.038 " stroke="none" fill="#0b0b0b" fill-rule="evenodd"></path><path id="path1" d="M189.200 24.423 C 188.210 24.568,186.500 25.140,185.400 25.694 C 184.300 26.247,182.140 27.184,180.600 27.777 C 175.154 29.871,174.578 30.104,172.400 31.090 C 171.190 31.637,169.840 32.226,169.400 32.398 C 168.343 32.811,163.615 34.762,162.600 35.204 C 162.160 35.396,160.450 36.117,158.800 36.807 C 157.150 37.497,155.233 38.317,154.540 38.630 C 153.846 38.944,152.912 39.200,152.463 39.200 C 152.014 39.200,151.555 39.350,151.442 39.532 C 151.329 39.715,150.013 40.360,148.518 40.966 C 143.795 42.880,141.816 43.751,141.275 44.151 C 140.986 44.365,139.906 44.841,138.875 45.208 C 135.493 46.412,130.599 48.410,126.725 50.168 C 125.473 50.735,124.241 51.200,123.986 51.200 C 123.732 51.200,123.046 51.443,122.462 51.739 C 121.447 52.255,120.912 52.498,116.800 54.321 C 115.810 54.759,113.740 55.610,112.200 56.212 C 103.468 59.622,103.169 59.920,102.941 65.413 C 102.841 67.826,102.514 70.790,102.215 72.000 C 101.916 73.210,101.555 76.630,101.412 79.600 C 101.269 82.570,100.893 86.509,100.576 88.352 C 100.259 90.196,99.989 93.436,99.976 95.552 C 99.963 97.669,99.779 100.300,99.567 101.400 C 99.355 102.500,98.934 106.640,98.631 110.600 C 98.329 114.560,97.884 119.420,97.642 121.400 C 97.400 123.380,97.028 126.980,96.816 129.400 C 96.603 131.820,96.247 135.510,96.025 137.600 C 95.589 141.700,95.038 147.946,94.385 156.200 C 94.159 159.060,93.789 162.840,93.563 164.600 C 93.083 168.341,92.289 178.072,91.412 190.981 C 91.068 196.030,90.626 200.800,90.428 201.581 C 89.939 203.516,89.499 214.103,89.888 214.601 C 90.388 215.244,93.200 217.022,98.800 220.238 C 100.230 221.059,101.492 221.867,101.604 222.034 C 101.716 222.200,102.316 222.464,102.936 222.620 C 103.557 222.776,104.155 223.137,104.264 223.424 C 104.374 223.710,104.945 224.136,105.532 224.370 C 106.782 224.869,111.708 227.600,112.000 227.956 C 112.110 228.090,113.190 228.723,114.400 229.363 C 115.610 230.003,117.500 231.114,118.600 231.832 C 119.700 232.551,121.500 233.610,122.600 234.187 C 123.700 234.764,125.140 235.588,125.800 236.019 C 126.460 236.449,127.540 237.074,128.200 237.407 C 129.397 238.011,130.104 238.427,131.998 239.643 C 132.549 239.997,134.620 241.151,136.600 242.206 C 138.580 243.262,141.100 244.711,142.200 245.426 C 143.300 246.141,144.920 247.112,145.800 247.584 C 147.713 248.609,148.380 249.002,151.000 250.644 C 152.100 251.334,154.125 252.464,155.500 253.155 C 156.875 253.846,158.000 254.575,158.000 254.774 C 158.000 254.973,158.538 255.255,159.195 255.399 C 159.853 255.543,160.487 255.817,160.604 256.006 C 160.721 256.196,161.848 256.935,163.108 257.649 C 164.369 258.363,165.490 259.058,165.600 259.194 C 166.587 260.415,169.780 261.077,170.621 260.236 C 170.932 259.925,171.330 259.610,171.506 259.536 C 172.102 259.283,177.054 253.375,178.425 251.280 C 179.174 250.136,180.015 249.200,180.294 249.200 C 180.572 249.200,180.800 248.975,180.801 248.700 C 180.801 248.425,181.505 247.407,182.365 246.438 L 183.929 244.676 182.547 243.738 C 181.787 243.222,180.677 242.794,180.082 242.786 C 179.487 242.778,176.390 241.862,173.200 240.751 C 170.010 239.639,166.050 238.408,164.400 238.015 C 160.183 237.012,158.130 235.900,157.811 234.449 C 157.359 232.394,157.522 229.443,158.170 227.913 C 158.974 226.015,158.987 221.923,158.194 220.389 C 157.602 219.243,157.613 219.212,158.694 218.949 C 163.280 217.835,161.407 217.600,147.938 217.600 C 136.205 217.600,134.432 217.520,133.976 216.971 C 133.105 215.921,132.957 69.500,133.826 68.631 C 134.396 68.062,141.132 67.995,202.929 67.954 C 240.588 67.928,271.130 67.845,270.800 67.768 C 270.470 67.692,259.040 67.565,245.400 67.486 C 217.528 67.324,216.342 67.205,219.719 64.906 C 220.442 64.414,222.376 62.750,224.017 61.208 C 225.657 59.666,227.144 58.403,227.319 58.402 C 227.932 58.398,233.200 52.699,233.188 52.052 C 233.182 51.680,231.853 50.568,230.088 49.460 C 225.643 46.667,220.702 43.324,219.966 42.613 C 219.618 42.276,219.211 42.000,219.062 42.000 C 218.914 42.000,217.849 41.334,216.696 40.521 C 214.926 39.271,212.823 37.882,209.551 35.800 C 207.021 34.190,201.960 30.883,197.734 28.077 C 191.917 24.214,191.588 24.073,189.200 24.423 M282.853 106.751 L 282.850 130.902 283.667 129.251 C 284.403 127.763,284.629 127.600,285.957 127.600 C 286.767 127.600,288.913 126.984,290.726 126.231 C 297.702 123.333,299.661 123.605,300.236 127.554 C 300.384 128.569,300.748 130.030,301.046 130.800 C 301.344 131.570,302.044 134.000,302.601 136.200 C 303.158 138.400,303.955 141.370,304.374 142.800 C 304.792 144.230,305.526 146.750,306.005 148.400 C 306.483 150.050,306.942 151.625,307.025 151.900 C 307.279 152.747,308.442 152.455,309.336 151.318 C 310.513 149.821,312.000 147.608,312.000 147.352 C 312.000 146.840,320.132 130.587,320.448 130.467 C 320.642 130.393,320.800 130.119,320.800 129.856 C 320.800 129.594,321.790 127.367,323.000 124.907 C 326.008 118.794,325.942 118.527,320.400 114.335 C 319.410 113.586,317.880 112.292,317.000 111.460 C 316.120 110.628,314.320 109.111,313.000 108.089 C 309.365 105.273,304.227 101.084,303.988 100.742 C 303.872 100.575,302.231 99.214,300.341 97.719 C 298.452 96.224,295.660 93.920,294.136 92.600 C 289.525 88.604,288.020 87.438,286.345 86.562 C 285.446 86.091,284.330 85.039,283.800 84.162 L 282.855 82.600 282.853 106.751 M167.700 100.691 C 168.525 100.778,169.875 100.778,170.700 100.691 C 171.525 100.605,170.850 100.534,169.200 100.534 C 167.550 100.534,166.875 100.605,167.700 100.691 M166.500 131.094 C 167.545 131.176,169.255 131.176,170.300 131.094 C 171.345 131.012,170.490 130.944,168.400 130.944 C 166.310 130.944,165.455 131.012,166.500 131.094 M132.707 151.852 C 132.972 154.200,131.983 187.002,131.606 188.400 C 131.433 189.039,131.246 188.030,131.086 185.600 C 130.847 181.969,129.598 173.890,128.897 171.443 L 128.566 170.286 128.019 171.943 C 126.944 175.201,125.714 173.273,125.353 167.764 L 125.091 163.766 127.398 158.583 C 128.667 155.732,130.141 152.428,130.674 151.241 C 131.802 148.725,132.374 148.897,132.707 151.852 M202.951 341.200 C 202.951 343.730,203.016 344.765,203.096 343.500 C 203.175 342.235,203.175 340.165,203.096 338.900 C 203.016 337.635,202.951 338.670,202.951 341.200 M304.140 355.200 C 304.140 357.070,304.209 357.835,304.293 356.900 C 304.377 355.965,304.377 354.435,304.293 353.500 C 304.209 352.565,304.140 353.330,304.140 355.200 M270.893 365.200 C 270.893 365.970,270.975 366.285,271.076 365.900 C 271.176 365.515,271.176 364.885,271.076 364.500 C 270.975 364.115,270.893 364.430,270.893 365.200 M202.960 374.600 C 202.961 377.900,203.022 379.197,203.098 377.482 C 203.173 375.767,203.172 373.067,203.097 371.482 C 203.021 369.897,202.959 371.300,202.960 374.600 M270.909 375.200 C 270.909 376.190,270.987 376.595,271.082 376.100 C 271.178 375.605,271.178 374.795,271.082 374.300 C 270.987 373.805,270.909 374.210,270.909 375.200 M202.901 387.400 C 202.905 388.280,202.987 388.593,203.083 388.095 C 203.179 387.598,203.175 386.878,203.075 386.495 C 202.975 386.113,202.896 386.520,202.901 387.400 " stroke="none" fill="#2dd090" fill-rule="evenodd"></path><path id="path2" d="M0.000 223.000 L 0.000 446.000 200.000 446.000 L 400.000 446.000 400.000 223.000 L 400.000 0.000 200.000 0.000 L 0.000 0.000 0.000 223.000 M196.689 25.900 C 196.797 26.175,197.055 26.400,197.262 26.400 C 197.470 26.400,198.665 27.096,199.920 27.947 C 205.300 31.595,222.592 43.014,222.961 43.161 C 223.182 43.249,223.552 43.474,223.782 43.661 C 226.673 46.014,233.586 50.088,234.698 50.095 C 235.403 50.099,238.406 48.089,239.600 46.814 C 240.322 46.042,248.128 39.121,249.600 37.946 C 251.742 36.237,261.209 27.735,261.843 26.951 C 264.171 24.071,267.025 23.448,267.369 25.745 C 267.472 26.435,267.920 29.250,268.364 32.000 C 269.154 36.885,269.614 40.117,270.446 46.600 C 270.672 48.360,271.133 51.046,271.471 52.568 C 271.809 54.091,272.244 56.971,272.437 58.968 C 272.630 60.966,273.036 63.500,273.338 64.600 L 273.887 66.600 278.034 66.715 C 284.066 66.882,283.873 66.597,284.062 75.666 L 284.211 82.876 285.434 83.938 C 288.044 86.206,289.109 87.094,292.200 89.577 C 293.960 90.992,295.737 92.492,296.149 92.911 C 296.562 93.330,298.632 95.054,300.749 96.742 C 304.369 99.627,306.490 101.403,307.984 102.800 C 308.337 103.130,310.837 105.200,313.540 107.400 C 326.566 118.002,326.400 117.850,326.400 119.171 C 326.400 119.789,324.668 123.784,322.552 128.047 C 318.503 136.203,317.287 138.631,316.264 140.600 C 315.921 141.260,315.543 142.070,315.423 142.400 C 315.303 142.730,315.036 143.270,314.830 143.600 C 313.282 146.075,307.857 157.981,307.922 158.762 C 307.966 159.299,308.255 160.651,308.564 161.769 C 308.872 162.886,309.434 165.150,309.812 166.800 C 310.422 169.466,311.971 174.886,314.383 182.800 C 314.819 184.230,315.553 187.365,316.015 189.766 C 316.477 192.167,317.101 194.867,317.402 195.766 C 317.704 196.665,318.212 198.480,318.532 199.800 C 318.852 201.120,319.510 203.640,319.993 205.400 C 321.139 209.568,321.907 212.424,323.973 220.200 C 324.908 223.720,325.929 227.500,326.242 228.600 C 328.770 237.497,328.607 237.785,319.408 240.681 C 317.644 241.236,315.710 241.943,315.110 242.250 C 314.511 242.558,312.441 243.244,310.510 243.774 C 308.580 244.304,302.860 246.178,297.800 247.937 C 292.740 249.697,287.160 251.633,285.400 252.241 C 283.640 252.849,280.850 253.844,279.200 254.451 C 277.550 255.058,274.760 256.000,273.000 256.544 C 271.240 257.088,267.910 258.285,265.600 259.203 C 258.365 262.080,253.177 262.353,246.612 260.199 C 244.859 259.624,242.519 258.974,241.412 258.755 C 240.305 258.536,238.770 258.112,238.000 257.813 C 236.626 257.279,225.889 254.219,218.400 252.226 C 216.310 251.669,213.880 250.949,213.000 250.625 C 212.120 250.300,211.079 250.027,210.686 250.018 C 210.293 250.008,208.493 249.538,206.686 248.972 C 203.162 247.870,201.433 247.359,195.800 245.753 C 193.820 245.189,191.661 244.564,191.003 244.364 C 187.576 243.323,187.444 243.410,181.193 250.800 C 179.797 252.450,178.341 254.110,177.957 254.488 C 177.573 254.867,176.758 255.857,176.147 256.688 C 171.390 263.159,170.124 263.521,164.328 260.059 C 162.616 259.037,160.674 257.909,160.012 257.553 C 159.351 257.197,158.582 256.727,158.305 256.509 C 158.027 256.291,156.360 255.337,154.600 254.390 C 152.840 253.443,150.680 252.214,149.800 251.658 C 148.920 251.102,147.210 250.122,146.000 249.478 C 144.790 248.835,143.530 248.083,143.200 247.806 C 142.870 247.529,141.098 246.425,139.261 245.352 C 137.425 244.278,135.265 243.004,134.461 242.521 C 133.658 242.037,132.626 241.468,132.169 241.257 C 131.712 241.045,129.462 239.716,127.169 238.302 C 124.876 236.888,122.035 235.249,120.856 234.660 C 119.677 234.071,118.257 233.231,117.702 232.794 C 117.147 232.357,116.522 232.000,116.314 232.000 C 116.106 232.000,114.986 231.370,113.826 230.600 C 112.666 229.830,111.604 229.200,111.466 229.200 C 111.328 229.200,110.267 228.597,109.108 227.859 C 107.948 227.122,106.349 226.213,105.554 225.840 C 104.759 225.466,103.758 224.854,103.331 224.480 C 102.903 224.106,101.934 223.465,101.176 223.056 C 100.419 222.647,98.826 221.790,97.636 221.152 C 96.446 220.514,95.276 219.835,95.036 219.643 C 94.796 219.450,93.639 218.795,92.464 218.186 C 87.807 215.772,87.204 214.607,88.015 209.600 C 88.211 208.390,88.554 204.790,88.778 201.600 C 89.002 198.410,89.456 193.280,89.787 190.200 C 90.584 182.774,91.088 177.313,91.788 168.504 C 92.106 164.491,92.545 160.531,92.762 159.704 C 92.979 158.877,93.276 155.770,93.422 152.800 C 93.569 149.830,93.938 146.050,94.244 144.400 C 94.550 142.750,94.800 139.893,94.800 138.051 C 94.800 136.210,95.064 132.880,95.386 130.651 C 95.708 128.423,96.164 123.746,96.399 120.257 C 96.634 116.768,96.989 113.078,97.187 112.057 C 97.385 111.036,97.656 108.217,97.789 105.793 C 97.922 103.368,98.291 99.678,98.608 97.593 C 98.926 95.507,99.197 92.360,99.210 90.600 C 99.224 88.840,99.406 86.050,99.615 84.400 C 99.824 82.750,100.358 77.800,100.800 73.400 C 102.196 59.519,102.756 57.638,105.506 57.587 C 105.888 57.580,106.549 57.310,106.976 56.987 C 107.404 56.664,108.006 56.400,108.316 56.400 C 108.626 56.400,109.536 56.106,110.340 55.747 C 111.143 55.388,112.520 54.771,113.400 54.377 C 114.280 53.983,116.170 53.191,117.600 52.618 C 119.030 52.044,120.678 51.311,121.262 50.987 C 121.846 50.664,122.532 50.400,122.786 50.400 C 123.041 50.400,124.778 49.680,126.648 48.800 C 128.518 47.920,130.250 47.200,130.497 47.200 C 130.957 47.200,133.753 45.992,135.662 44.969 C 136.246 44.656,136.938 44.400,137.201 44.400 C 137.464 44.400,138.246 44.148,138.940 43.839 C 141.606 42.653,145.050 41.126,146.200 40.622 C 146.860 40.332,148.260 39.713,149.311 39.247 C 150.362 38.781,151.422 38.400,151.667 38.400 C 151.912 38.400,152.852 38.054,153.756 37.632 C 157.779 35.752,159.082 35.200,159.494 35.200 C 159.737 35.200,160.445 34.932,161.068 34.605 C 162.381 33.916,165.869 32.400,166.142 32.400 C 166.245 32.400,167.674 31.770,169.318 31.000 C 170.962 30.230,172.428 29.600,172.574 29.600 C 172.884 29.600,179.839 26.695,182.226 25.568 C 183.121 25.145,184.120 24.800,184.446 24.800 C 184.773 24.800,185.226 24.614,185.453 24.387 C 185.681 24.159,187.022 23.648,188.433 23.250 L 191.000 22.526 193.746 23.963 C 195.257 24.753,196.581 25.625,196.689 25.900 M227.600 87.166 C 227.270 87.354,226.010 87.711,224.800 87.959 C 222.847 88.360,221.071 89.022,219.200 90.045 C 212.667 93.619,208.577 97.610,205.716 103.200 C 205.322 103.970,204.884 104.690,204.741 104.800 C 204.599 104.910,204.267 105.810,204.002 106.800 C 203.738 107.790,203.383 108.780,203.214 109.000 C 201.643 111.045,201.803 125.425,203.431 128.462 C 203.744 129.046,204.001 129.766,204.002 130.062 C 204.004 130.748,207.029 136.745,207.791 137.574 C 213.065 143.312,215.347 145.208,219.051 146.935 C 219.739 147.256,220.425 147.717,220.575 147.959 C 220.725 148.202,221.242 148.401,221.724 148.402 C 222.206 148.404,223.092 148.662,223.694 148.975 C 225.393 149.862,234.355 150.899,236.453 150.452 C 237.414 150.247,239.280 149.965,240.600 149.825 C 243.062 149.563,245.079 148.920,247.679 147.569 C 248.493 147.146,249.410 146.800,249.717 146.800 C 250.025 146.800,250.602 146.440,251.000 146.000 C 251.398 145.560,251.874 145.200,252.057 145.200 C 252.755 145.200,258.000 140.388,258.000 139.749 C 258.000 139.529,256.373 137.705,254.385 135.693 C 250.664 131.930,250.290 131.759,248.721 133.104 C 247.106 134.488,242.533 137.195,241.800 137.200 C 241.360 137.203,240.460 137.505,239.800 137.873 C 238.357 138.675,230.096 138.895,229.162 138.155 C 228.853 137.910,228.060 137.583,227.400 137.427 C 224.589 136.762,219.109 131.981,218.132 129.341 C 217.982 128.934,217.742 128.510,217.600 128.400 C 215.791 127.002,214.511 114.794,215.986 113.017 C 216.181 112.782,216.555 111.737,216.818 110.695 C 217.080 109.653,217.436 108.800,217.608 108.800 C 217.781 108.800,218.110 108.260,218.340 107.600 C 218.570 106.940,218.948 106.400,219.179 106.400 C 219.411 106.400,219.600 106.153,219.600 105.851 C 219.600 105.403,222.045 102.959,223.803 101.650 C 229.745 97.225,240.565 98.218,247.441 103.820 C 248.938 105.039,250.800 105.378,250.800 104.429 C 250.800 104.150,253.520 100.827,255.576 98.595 C 257.386 96.629,257.406 95.957,255.701 94.350 C 253.852 92.607,250.046 90.114,248.311 89.509 C 247.600 89.261,246.565 88.822,246.009 88.532 C 245.454 88.242,244.499 88.004,243.887 88.002 C 243.275 88.001,242.128 87.730,241.338 87.400 C 239.739 86.732,228.694 86.543,227.600 87.166 M147.863 87.899 C 147.687 88.183,147.479 131.927,147.585 146.300 L 147.600 148.400 153.800 148.400 L 160.000 148.400 160.000 139.829 C 160.000 129.154,159.403 130.001,166.929 129.998 C 175.177 129.996,182.752 128.556,185.231 126.519 C 185.579 126.233,186.068 126.000,186.318 126.000 C 187.138 126.000,192.631 120.238,193.372 118.600 C 199.140 105.856,194.417 93.570,181.989 88.988 L 179.000 87.886 163.547 87.704 C 154.123 87.593,148.004 87.669,147.863 87.899 M176.600 100.319 C 178.927 101.250,181.507 103.627,181.836 105.144 C 181.962 105.725,182.251 106.691,182.477 107.291 C 183.598 110.256,180.674 116.975,177.894 117.822 C 177.402 117.972,176.673 118.382,176.274 118.733 C 175.472 119.438,161.210 119.740,160.534 119.067 C 159.877 118.411,160.127 100.020,160.800 99.563 C 161.921 98.802,174.287 99.393,176.600 100.319 M147.771 190.932 C 147.659 191.224,147.619 193.069,147.683 195.032 L 147.800 198.600 175.500 198.703 L 203.200 198.805 203.200 194.603 L 203.200 190.400 175.587 190.400 C 152.990 190.400,147.938 190.497,147.771 190.932 M203.600 332.400 C 204.355 333.155,204.400 333.733,204.400 342.600 C 204.400 352.701,204.554 353.344,206.483 351.300 C 212.761 344.649,225.741 346.645,229.703 354.870 C 231.295 358.175,231.667 360.914,231.557 368.501 C 231.448 375.948,232.220 380.129,232.830 375.400 C 233.870 367.343,243.177 363.860,258.800 365.683 C 260.160 365.842,260.270 364.667,259.090 362.601 C 256.981 358.911,251.895 357.927,244.421 359.762 C 239.490 360.972,238.721 360.750,238.002 357.901 C 237.765 356.965,237.295 355.440,236.957 354.510 C 236.249 352.566,236.338 351.206,237.200 350.798 C 237.530 350.641,238.340 350.235,239.000 349.894 C 239.660 349.552,240.920 349.149,241.800 348.997 C 242.680 348.846,244.288 348.469,245.373 348.161 C 248.747 347.202,256.886 347.409,260.464 348.544 C 264.514 349.830,269.538 353.147,269.587 354.569 C 269.594 354.771,269.841 355.221,270.135 355.569 C 272.083 357.870,272.389 360.645,272.410 376.208 C 272.434 393.763,273.159 392.000,265.915 392.000 C 260.312 392.000,260.679 392.151,259.844 389.497 C 259.644 388.862,259.436 388.907,257.711 389.952 C 256.660 390.589,255.350 391.243,254.800 391.404 C 254.250 391.566,253.547 391.901,253.239 392.149 C 252.408 392.817,243.232 392.744,241.762 392.058 C 241.123 391.760,240.050 391.255,239.378 390.937 C 236.266 389.463,232.800 384.927,232.800 382.328 C 232.800 381.658,232.542 381.076,232.183 380.938 C 231.390 380.634,231.027 380.999,231.451 381.673 C 232.072 382.661,231.619 390.106,230.876 391.133 C 230.003 392.339,221.110 392.557,219.368 391.416 L 218.400 390.782 218.400 377.685 C 218.400 364.665,218.394 364.577,217.449 362.794 C 214.756 357.713,207.472 358.151,205.148 363.533 C 204.470 365.105,204.400 366.442,204.400 377.859 C 204.400 393.428,205.045 392.000,198.009 392.000 C 190.350 392.000,191.205 395.713,191.217 362.500 C 191.227 333.009,191.249 332.520,192.557 331.991 C 194.445 331.229,202.735 331.535,203.600 332.400 M178.600 335.233 C 180.140 335.746,181.638 336.398,181.929 336.683 C 182.219 336.967,182.716 337.200,183.033 337.200 C 183.725 337.200,187.303 339.630,189.071 341.300 C 190.625 342.768,190.419 343.636,187.867 346.381 C 186.937 347.381,185.689 348.843,185.095 349.629 C 183.143 352.208,182.459 352.318,179.753 350.485 C 171.285 344.749,163.038 344.877,157.204 350.835 C 156.125 351.937,155.130 353.190,154.994 353.619 C 154.858 354.049,154.604 354.400,154.431 354.400 C 153.759 354.400,152.311 360.512,152.311 363.349 C 152.311 368.554,154.781 374.241,158.246 377.013 C 161.977 379.999,162.551 380.185,168.011 380.193 C 174.110 380.202,175.938 379.564,180.314 375.900 C 182.576 374.006,183.425 374.315,187.358 378.470 C 189.269 380.488,190.779 382.415,190.714 382.752 C 190.590 383.395,185.687 387.688,184.129 388.518 C 177.172 392.221,175.651 392.601,167.800 392.596 C 162.277 392.593,161.071 392.475,159.000 391.735 C 155.720 390.563,151.951 388.758,151.200 387.998 C 151.090 387.886,150.370 387.320,149.600 386.739 C 145.186 383.409,142.782 380.090,140.227 373.800 C 138.815 370.325,137.980 362.056,138.738 359.062 C 139.484 356.117,139.660 354.400,139.218 354.400 C 138.988 354.400,138.800 354.822,138.800 355.339 C 138.800 355.855,138.459 356.671,138.042 357.151 C 137.625 357.632,137.159 358.695,137.006 359.513 C 136.853 360.331,136.583 361.180,136.406 361.400 C 136.228 361.620,135.899 362.430,135.673 363.200 C 135.448 363.970,134.889 365.545,134.432 366.700 C 133.974 367.855,133.227 369.745,132.770 370.900 C 132.314 372.055,131.776 373.529,131.576 374.176 C 131.376 374.824,130.598 376.894,129.849 378.776 C 129.099 380.659,127.724 384.360,126.795 387.000 C 122.866 398.154,121.277 400.723,116.245 404.052 C 112.594 406.467,108.230 406.431,102.904 403.940 C 98.882 402.059,98.730 401.567,100.855 397.337 C 103.030 393.007,103.093 392.959,105.830 393.572 C 113.188 395.218,113.441 392.789,107.354 378.940 C 107.049 378.246,106.794 377.526,106.786 377.340 C 106.779 377.153,106.425 376.280,106.000 375.400 C 105.575 374.520,105.221 373.525,105.214 373.189 C 105.206 372.853,104.953 372.223,104.651 371.789 C 104.349 371.355,103.966 370.376,103.800 369.613 C 103.634 368.850,103.350 367.950,103.170 367.613 C 102.709 366.753,101.038 362.652,99.986 359.800 C 99.500 358.480,98.764 356.660,98.351 355.756 C 97.938 354.852,97.600 353.876,97.600 353.588 C 97.600 353.299,97.347 352.779,97.037 352.431 C 96.328 351.636,96.156 350.511,96.526 349.100 L 96.815 348.000 102.572 348.000 L 108.329 348.000 109.364 349.231 C 109.934 349.908,110.400 350.898,110.400 351.432 C 110.400 351.966,110.760 353.075,111.200 353.896 C 111.640 354.716,112.000 355.715,112.000 356.114 C 112.000 356.513,112.246 357.326,112.547 357.920 C 112.847 358.514,113.223 359.720,113.382 360.600 C 113.541 361.480,113.800 362.380,113.958 362.600 C 114.115 362.820,115.131 365.700,116.216 369.000 C 117.301 372.300,118.246 375.085,118.316 375.188 C 118.519 375.488,119.139 374.350,119.836 372.400 C 120.190 371.410,120.706 369.970,120.983 369.200 C 122.140 365.982,122.491 364.899,122.991 363.000 C 123.281 361.900,123.717 360.460,123.960 359.800 C 124.203 359.140,124.960 356.772,125.643 354.537 C 126.325 352.303,127.225 349.913,127.643 349.226 L 128.402 347.978 134.090 348.089 C 139.394 348.193,139.805 348.256,140.192 349.032 C 140.784 350.222,141.404 349.841,143.060 347.266 C 150.096 336.326,165.860 330.988,178.600 335.233 M79.600 335.416 C 82.831 336.078,86.800 337.543,86.800 338.074 C 86.800 338.253,87.085 338.400,87.434 338.400 C 88.442 338.400,92.577 342.875,93.563 345.034 C 94.057 346.115,94.694 347.450,94.977 348.000 C 96.532 351.019,95.942 359.793,93.905 363.931 C 90.204 371.451,83.588 374.751,71.535 375.090 C 63.133 375.325,64.013 374.297,64.005 383.891 C 63.999 392.373,64.376 391.913,57.327 392.040 C 53.331 392.112,52.270 392.007,51.427 391.455 L 50.400 390.782 50.400 363.591 C 50.400 336.933,50.416 336.384,51.200 335.600 C 52.279 334.521,74.533 334.377,79.600 335.416 M64.414 347.574 C 63.917 348.502,63.859 361.958,64.349 362.730 C 65.019 363.788,75.830 363.204,78.213 361.980 C 84.402 358.804,84.303 351.293,78.030 348.100 C 74.771 346.441,65.218 346.072,64.414 347.574 M300.577 348.089 C 301.064 348.784,301.200 350.124,301.200 354.227 C 301.200 360.453,301.198 360.456,296.876 361.357 C 289.421 362.912,287.675 366.542,287.556 380.736 C 287.454 392.903,287.975 392.000,281.053 392.000 C 273.656 392.000,274.445 394.606,274.423 370.089 C 274.400 345.472,273.651 348.000,280.971 348.000 C 286.670 348.000,287.720 348.570,287.586 351.585 C 287.463 354.325,287.552 354.725,288.078 353.818 C 290.705 349.289,298.814 345.572,300.577 348.089 M334.461 348.668 C 335.512 349.196,337.209 350.430,338.232 351.410 C 339.255 352.391,340.295 353.071,340.545 352.925 C 340.795 352.779,342.014 351.886,343.253 350.942 C 351.828 344.409,364.689 346.905,367.678 355.682 C 367.925 356.407,368.683 357.810,369.363 358.800 L 370.600 360.600 370.672 375.491 C 370.759 393.765,371.551 391.941,363.486 392.057 C 355.458 392.173,356.242 393.653,356.084 378.092 C 355.995 369.339,355.800 364.939,355.457 363.915 C 353.816 359.024,348.119 357.704,344.561 361.389 C 342.406 363.621,342.400 363.670,342.400 378.188 C 342.400 393.466,343.032 392.156,335.716 392.037 C 328.976 391.928,329.601 393.254,329.595 379.051 C 329.589 363.835,329.168 361.820,325.610 360.005 C 322.214 358.272,318.516 359.587,316.700 363.172 L 315.600 365.343 315.600 378.043 C 315.600 391.535,315.541 391.959,313.671 392.023 C 308.135 392.210,303.753 391.908,303.300 391.309 C 302.650 390.449,302.568 349.980,303.214 348.774 C 303.591 348.069,304.097 348.000,308.883 348.000 C 314.954 348.000,315.600 348.275,315.600 350.862 C 315.600 352.774,315.823 352.774,318.248 350.855 C 323.028 347.071,329.534 346.194,334.461 348.668 M140.493 351.600 C 140.493 352.370,140.575 352.685,140.676 352.300 C 140.776 351.915,140.776 351.285,140.676 350.900 C 140.575 350.515,140.493 350.830,140.493 351.600 M248.987 373.625 C 245.163 374.737,243.917 379.038,246.598 381.880 L 247.995 383.361 251.352 383.340 C 254.124 383.323,254.920 383.169,255.916 382.459 C 256.580 381.987,257.239 381.600,257.381 381.600 C 259.120 381.600,261.000 375.853,259.625 374.740 C 257.849 373.301,252.152 372.704,248.987 373.625 " stroke="none" fill="#fbfbfb" fill-rule="evenodd"></path><path id="path3" d="M259.989 33.059 C 259.339 33.235,259.123 33.529,257.493 36.462 C 256.924 37.487,256.539 38.406,256.638 38.505 C 256.737 38.604,255.761 39.186,254.469 39.800 C 250.855 41.516,250.223 43.200,253.192 43.200 C 254.512 43.200,254.947 42.955,256.173 41.523 C 256.963 40.600,257.876 39.783,258.202 39.706 C 258.528 39.630,259.330 39.465,259.983 39.340 C 260.892 39.167,261.368 38.705,262.016 37.367 C 262.481 36.406,263.044 35.661,263.268 35.710 C 263.883 35.846,264.561 34.597,264.276 33.854 C 264.138 33.494,263.829 33.200,263.589 33.200 C 263.349 33.200,263.264 33.380,263.400 33.600 C 263.786 34.224,262.812 34.069,262.143 33.400 C 261.546 32.803,261.157 32.742,259.989 33.059 M292.800 127.233 C 291.590 127.677,290.060 128.183,289.400 128.358 C 284.743 129.592,283.436 131.831,283.421 138.600 C 283.417 140.580,283.463 158.838,283.523 179.173 C 283.628 214.830,283.606 216.172,282.884 216.893 C 282.174 217.604,280.887 217.650,256.968 217.816 C 225.145 218.037,172.847 218.741,168.471 219.007 C 163.572 219.305,162.000 220.415,162.000 223.577 C 162.000 224.196,161.721 225.371,161.379 226.189 C 159.735 230.123,160.874 234.224,163.977 235.543 C 166.498 236.614,169.505 237.600,170.254 237.600 C 170.598 237.600,171.446 237.853,172.140 238.162 C 173.768 238.887,176.468 239.782,181.220 241.170 C 183.321 241.784,185.444 242.502,185.938 242.767 C 186.433 243.032,188.044 243.577,189.519 243.980 C 192.047 244.670,196.909 246.054,201.400 247.362 C 202.500 247.682,204.879 248.407,206.686 248.972 C 208.493 249.538,210.293 250.008,210.686 250.018 C 211.079 250.027,212.120 250.300,213.000 250.625 C 213.880 250.949,216.310 251.669,218.400 252.226 C 225.889 254.219,236.626 257.279,238.000 257.813 C 238.770 258.112,240.305 258.536,241.412 258.755 C 242.519 258.974,244.859 259.624,246.612 260.199 C 253.177 262.353,258.365 262.080,265.600 259.203 C 267.910 258.285,271.240 257.088,273.000 256.544 C 274.760 256.000,277.550 255.058,279.200 254.451 C 280.850 253.844,283.640 252.849,285.400 252.241 C 287.160 251.633,292.740 249.697,297.800 247.937 C 302.860 246.178,308.580 244.304,310.510 243.774 C 312.441 243.244,314.511 242.558,315.110 242.250 C 315.710 241.943,317.644 241.236,319.408 240.681 C 328.607 237.785,328.770 237.497,326.242 228.600 C 325.929 227.500,324.908 223.720,323.973 220.200 C 321.907 212.424,321.139 209.568,319.993 205.400 C 319.510 203.640,318.852 201.120,318.532 199.800 C 318.212 198.480,317.704 196.665,317.402 195.766 C 317.101 194.867,316.477 192.167,316.015 189.766 C 315.553 187.365,314.819 184.230,314.383 182.800 C 311.971 174.886,310.422 169.466,309.812 166.800 C 309.434 165.150,308.872 162.886,308.564 161.769 C 308.255 160.651,307.963 159.256,307.914 158.669 C 307.865 158.081,307.689 157.600,307.523 157.600 C 306.781 157.600,304.933 152.636,303.428 146.600 C 302.879 144.400,302.135 141.430,301.775 140.000 C 298.210 125.872,297.862 125.376,292.800 127.233 " stroke="none" fill="#e4f055" fill-rule="evenodd"></path><path id="path4" d="M188.433 23.250 C 187.022 23.648,185.681 24.159,185.453 24.387 C 185.226 24.614,184.773 24.800,184.446 24.800 C 184.120 24.800,183.121 25.145,182.226 25.568 C 179.839 26.695,172.884 29.600,172.574 29.600 C 172.428 29.600,170.962 30.230,169.318 31.000 C 167.674 31.770,166.245 32.400,166.142 32.400 C 165.869 32.400,162.381 33.916,161.068 34.605 C 160.445 34.932,159.737 35.200,159.494 35.200 C 159.082 35.200,157.779 35.752,153.756 37.632 C 152.852 38.054,151.912 38.400,151.667 38.400 C 151.422 38.400,150.362 38.781,149.311 39.247 C 148.260 39.713,146.860 40.332,146.200 40.622 C 145.050 41.126,141.606 42.653,138.940 43.839 C 138.246 44.148,137.464 44.400,137.201 44.400 C 136.938 44.400,136.246 44.656,135.662 44.969 C 133.753 45.992,130.957 47.200,130.497 47.200 C 130.250 47.200,128.518 47.920,126.648 48.800 C 124.778 49.680,123.041 50.400,122.786 50.400 C 122.532 50.400,121.846 50.664,121.262 50.987 C 120.678 51.311,119.030 52.044,117.600 52.618 C 116.170 53.191,114.280 53.983,113.400 54.377 C 112.520 54.771,111.143 55.388,110.340 55.747 C 109.536 56.106,108.626 56.400,108.316 56.400 C 108.006 56.400,107.404 56.664,106.976 56.987 C 106.549 57.310,105.888 57.580,105.506 57.587 C 102.756 57.638,102.196 59.519,100.800 73.400 C 100.358 77.800,99.824 82.750,99.615 84.400 C 99.406 86.050,99.224 88.840,99.210 90.600 C 99.197 92.360,98.926 95.507,98.608 97.593 C 98.291 99.678,97.922 103.368,97.789 105.793 C 97.656 108.217,97.385 111.036,97.187 112.057 C 96.989 113.078,96.634 116.768,96.399 120.257 C 96.164 123.746,95.708 128.423,95.386 130.651 C 95.064 132.880,94.800 136.210,94.800 138.051 C 94.800 139.893,94.550 142.750,94.244 144.400 C 93.938 146.050,93.569 149.830,93.422 152.800 C 93.276 155.770,92.979 158.877,92.762 159.704 C 92.545 160.531,92.106 164.491,91.788 168.504 C 91.088 177.313,90.584 182.774,89.787 190.200 C 89.456 193.280,89.002 198.410,88.778 201.600 C 88.554 204.790,88.211 208.390,88.015 209.600 C 87.204 214.607,87.807 215.772,92.464 218.186 C 93.639 218.795,94.796 219.450,95.036 219.643 C 95.276 219.835,96.446 220.514,97.636 221.152 C 98.826 221.790,100.419 222.647,101.176 223.056 C 101.934 223.465,102.903 224.106,103.331 224.480 C 103.758 224.854,104.759 225.466,105.554 225.840 C 106.349 226.213,107.948 227.122,109.108 227.859 C 110.267 228.597,111.328 229.200,111.466 229.200 C 111.604 229.200,112.666 229.830,113.826 230.600 C 114.986 231.370,116.106 232.000,116.314 232.000 C 116.522 232.000,117.147 232.357,117.702 232.794 C 118.257 233.231,119.677 234.071,120.856 234.660 C 122.035 235.249,124.876 236.888,127.169 238.302 C 129.462 239.716,131.712 241.045,132.169 241.257 C 132.626 241.468,133.658 242.037,134.461 242.521 C 135.265 243.004,137.425 244.278,139.261 245.352 C 141.098 246.425,142.870 247.529,143.200 247.806 C 143.530 248.083,144.790 248.835,146.000 249.478 C 147.210 250.122,148.920 251.102,149.800 251.658 C 150.680 252.214,152.840 253.443,154.600 254.390 C 156.360 255.337,158.027 256.291,158.305 256.509 C 158.582 256.727,159.351 257.197,160.012 257.553 C 160.674 257.909,162.616 259.037,164.328 260.059 C 170.124 263.521,171.390 263.159,176.147 256.688 C 176.758 255.857,177.573 254.867,177.957 254.488 C 178.341 254.110,179.797 252.450,181.193 250.800 C 186.394 244.651,187.065 244.002,188.261 243.959 L 189.400 243.918 188.200 243.629 C 187.540 243.469,186.559 243.102,186.020 242.812 C 185.481 242.523,183.321 241.784,181.220 241.170 C 176.468 239.782,173.768 238.887,172.140 238.162 C 171.446 237.853,170.598 237.600,170.254 237.600 C 169.505 237.600,166.498 236.614,163.977 235.543 C 160.874 234.224,159.735 230.123,161.379 226.189 C 161.721 225.371,162.000 224.196,162.000 223.577 C 162.000 218.579,159.419 218.790,229.600 218.052 L 259.800 217.734 210.589 217.667 C 169.835 217.611,161.242 217.693,160.589 218.140 C 160.155 218.437,159.302 218.802,158.694 218.949 C 157.613 219.212,157.602 219.243,158.194 220.389 C 158.987 221.923,158.974 226.015,158.170 227.913 C 157.522 229.443,157.359 232.394,157.811 234.449 C 158.130 235.900,160.183 237.012,164.400 238.015 C 166.050 238.408,170.010 239.639,173.200 240.751 C 176.390 241.862,179.487 242.778,180.082 242.786 C 180.677 242.794,181.787 243.222,182.547 243.738 L 183.929 244.676 182.365 246.438 C 181.505 247.407,180.801 248.425,180.801 248.700 C 180.800 248.975,180.572 249.200,180.294 249.200 C 180.015 249.200,179.174 250.136,178.425 251.280 C 177.054 253.375,172.102 259.283,171.506 259.536 C 171.330 259.610,170.932 259.925,170.621 260.236 C 169.780 261.077,166.587 260.415,165.600 259.194 C 165.490 259.058,164.369 258.363,163.108 257.649 C 161.848 256.935,160.721 256.196,160.604 256.006 C 160.487 255.817,159.853 255.543,159.195 255.399 C 158.538 255.255,158.000 254.973,158.000 254.774 C 158.000 254.575,156.875 253.846,155.500 253.155 C 154.125 252.464,152.100 251.334,151.000 250.644 C 148.380 249.002,147.713 248.609,145.800 247.584 C 144.920 247.112,143.300 246.141,142.200 245.426 C 141.100 244.711,138.580 243.262,136.600 242.206 C 134.620 241.151,132.549 239.997,131.998 239.643 C 130.104 238.427,129.397 238.011,128.200 237.407 C 127.540 237.074,126.460 236.449,125.800 236.019 C 125.140 235.588,123.700 234.764,122.600 234.187 C 121.500 233.610,119.700 232.551,118.600 231.832 C 117.500 231.114,115.610 230.003,114.400 229.363 C 113.190 228.723,112.110 228.090,112.000 227.956 C 111.708 227.600,106.782 224.869,105.532 224.370 C 104.945 224.136,104.374 223.710,104.264 223.424 C 104.155 223.137,103.557 222.776,102.936 222.620 C 102.316 222.464,101.716 222.200,101.604 222.034 C 101.492 221.867,100.230 221.059,98.800 220.238 C 93.200 217.022,90.388 215.244,89.888 214.601 C 89.499 214.103,89.939 203.516,90.428 201.581 C 90.626 200.800,91.068 196.030,91.412 190.981 C 92.289 178.072,93.083 168.341,93.563 164.600 C 93.789 162.840,94.159 159.060,94.385 156.200 C 95.038 147.946,95.589 141.700,96.025 137.600 C 96.247 135.510,96.603 131.820,96.816 129.400 C 97.028 126.980,97.400 123.380,97.642 121.400 C 97.884 119.420,98.329 114.560,98.631 110.600 C 98.934 106.640,99.355 102.500,99.567 101.400 C 99.779 100.300,99.963 97.669,99.976 95.552 C 99.989 93.436,100.259 90.196,100.576 88.352 C 100.893 86.509,101.269 82.570,101.412 79.600 C 101.555 76.630,101.916 73.210,102.215 72.000 C 102.514 70.790,102.841 67.826,102.941 65.413 C 103.169 59.920,103.468 59.622,112.200 56.212 C 113.740 55.610,115.810 54.759,116.800 54.321 C 120.912 52.498,121.447 52.255,122.462 51.739 C 123.046 51.443,123.732 51.200,123.986 51.200 C 124.241 51.200,125.473 50.735,126.725 50.168 C 130.599 48.410,135.493 46.412,138.875 45.208 C 139.906 44.841,140.986 44.365,141.275 44.151 C 141.816 43.751,143.795 42.880,148.518 40.966 C 150.013 40.360,151.329 39.715,151.442 39.532 C 151.555 39.350,152.014 39.200,152.463 39.200 C 152.912 39.200,153.846 38.944,154.540 38.630 C 155.233 38.317,157.150 37.497,158.800 36.807 C 160.450 36.117,162.160 35.396,162.600 35.204 C 163.615 34.762,168.343 32.811,169.400 32.398 C 169.840 32.226,171.190 31.637,172.400 31.090 C 174.596 30.095,175.321 29.803,180.600 27.781 C 182.140 27.191,184.448 26.192,185.728 25.560 C 189.979 23.465,191.089 23.682,197.365 27.837 C 201.964 30.882,207.266 34.346,209.551 35.800 C 212.823 37.882,214.926 39.271,216.696 40.521 C 217.849 41.334,218.914 42.000,219.062 42.000 C 219.211 42.000,219.618 42.276,219.966 42.613 C 220.702 43.324,225.643 46.667,230.088 49.460 C 231.853 50.568,233.182 51.680,233.188 52.052 C 233.200 52.699,227.932 58.398,227.319 58.402 C 227.144 58.403,225.657 59.666,224.017 61.208 C 222.376 62.750,220.442 64.414,219.719 64.906 C 216.343 67.204,217.529 67.324,245.400 67.490 C 259.040 67.571,271.178 67.809,272.373 68.019 C 273.569 68.228,276.295 68.400,278.431 68.400 C 283.146 68.400,282.796 67.783,282.812 76.133 C 282.827 83.568,283.301 84.968,286.345 86.562 C 288.020 87.438,289.525 88.604,294.136 92.600 C 295.660 93.920,298.452 96.224,300.341 97.719 C 302.231 99.214,303.872 100.575,303.988 100.742 C 304.227 101.084,309.365 105.273,313.000 108.089 C 314.320 109.111,316.120 110.628,317.000 111.460 C 317.880 112.292,319.410 113.586,320.400 114.335 C 325.942 118.527,326.008 118.794,323.000 124.907 C 321.790 127.367,320.800 129.594,320.800 129.856 C 320.800 130.119,320.642 130.393,320.448 130.467 C 320.132 130.587,312.000 146.840,312.000 147.352 C 312.000 147.608,310.513 149.821,309.336 151.318 C 308.442 152.455,307.279 152.747,307.025 151.900 C 306.942 151.625,306.498 150.095,306.037 148.500 C 305.577 146.905,304.843 144.385,304.407 142.900 C 303.970 141.415,303.158 138.400,302.601 136.200 C 302.044 134.000,301.344 131.570,301.046 130.800 C 300.748 130.030,300.384 128.569,300.236 127.554 C 299.661 123.605,297.702 123.333,290.726 126.231 C 288.913 126.984,286.764 127.600,285.951 127.600 C 282.625 127.600,282.800 125.031,282.800 173.846 C 282.800 207.298,282.692 216.767,282.304 217.220 C 282.032 217.539,282.219 217.428,282.721 216.973 L 283.632 216.146 283.523 179.173 C 283.463 158.838,283.417 140.580,283.421 138.600 C 283.435 132.114,285.589 128.400,289.336 128.400 C 289.645 128.400,290.694 128.048,291.666 127.618 C 295.950 125.723,297.526 126.171,298.854 129.658 C 299.752 132.018,300.279 133.971,303.428 146.600 C 304.980 152.826,306.781 157.600,307.577 157.600 C 307.773 157.600,309.401 154.585,311.194 150.900 C 312.987 147.215,314.623 143.930,314.830 143.600 C 315.036 143.270,315.303 142.730,315.423 142.400 C 315.543 142.070,315.921 141.260,316.264 140.600 C 317.287 138.631,318.503 136.203,322.552 128.047 C 324.668 123.784,326.400 119.789,326.400 119.171 C 326.400 117.850,326.566 118.002,313.540 107.400 C 310.837 105.200,308.337 103.130,307.984 102.800 C 306.490 101.403,304.369 99.627,300.749 96.742 C 298.632 95.054,296.562 93.330,296.149 92.911 C 295.737 92.492,293.960 90.992,292.200 89.577 C 289.109 87.094,288.044 86.206,285.434 83.938 L 284.211 82.876 284.062 75.666 C 283.873 66.597,284.066 66.882,278.034 66.715 L 273.887 66.600 273.338 64.600 C 273.036 63.500,272.630 60.966,272.437 58.968 C 272.244 56.971,271.809 54.091,271.471 52.568 C 271.133 51.046,270.672 48.360,270.446 46.600 C 269.614 40.117,269.154 36.885,268.364 32.000 C 267.920 29.250,267.472 26.435,267.369 25.745 C 267.025 23.448,264.171 24.071,261.843 26.951 C 261.209 27.735,251.742 36.237,249.600 37.946 C 248.128 39.121,240.322 46.042,239.600 46.814 C 238.406 48.089,235.403 50.099,234.698 50.095 C 233.586 50.088,226.673 46.014,223.782 43.661 C 223.552 43.474,223.182 43.249,222.961 43.161 C 222.592 43.014,205.300 31.595,199.920 27.947 C 198.665 27.096,197.470 26.400,197.262 26.400 C 197.055 26.400,196.797 26.175,196.689 25.900 C 196.581 25.625,195.257 24.753,193.746 23.963 L 191.000 22.526 188.433 23.250 M262.143 33.400 C 262.812 34.069,263.786 34.224,263.400 33.600 C 263.264 33.380,263.349 33.200,263.589 33.200 C 263.829 33.200,264.138 33.494,264.276 33.854 C 264.561 34.597,263.883 35.846,263.268 35.710 C 263.044 35.661,262.481 36.406,262.016 37.367 C 261.368 38.705,260.892 39.167,259.983 39.340 C 259.330 39.465,258.528 39.630,258.202 39.706 C 257.876 39.783,256.963 40.600,256.173 41.523 C 254.947 42.955,254.512 43.200,253.192 43.200 C 250.223 43.200,250.855 41.516,254.469 39.800 C 255.761 39.186,256.737 38.604,256.638 38.505 C 256.481 38.348,257.666 35.996,258.953 33.912 C 259.652 32.779,261.263 32.521,262.143 33.400 M229.200 86.037 C 208.686 88.032,194.586 112.062,202.990 130.706 C 203.313 131.424,203.885 132.684,204.260 133.506 C 211.204 148.714,230.204 155.664,247.141 149.190 C 249.136 148.428,253.096 146.121,254.226 145.063 C 254.498 144.808,255.728 143.726,256.960 142.657 C 260.056 139.972,259.998 139.738,255.023 134.842 C 250.267 130.162,250.505 130.215,246.847 132.995 C 240.390 137.903,232.480 138.906,226.059 135.630 C 222.301 133.713,217.200 127.125,217.200 124.189 C 217.200 123.679,216.990 122.352,216.734 121.241 C 214.366 110.984,223.286 99.775,233.787 99.811 C 236.735 99.821,240.184 100.591,242.000 101.644 C 242.330 101.835,243.243 102.341,244.028 102.767 C 244.813 103.194,246.225 104.186,247.166 104.971 C 249.757 107.136,249.400 107.347,256.112 99.703 C 259.163 96.228,259.172 96.031,256.397 93.462 C 251.173 88.624,239.213 84.645,232.931 85.653 C 232.749 85.682,231.070 85.855,229.200 86.037 M146.623 87.289 C 145.526 88.855,145.695 148.095,146.800 149.200 C 148.006 150.406,159.743 150.428,160.386 149.226 C 160.634 148.763,160.800 145.077,160.800 140.050 C 160.800 133.767,160.926 131.566,161.300 131.324 C 161.575 131.146,165.400 130.892,169.800 130.760 C 178.998 130.484,180.321 130.206,186.385 127.270 C 197.584 121.849,200.250 103.157,191.207 93.462 C 189.386 91.509,186.316 89.200,185.542 89.200 C 185.312 89.200,184.646 88.938,184.062 88.617 C 180.580 86.704,177.559 86.400,162.018 86.400 L 147.245 86.400 146.623 87.289 M241.338 87.400 C 242.128 87.730,243.275 88.001,243.887 88.002 C 244.499 88.004,245.454 88.242,246.009 88.532 C 246.565 88.822,247.600 89.261,248.311 89.509 C 250.046 90.114,253.852 92.607,255.701 94.350 C 257.406 95.957,257.386 96.629,255.576 98.595 C 253.520 100.827,250.800 104.150,250.800 104.429 C 250.800 105.378,248.938 105.039,247.441 103.820 C 240.565 98.218,229.745 97.225,223.803 101.650 C 222.045 102.959,219.600 105.403,219.600 105.851 C 219.600 106.153,219.411 106.400,219.179 106.400 C 218.948 106.400,218.570 106.940,218.340 107.600 C 218.110 108.260,217.781 108.800,217.608 108.800 C 217.436 108.800,217.080 109.653,216.818 110.695 C 216.555 111.737,216.181 112.782,215.986 113.017 C 214.511 114.794,215.791 127.002,217.600 128.400 C 217.742 128.510,217.982 128.934,218.132 129.341 C 219.109 131.981,224.589 136.762,227.400 137.427 C 228.060 137.583,228.853 137.910,229.162 138.155 C 230.096 138.895,238.357 138.675,239.800 137.873 C 240.460 137.505,241.360 137.203,241.800 137.200 C 242.533 137.195,247.106 134.488,248.721 133.104 C 250.290 131.759,250.664 131.930,254.385 135.693 C 256.373 137.705,258.000 139.529,258.000 139.749 C 258.000 140.388,252.755 145.200,252.057 145.200 C 251.874 145.200,251.398 145.560,251.000 146.000 C 250.602 146.440,250.025 146.800,249.717 146.800 C 249.410 146.800,248.493 147.146,247.679 147.569 C 245.079 148.920,243.062 149.563,240.600 149.825 C 239.280 149.965,237.414 150.247,236.453 150.452 C 234.355 150.899,225.393 149.862,223.694 148.975 C 223.092 148.662,222.206 148.404,221.724 148.402 C 221.242 148.401,220.725 148.202,220.575 147.959 C 220.425 147.717,219.739 147.256,219.051 146.935 C 215.347 145.208,213.065 143.312,207.791 137.574 C 207.029 136.745,204.004 130.748,204.002 130.062 C 204.001 129.766,203.744 129.046,203.431 128.462 C 201.803 125.425,201.643 111.045,203.214 109.000 C 203.383 108.780,203.738 107.790,204.002 106.800 C 204.267 105.810,204.599 104.910,204.741 104.800 C 204.884 104.690,205.322 103.970,205.716 103.200 C 208.168 98.410,211.975 94.342,216.600 91.572 C 220.615 89.166,222.095 88.515,224.800 87.959 C 226.010 87.711,227.270 87.354,227.600 87.166 C 228.694 86.543,239.739 86.732,241.338 87.400 M181.989 88.988 C 194.417 93.570,199.140 105.856,193.372 118.600 C 192.631 120.238,187.138 126.000,186.318 126.000 C 186.068 126.000,185.579 126.233,185.231 126.519 C 182.752 128.556,175.177 129.996,166.929 129.998 C 159.403 130.001,160.000 129.154,160.000 139.829 L 160.000 148.400 153.800 148.400 L 147.600 148.400 147.585 146.300 C 147.479 131.927,147.687 88.183,147.863 87.899 C 148.004 87.669,154.123 87.593,163.547 87.704 L 179.000 87.886 181.989 88.988 M160.800 99.563 C 160.127 100.020,159.877 118.411,160.534 119.067 C 161.210 119.740,175.472 119.438,176.274 118.733 C 176.673 118.382,177.402 117.972,177.894 117.822 C 180.674 116.975,183.598 110.256,182.477 107.291 C 182.251 106.691,181.962 105.725,181.836 105.144 C 181.507 103.627,178.927 101.250,176.600 100.319 C 174.287 99.393,161.921 98.802,160.800 99.563 M174.077 100.958 C 183.669 102.649,184.506 114.804,175.229 117.695 C 172.104 118.668,161.410 118.723,161.043 117.767 C 160.696 116.863,160.754 101.888,161.106 101.360 C 161.828 100.279,168.970 100.058,174.077 100.958 M130.674 151.241 C 130.141 152.428,128.667 155.732,127.398 158.583 L 125.091 163.766 125.353 167.764 C 125.714 173.273,126.944 175.201,128.019 171.943 L 128.566 170.286 128.897 171.443 C 129.598 173.890,130.847 181.969,131.086 185.600 C 131.513 192.092,131.849 188.244,132.400 170.587 C 133.060 149.391,132.802 146.496,130.674 151.241 M147.647 189.156 C 146.415 189.950,146.167 198.514,147.353 199.294 C 148.309 199.923,203.460 199.651,203.988 199.015 C 204.658 198.207,204.400 190.238,203.680 189.519 C 203.059 188.899,148.594 188.546,147.647 189.156 M203.200 194.603 L 203.200 198.805 175.500 198.703 L 147.800 198.600 147.683 195.032 C 147.619 193.069,147.659 191.224,147.771 190.932 C 147.938 190.497,152.990 190.400,175.587 190.400 L 203.200 190.400 203.200 194.603 M274.600 217.600 C 274.028 217.846,274.427 217.940,276.000 217.932 C 277.679 217.923,277.963 217.844,277.200 217.600 C 275.904 217.185,275.566 217.185,274.600 217.600 M192.557 331.991 C 191.249 332.520,191.227 333.009,191.217 362.500 C 191.205 395.713,190.350 392.000,198.009 392.000 C 205.045 392.000,204.400 393.428,204.400 377.859 C 204.400 366.442,204.470 365.105,205.148 363.533 C 207.472 358.151,214.756 357.713,217.449 362.794 C 218.394 364.577,218.400 364.665,218.400 377.685 L 218.400 390.782 219.368 391.416 C 221.110 392.557,230.003 392.339,230.876 391.133 C 231.619 390.106,232.072 382.661,231.451 381.673 C 231.027 380.999,231.390 380.634,232.183 380.938 C 232.542 381.076,232.800 381.658,232.800 382.328 C 232.800 384.927,236.266 389.463,239.378 390.937 C 240.050 391.255,241.123 391.760,241.762 392.058 C 243.232 392.744,252.408 392.817,253.239 392.149 C 253.547 391.901,254.250 391.566,254.800 391.404 C 255.350 391.243,256.660 390.589,257.711 389.952 C 259.436 388.907,259.644 388.862,259.844 389.497 C 260.679 392.151,260.312 392.000,265.915 392.000 C 273.159 392.000,272.434 393.763,272.410 376.208 C 272.389 360.645,272.083 357.870,270.135 355.569 C 269.841 355.221,269.594 354.771,269.587 354.569 C 269.538 353.147,264.514 349.830,260.464 348.544 C 256.886 347.409,248.747 347.202,245.373 348.161 C 244.288 348.469,242.680 348.846,241.800 348.997 C 240.920 349.149,239.660 349.552,239.000 349.894 C 238.340 350.235,237.530 350.641,237.200 350.798 C 236.338 351.206,236.249 352.566,236.957 354.510 C 237.295 355.440,237.765 356.965,238.002 357.901 C 238.721 360.750,239.490 360.972,244.421 359.762 C 251.895 357.927,256.981 358.911,259.090 362.601 C 260.270 364.667,260.160 365.842,258.800 365.683 C 243.177 363.860,233.870 367.343,232.830 375.400 C 232.220 380.129,231.448 375.948,231.557 368.501 C 231.667 360.914,231.295 358.175,229.703 354.870 C 225.741 346.645,212.761 344.649,206.483 351.300 C 204.554 353.344,204.400 352.701,204.400 342.600 C 204.400 330.850,204.824 331.589,198.100 331.625 C 195.515 331.639,193.021 331.804,192.557 331.991 M202.676 333.700 C 202.854 333.975,203.005 338.575,203.012 343.922 C 203.026 355.762,203.213 356.141,207.264 352.543 C 213.584 346.931,223.195 347.716,227.672 354.212 C 229.764 357.246,230.035 359.860,229.911 375.800 L 229.800 390.200 225.232 390.314 C 221.847 390.398,220.580 390.294,220.338 389.914 C 220.159 389.631,220.009 383.962,220.006 377.315 C 220.000 366.069,219.942 365.076,219.169 363.010 C 216.671 356.331,207.353 355.990,204.130 362.459 C 203.224 364.276,203.202 364.598,203.175 376.403 C 203.140 391.541,203.554 390.400,198.090 390.400 C 195.256 390.400,193.594 390.234,193.280 389.920 C 192.586 389.226,192.586 334.374,193.280 333.680 C 193.959 333.001,202.235 333.019,202.676 333.700 M162.000 334.390 C 154.792 335.724,147.135 340.930,143.060 347.266 C 141.404 349.841,140.784 350.222,140.192 349.032 C 139.805 348.256,139.394 348.193,134.090 348.089 L 128.402 347.978 127.643 349.226 C 127.225 349.913,126.325 352.303,125.643 354.537 C 124.960 356.772,124.203 359.140,123.960 359.800 C 123.717 360.460,123.281 361.900,122.991 363.000 C 122.491 364.899,122.140 365.982,120.983 369.200 C 120.706 369.970,120.190 371.410,119.836 372.400 C 119.139 374.350,118.519 375.488,118.316 375.188 C 118.246 375.085,117.301 372.300,116.216 369.000 C 115.131 365.700,114.115 362.820,113.958 362.600 C 113.800 362.380,113.541 361.480,113.382 360.600 C 113.223 359.720,112.847 358.514,112.547 357.920 C 112.246 357.326,112.000 356.513,112.000 356.114 C 112.000 355.715,111.640 354.716,111.200 353.896 C 110.760 353.075,110.400 351.966,110.400 351.432 C 110.400 350.898,109.934 349.908,109.364 349.231 L 108.329 348.000 102.572 348.000 L 96.815 348.000 96.526 349.100 C 96.156 350.511,96.328 351.636,97.037 352.431 C 97.347 352.779,97.600 353.299,97.600 353.588 C 97.600 353.876,97.938 354.852,98.351 355.756 C 98.764 356.660,99.500 358.480,99.986 359.800 C 101.038 362.652,102.709 366.753,103.170 367.613 C 103.350 367.950,103.634 368.850,103.800 369.613 C 103.966 370.376,104.349 371.355,104.651 371.789 C 104.953 372.223,105.206 372.853,105.214 373.189 C 105.221 373.525,105.575 374.520,106.000 375.400 C 106.425 376.280,106.779 377.153,106.786 377.340 C 106.794 377.526,107.049 378.246,107.354 378.940 C 113.441 392.789,113.188 395.218,105.830 393.572 C 103.093 392.959,103.030 393.007,100.855 397.337 C 98.730 401.567,98.882 402.059,102.904 403.940 C 108.230 406.431,112.594 406.467,116.245 404.052 C 121.277 400.723,122.866 398.154,126.795 387.000 C 127.724 384.360,129.099 380.659,129.849 378.776 C 130.598 376.894,131.376 374.824,131.576 374.176 C 131.776 373.529,132.314 372.055,132.770 370.900 C 133.227 369.745,133.974 367.855,134.432 366.700 C 134.889 365.545,135.448 363.970,135.673 363.200 C 135.899 362.430,136.228 361.620,136.406 361.400 C 136.583 361.180,136.853 360.331,137.006 359.513 C 137.159 358.695,137.625 357.632,138.042 357.151 C 138.459 356.671,138.800 355.855,138.800 355.339 C 138.800 354.822,138.988 354.400,139.218 354.400 C 139.660 354.400,139.484 356.117,138.738 359.062 C 137.980 362.056,138.815 370.325,140.227 373.800 C 142.782 380.090,145.186 383.409,149.600 386.739 C 150.370 387.320,151.090 387.886,151.200 387.998 C 151.951 388.758,155.720 390.563,159.000 391.735 C 161.071 392.475,162.277 392.593,167.800 392.596 C 175.651 392.601,177.172 392.221,184.129 388.518 C 185.687 387.688,190.590 383.395,190.714 382.752 C 190.779 382.415,189.269 380.488,187.358 378.470 C 183.425 374.315,182.576 374.006,180.314 375.900 C 172.009 382.853,160.780 381.878,155.375 373.737 C 152.326 369.143,151.528 363.121,153.214 357.441 C 153.710 355.768,154.258 354.400,154.431 354.400 C 154.604 354.400,154.858 354.049,154.994 353.619 C 155.130 353.190,156.125 351.937,157.204 350.835 C 163.038 344.877,171.285 344.749,179.753 350.485 C 182.459 352.318,183.143 352.208,185.095 349.629 C 185.689 348.843,186.937 347.381,187.867 346.381 C 190.419 343.636,190.625 342.768,189.071 341.300 C 187.303 339.630,183.725 337.200,183.033 337.200 C 182.716 337.200,182.219 336.967,181.929 336.683 C 179.926 334.723,167.758 333.323,162.000 334.390 M51.200 335.600 C 50.416 336.384,50.400 336.933,50.400 363.591 L 50.400 390.782 51.427 391.455 C 52.270 392.007,53.331 392.112,57.327 392.040 C 64.376 391.913,63.999 392.373,64.005 383.891 C 64.013 374.297,63.133 375.325,71.535 375.090 C 83.588 374.751,90.204 371.451,93.905 363.931 C 95.942 359.793,96.532 351.019,94.977 348.000 C 94.694 347.450,94.057 346.115,93.563 345.034 C 92.577 342.875,88.442 338.400,87.434 338.400 C 87.085 338.400,86.800 338.253,86.800 338.074 C 86.800 337.543,82.831 336.078,79.600 335.416 C 74.533 334.377,52.279 334.521,51.200 335.600 M173.400 335.791 C 179.131 336.603,183.459 338.381,186.946 341.358 C 188.899 343.025,188.809 343.315,185.083 347.363 L 182.173 350.526 180.305 349.101 C 164.556 337.080,144.484 353.133,152.426 371.400 C 157.304 382.622,173.877 385.891,181.149 377.066 C 182.397 375.551,188.400 379.984,188.400 382.421 C 188.400 386.030,178.040 390.755,169.397 391.088 C 151.778 391.767,140.160 380.658,140.230 363.200 C 140.303 344.960,154.616 333.133,173.400 335.791 M80.893 337.186 C 90.824 339.664,96.111 348.590,93.977 359.280 C 92.125 368.561,85.093 373.052,71.800 373.445 C 68.060 373.555,64.613 373.724,64.140 373.821 C 62.748 374.103,62.400 375.987,62.400 383.246 C 62.400 391.259,62.775 390.780,56.733 390.497 C 52.807 390.314,52.448 390.230,52.239 389.449 C 51.899 388.184,51.964 337.474,52.306 336.946 C 53.043 335.809,76.147 336.003,80.893 337.186 M63.382 346.182 C 62.280 347.284,61.859 360.329,62.835 363.129 C 64.041 366.587,78.425 365.138,81.717 361.226 C 85.260 357.016,84.799 350.975,80.696 347.846 C 77.033 345.052,65.609 343.954,63.382 346.182 M78.030 348.100 C 84.303 351.293,84.402 358.804,78.213 361.980 C 75.830 363.204,65.019 363.788,64.349 362.730 C 63.859 361.958,63.917 348.502,64.414 347.574 C 65.218 346.072,74.771 346.441,78.030 348.100 M296.303 347.633 C 293.703 348.246,289.458 351.438,288.078 353.818 C 287.552 354.725,287.463 354.325,287.586 351.585 C 287.720 348.570,286.670 348.000,280.971 348.000 C 273.651 348.000,274.400 345.472,274.423 370.089 C 274.445 394.606,273.656 392.000,281.053 392.000 C 287.975 392.000,287.454 392.903,287.556 380.736 C 287.675 366.542,289.421 362.912,296.876 361.357 C 301.198 360.456,301.200 360.453,301.200 354.227 C 301.200 347.150,300.776 346.579,296.303 347.633 M324.761 347.593 C 322.495 347.991,320.782 348.849,318.248 350.855 C 315.823 352.774,315.600 352.774,315.600 350.862 C 315.600 348.275,314.954 348.000,308.883 348.000 C 304.097 348.000,303.591 348.069,303.214 348.774 C 302.568 349.980,302.650 390.449,303.300 391.309 C 303.753 391.908,308.135 392.210,313.671 392.023 C 315.541 391.959,315.600 391.535,315.600 378.043 L 315.600 365.343 316.700 363.172 C 318.516 359.587,322.214 358.272,325.610 360.005 C 329.168 361.820,329.589 363.835,329.595 379.051 C 329.601 393.254,328.976 391.928,335.716 392.037 C 343.032 392.156,342.400 393.466,342.400 378.188 C 342.400 363.670,342.406 363.621,344.561 361.389 C 348.119 357.704,353.816 359.024,355.457 363.915 C 355.800 364.939,355.995 369.339,356.084 378.092 C 356.242 393.653,355.458 392.173,363.486 392.057 C 371.551 391.941,370.759 393.765,370.672 375.491 L 370.600 360.600 369.363 358.800 C 368.683 357.810,367.925 356.407,367.678 355.682 C 364.689 346.905,351.828 344.409,343.253 350.942 C 342.014 351.886,340.795 352.779,340.545 352.925 C 340.295 353.071,339.255 352.391,338.232 351.410 C 334.732 348.056,329.905 346.689,324.761 347.593 M258.800 349.674 C 269.096 351.608,271.178 356.202,271.192 377.024 C 271.202 391.906,271.805 390.951,262.716 390.439 C 262.280 390.414,261.859 389.824,261.555 388.808 C 260.874 386.535,260.032 386.445,257.195 388.339 C 249.286 393.621,237.761 391.356,234.746 383.927 C 230.114 372.515,241.045 363.904,256.188 367.036 C 261.381 368.110,262.621 366.902,260.679 362.661 C 258.319 357.505,251.754 356.060,242.457 358.650 C 239.910 359.360,240.232 359.603,238.983 356.029 C 237.515 351.827,237.721 351.536,243.119 350.178 C 248.169 348.907,253.763 348.727,258.800 349.674 M299.329 349.386 C 299.799 349.856,299.875 350.831,299.713 354.286 C 299.495 358.945,299.190 359.596,297.224 359.604 C 294.268 359.615,289.744 362.939,288.023 366.365 C 286.329 369.737,286.000 372.091,286.000 380.846 C 286.000 391.001,286.326 390.400,280.810 390.400 C 278.410 390.400,276.341 390.228,276.210 390.017 C 275.895 389.507,275.887 350.507,276.202 349.997 C 276.340 349.774,278.354 349.600,280.810 349.600 C 285.887 349.600,286.008 349.689,285.880 353.314 C 285.742 357.189,287.440 357.670,289.636 354.379 C 292.404 350.230,297.531 347.588,299.329 349.386 M333.719 349.913 C 334.774 350.385,336.553 351.682,337.672 352.796 C 340.025 355.136,340.297 355.132,343.349 352.720 C 352.055 345.838,363.371 347.989,366.628 357.144 C 366.991 358.165,367.633 359.854,368.054 360.897 C 368.848 362.864,369.199 388.707,368.448 389.922 C 368.086 390.509,358.558 390.718,357.992 390.152 C 357.765 389.925,357.564 384.569,357.503 377.183 C 357.402 364.904,357.377 364.549,356.450 362.498 C 354.017 357.116,347.029 356.121,343.093 360.597 C 341.148 362.808,341.055 363.484,340.821 377.068 C 340.700 384.145,340.502 390.033,340.383 390.152 C 339.998 390.534,332.631 390.711,331.700 390.359 L 330.800 390.020 330.776 378.310 C 330.740 360.671,329.704 358.047,322.730 357.928 C 315.487 357.805,314.241 360.580,314.124 377.101 C 314.023 391.414,314.428 390.240,309.509 390.490 C 303.395 390.800,304.000 393.072,304.000 369.785 L 304.000 350.015 304.900 349.791 C 305.395 349.667,307.600 349.619,309.800 349.683 L 313.800 349.800 313.928 351.592 C 314.130 354.437,315.794 355.375,317.431 353.566 C 321.487 349.084,328.403 347.533,333.719 349.913 M108.340 350.300 C 108.543 350.685,109.731 354.150,110.981 358.000 C 112.231 361.850,113.416 365.360,113.613 365.800 C 113.979 366.614,114.794 369.091,116.413 374.307 C 118.098 379.732,119.593 378.979,121.788 371.600 C 122.607 368.850,123.696 365.340,124.208 363.800 C 124.721 362.260,125.900 358.570,126.828 355.600 C 128.835 349.180,128.327 349.614,133.833 349.606 C 139.174 349.599,139.389 349.837,137.601 353.800 C 137.403 354.240,136.705 356.130,136.050 358.000 C 135.395 359.870,134.196 363.110,133.385 365.200 C 132.575 367.290,131.414 370.350,130.806 372.000 C 130.197 373.650,128.484 378.240,126.999 382.200 C 125.514 386.160,123.871 390.554,123.348 391.963 C 119.109 403.390,112.246 406.837,102.840 402.267 C 101.035 401.390,100.952 400.715,102.287 397.741 C 103.647 394.710,103.472 394.786,107.680 395.417 C 109.291 395.659,109.818 395.548,111.363 394.643 C 114.248 392.952,114.222 391.691,111.168 384.889 C 110.746 383.948,110.400 382.994,110.400 382.767 C 110.400 382.541,110.060 381.601,109.645 380.678 C 109.230 379.755,108.225 377.200,107.411 375.000 C 106.598 372.800,104.932 368.480,103.709 365.400 C 98.888 353.255,97.856 350.277,98.313 349.820 C 98.953 349.181,107.979 349.613,108.340 350.300 M140.676 352.300 C 140.575 352.685,140.493 352.370,140.493 351.600 C 140.493 350.830,140.575 350.515,140.676 350.900 C 140.776 351.285,140.776 351.915,140.676 352.300 M249.197 371.974 C 240.068 374.751,243.021 386.407,252.486 384.950 C 261.376 383.582,265.447 374.163,258.000 372.192 C 255.680 371.578,250.889 371.459,249.197 371.974 M257.268 373.612 C 260.026 374.378,260.588 375.154,260.034 377.430 C 259.607 379.184,258.070 381.600,257.381 381.600 C 257.239 381.600,256.580 381.987,255.916 382.459 C 254.920 383.169,254.124 383.323,251.352 383.340 L 247.995 383.361 246.598 381.880 C 241.804 376.797,248.910 371.291,257.268 373.612 " stroke="none" fill="#9dbda1" fill-rule="evenodd"></path></g></svg>